<?xml version="1.0" encoding="UTF-8"?>
<svg xmlns="http://www.w3.org/2000/svg" xmlns:xlink="http://www.w3.org/1999/xlink" width="200pt" height="200pt" viewBox="0 0 200 200" version="1.1">
<g id="surface1">
<path style=" stroke:none;fill-rule:nonzero;fill:rgb(0%,0%,0%);fill-opacity:1;" d="M 87.699219 43.699219 C 63.5 67.800781 42.5 89.300781 40.898438 91.398438 C 38.601562 94.398438 38 96.398438 38 100.101562 C 38 104.398438 38.5 105.5 42.898438 110.699219 C 45.601562 113.898438 66.601562 135.300781 89.699219 158.199219 C 129.101562 197.5 131.800781 200 135.101562 200 C 139.398438 200 142 197.5 142 193.398438 C 142 191 135.601562 184.101562 96.800781 145.300781 L 51.5 100 L 96.800781 54.699219 C 136.898438 14.601562 142 9.101562 142 6.398438 C 142 2.5 139.300781 0 135 0 C 131.898438 0 128.101562 3.5 87.699219 43.699219 Z M 87.699219 43.699219 "/>
</g>
</svg>
