<?xml version="1.0" encoding="UTF-8"?>
<svg xmlns="http://www.w3.org/2000/svg" xmlns:xlink="http://www.w3.org/1999/xlink" width="200pt" height="200pt" viewBox="0 0 200 200" version="1.1">
<g id="surface1">
<path style=" stroke:none;fill-rule:nonzero;fill:rgb(0%,0%,0%);fill-opacity:1;" d="M 4.160156 55.039062 C 0.703125 56.269531 -0.976562 60.273438 0.585938 63.613281 C 1.210938 64.960938 91.699219 155.449219 93.457031 156.503906 C 94.101562 156.875 95.332031 157.441406 96.191406 157.734375 C 97.539062 158.203125 98.066406 158.28125 100 158.28125 C 101.933594 158.28125 102.460938 158.203125 103.808594 157.734375 C 104.667969 157.441406 105.898438 156.875 106.542969 156.503906 C 107.460938 155.957031 117.890625 145.644531 153.339844 110.175781 C 190.585938 72.929688 199.0625 64.375 199.433594 63.574219 C 200.078125 62.226562 200.097656 59.707031 199.492188 58.378906 C 198.886719 57.089844 197.792969 55.957031 196.523438 55.332031 C 195.585938 54.863281 195.15625 54.785156 193.847656 54.785156 C 190.78125 54.785156 195.605469 50.234375 145.15625 100.664062 L 100 145.800781 L 54.921875 100.742188 C 16.621094 62.441406 9.707031 55.605469 8.886719 55.253906 C 7.539062 54.648438 5.488281 54.570312 4.160156 55.039062 Z M 4.160156 55.039062 "/>
</g>
</svg>
