<?xml version="1.0" encoding="UTF-8"?>
<svg xmlns="http://www.w3.org/2000/svg" xmlns:xlink="http://www.w3.org/1999/xlink" width="200pt" height="200pt" viewBox="0 0 200 200" version="1.1">
<g id="surface1">
<path style=" stroke:none;fill-rule:nonzero;fill:rgb(0%,0%,0%);fill-opacity:1;" d="M 96.484375 46.347656 C 93.398438 47.285156 96.464844 44.316406 46.933594 93.828125 C 8.222656 132.5 0.917969 139.882812 0.546875 140.722656 C -0.078125 142.109375 -0.078125 144.414062 0.566406 145.859375 C 1.171875 147.1875 2.773438 148.691406 4.101562 149.121094 C 5.371094 149.550781 7.109375 149.550781 8.4375 149.121094 C 9.433594 148.808594 11.40625 146.855469 54.746094 103.535156 L 100 58.300781 L 145.273438 103.535156 C 188.59375 146.855469 190.566406 148.808594 191.5625 149.121094 C 192.890625 149.550781 194.628906 149.550781 195.898438 149.121094 C 197.226562 148.691406 198.828125 147.1875 199.433594 145.859375 C 200.078125 144.414062 200.078125 142.109375 199.453125 140.722656 C 199.082031 139.882812 191.757812 132.5 153.066406 93.828125 C 102.949219 43.730469 106.582031 47.207031 103.320312 46.308594 C 101.289062 45.742188 98.476562 45.761719 96.484375 46.347656 Z M 96.484375 46.347656 "/>
</g>
</svg>
