<?xml version="1.0" encoding="UTF-8"?>
<svg xmlns="http://www.w3.org/2000/svg" xmlns:xlink="http://www.w3.org/1999/xlink" width="200pt" height="200pt" viewBox="0 0 200 200" version="1.1">
<g id="surface1">
<path style=" stroke:none;fill-rule:nonzero;fill:rgb(0%,0%,0%);fill-opacity:1;" d="M 16.582031 0.195312 C 10.097656 0.976562 4.570312 5 1.738281 11.015625 C 1.347656 11.875 0.800781 13.339844 0.546875 14.257812 L 0.0976562 15.917969 L 0.0976562 134.277344 L 0.546875 135.9375 C 2.226562 142.070312 6.660156 146.953125 12.324219 148.945312 C 15.488281 150.058594 15.507812 150.058594 26.875 150.136719 L 37.460938 150.234375 L 37.558594 154.84375 C 37.617188 158.847656 37.695312 159.6875 38.066406 161.035156 C 39.746094 167.089844 44.199219 171.972656 49.824219 173.945312 C 52.988281 175.058594 53.007812 175.058594 64.414062 175.136719 L 75 175.234375 L 75 181.074219 C 75 185.664062 75.058594 187.246094 75.3125 188.4375 C 76.347656 193.496094 79.863281 197.480469 84.980469 199.375 L 86.425781 199.902344 L 188.574219 199.902344 L 190.019531 199.375 C 194.121094 197.851562 197.304688 194.882812 198.886719 191.113281 C 200.078125 188.261719 200 192.851562 200 125.097656 C 200 57.441406 200.078125 61.972656 198.90625 59.101562 C 197.285156 55.117188 193.4375 51.757812 189.121094 50.546875 C 187.636719 50.117188 187.246094 50.117188 175.078125 50.039062 L 162.539062 49.980469 L 162.441406 45.351562 C 162.34375 40.136719 162.128906 38.964844 160.761719 36.015625 C 158.28125 30.742188 154.003906 27.1875 148.261719 25.625 L 146.386719 25.117188 L 135.722656 25.039062 L 125.039062 24.980469 L 124.941406 20.351562 C 124.84375 15.136719 124.628906 13.964844 123.261719 11.015625 C 120.78125 5.742188 116.542969 2.207031 110.761719 0.625 L 108.886719 0.0976562 L 63.378906 0.078125 C 38.339844 0.0585938 17.285156 0.117188 16.582031 0.195312 Z M 108.886719 13.242188 C 110.214844 13.886719 111.367188 15.039062 111.992188 16.386719 C 112.363281 17.1875 112.402344 17.695312 112.460938 21.132812 L 112.519531 24.980469 L 53.613281 25.097656 L 51.738281 25.625 C 48.183594 26.601562 45.527344 28.105469 43.066406 30.546875 C 40.742188 32.851562 39.023438 35.800781 38.046875 39.160156 L 37.597656 40.722656 L 37.539062 89.121094 L 37.5 137.519531 L 27.1875 137.460938 L 16.894531 137.402344 L 16.054688 136.953125 C 14.765625 136.269531 13.730469 135.234375 13.144531 134.023438 L 12.597656 132.910156 L 12.597656 17.285156 L 13.007812 16.386719 C 13.632812 15.039062 14.785156 13.886719 16.113281 13.242188 L 17.285156 12.695312 L 107.714844 12.695312 Z M 146.386719 38.242188 C 147.714844 38.886719 148.867188 40.039062 149.492188 41.386719 C 149.863281 42.1875 149.902344 42.695312 149.960938 46.132812 L 150.019531 50 L 118.710938 50.039062 L 87.402344 50.097656 L 85.878906 50.527344 C 81.542969 51.757812 77.714844 55.117188 76.09375 59.101562 C 74.941406 61.953125 75 58.652344 75 112.890625 L 75 162.519531 L 64.707031 162.460938 L 54.394531 162.402344 L 53.554688 161.953125 C 52.265625 161.269531 51.230469 160.234375 50.644531 159.023438 L 50.097656 157.910156 L 50.097656 42.285156 L 50.507812 41.386719 C 51.132812 40.039062 52.285156 38.886719 53.613281 38.242188 L 54.785156 37.695312 L 145.214844 37.695312 Z M 186.640625 63.046875 C 186.875 63.222656 187.167969 63.574219 187.285156 63.808594 C 187.597656 64.414062 187.597656 185.78125 187.285156 186.386719 C 187.167969 186.621094 186.875 186.972656 186.640625 187.148438 C 186.25 187.480469 183.378906 187.5 137.5 187.5 C 91.621094 187.5 88.75 187.480469 88.359375 187.148438 C 88.125 186.972656 87.832031 186.621094 87.714844 186.386719 C 87.402344 185.78125 87.402344 64.414062 87.714844 63.808594 C 87.832031 63.574219 88.125 63.222656 88.359375 63.046875 C 88.75 62.714844 91.621094 62.695312 137.5 62.695312 C 183.378906 62.695312 186.25 62.714844 186.640625 63.046875 Z M 186.640625 63.046875 "/>
<path style=" stroke:none;fill-rule:nonzero;fill:rgb(0%,0%,0%);fill-opacity:1;" d="M 124.121094 75.117188 C 121.933594 75.664062 121.953125 75.644531 117.148438 80.429688 L 112.519531 85.019531 L 110.976562 83.554688 C 109.238281 81.894531 108.085938 81.367188 106.25 81.367188 C 104.53125 81.367188 103.222656 81.914062 101.933594 83.183594 C 100.507812 84.589844 99.921875 86.035156 100.039062 87.890625 C 100.175781 90.175781 100.546875 90.703125 105.136719 95.253906 C 108.886719 98.984375 109.375 99.394531 110.351562 99.707031 C 111.71875 100.15625 113.28125 100.15625 114.648438 99.707031 C 115.664062 99.394531 116.171875 98.90625 122.988281 92.128906 C 130.976562 84.179688 131.054688 84.082031 131.210938 81.640625 C 131.328125 79.785156 130.742188 78.339844 129.316406 76.933594 C 128.554688 76.171875 127.890625 75.742188 127.226562 75.507812 C 126.152344 75.15625 124.707031 74.980469 124.121094 75.117188 Z M 124.121094 75.117188 "/>
<path style=" stroke:none;fill-rule:nonzero;fill:rgb(0%,0%,0%);fill-opacity:1;" d="M 142.207031 87.8125 C 140.878906 88.164062 140.097656 88.652344 139.121094 89.707031 C 136.855469 92.167969 136.992188 95.859375 139.433594 98.261719 C 141.40625 100.195312 140.527344 100.097656 156.25 100.097656 C 171.972656 100.097656 171.09375 100.195312 173.066406 98.261719 C 175.664062 95.683594 175.664062 92.011719 173.066406 89.433594 C 171.09375 87.5 172.03125 87.617188 156.640625 87.558594 C 145.371094 87.519531 143.085938 87.558594 142.207031 87.8125 Z M 142.207031 87.8125 "/>
<path style=" stroke:none;fill-rule:nonzero;fill:rgb(0%,0%,0%);fill-opacity:1;" d="M 124.121094 112.617188 C 121.933594 113.164062 121.953125 113.144531 117.148438 117.929688 L 112.519531 122.519531 L 110.976562 121.054688 C 109.238281 119.394531 108.085938 118.867188 106.25 118.867188 C 104.53125 118.867188 103.222656 119.414062 101.933594 120.683594 C 100.507812 122.089844 99.921875 123.535156 100.039062 125.390625 C 100.175781 127.675781 100.546875 128.203125 105.136719 132.753906 C 108.886719 136.484375 109.375 136.894531 110.351562 137.207031 C 111.71875 137.65625 113.28125 137.65625 114.648438 137.207031 C 115.664062 136.894531 116.171875 136.40625 122.988281 129.628906 C 130.976562 121.679688 131.054688 121.582031 131.210938 119.140625 C 131.328125 117.285156 130.742188 115.839844 129.316406 114.433594 C 128.554688 113.671875 127.890625 113.242188 127.226562 113.007812 C 126.152344 112.65625 124.707031 112.480469 124.121094 112.617188 Z M 124.121094 112.617188 "/>
<path style=" stroke:none;fill-rule:nonzero;fill:rgb(0%,0%,0%);fill-opacity:1;" d="M 142.207031 125.3125 C 140.878906 125.664062 140.097656 126.152344 139.121094 127.207031 C 136.855469 129.667969 136.992188 133.359375 139.433594 135.761719 C 141.40625 137.695312 140.527344 137.597656 156.25 137.597656 C 171.972656 137.597656 171.09375 137.695312 173.066406 135.761719 C 175.664062 133.183594 175.664062 129.511719 173.066406 126.933594 C 171.09375 125 172.03125 125.117188 156.640625 125.058594 C 145.371094 125.019531 143.085938 125.058594 142.207031 125.3125 Z M 142.207031 125.3125 "/>
<path style=" stroke:none;fill-rule:nonzero;fill:rgb(0%,0%,0%);fill-opacity:1;" d="M 124.121094 150.117188 C 121.933594 150.664062 121.953125 150.644531 117.148438 155.429688 L 112.519531 160.019531 L 110.976562 158.554688 C 109.238281 156.894531 108.085938 156.367188 106.25 156.367188 C 104.53125 156.367188 103.222656 156.914062 101.933594 158.183594 C 100.507812 159.589844 99.921875 161.035156 100.039062 162.890625 C 100.175781 165.175781 100.546875 165.703125 105.136719 170.253906 C 108.886719 173.984375 109.375 174.394531 110.351562 174.707031 C 111.71875 175.15625 113.28125 175.15625 114.648438 174.707031 C 115.664062 174.394531 116.171875 173.90625 122.988281 167.128906 C 130.976562 159.179688 131.054688 159.082031 131.210938 156.640625 C 131.328125 154.785156 130.742188 153.339844 129.316406 151.933594 C 128.554688 151.171875 127.890625 150.742188 127.226562 150.507812 C 126.152344 150.15625 124.707031 149.980469 124.121094 150.117188 Z M 124.121094 150.117188 "/>
<path style=" stroke:none;fill-rule:nonzero;fill:rgb(0%,0%,0%);fill-opacity:1;" d="M 142.207031 162.8125 C 140.878906 163.164062 140.097656 163.652344 139.121094 164.707031 C 136.855469 167.167969 136.992188 170.859375 139.433594 173.261719 C 141.40625 175.195312 140.527344 175.097656 156.25 175.097656 C 171.972656 175.097656 171.09375 175.195312 173.066406 173.261719 C 175.664062 170.683594 175.664062 167.011719 173.066406 164.433594 C 171.09375 162.5 172.03125 162.617188 156.640625 162.558594 C 145.371094 162.519531 143.085938 162.558594 142.207031 162.8125 Z M 142.207031 162.8125 "/>
</g>
</svg>
