<?xml version="1.0" encoding="UTF-8"?>
<svg xmlns="http://www.w3.org/2000/svg" xmlns:xlink="http://www.w3.org/1999/xlink" width="200pt" height="200pt" viewBox="0 0 200 200" version="1.1">
<g id="surface1">
<path style=" stroke:none;fill-rule:nonzero;fill:rgb(0%,0%,0%);fill-opacity:1;" d="M 77.949219 0.214844 C 62.949219 1.542969 50.097656 11.835938 45.546875 26.171875 C 45.136719 27.519531 44.667969 29.199219 44.53125 29.921875 L 44.277344 31.230469 L 30.195312 31.289062 L 16.113281 31.367188 L 14.238281 31.875 C 9.980469 33.027344 6.660156 35.175781 4.0625 38.457031 C 2.675781 40.175781 1.152344 43.242188 0.546875 45.507812 L 0.0976562 47.167969 L 0.0976562 184.277344 L 0.546875 185.9375 C 2.480469 193.027344 7.949219 198.261719 14.941406 199.707031 C 16.210938 199.960938 20.488281 200 49.472656 200 C 87.128906 200 83.632812 200.175781 85.566406 198.261719 C 87.421875 196.425781 87.96875 194.0625 87.089844 191.660156 C 86.5625 190.214844 84.882812 188.515625 83.496094 187.96875 C 82.558594 187.617188 81.425781 187.597656 49.707031 187.5 L 16.894531 187.402344 L 16.054688 186.953125 C 14.765625 186.269531 13.730469 185.234375 13.144531 184.023438 L 12.597656 182.910156 L 12.597656 48.535156 L 13.007812 47.636719 C 13.59375 46.386719 14.726562 45.195312 15.898438 44.570312 L 16.894531 44.042969 L 34.082031 43.945312 C 53.59375 43.828125 52.246094 43.945312 54.179688 42.167969 C 55.683594 40.800781 56.074219 39.785156 56.289062 36.621094 C 56.386719 35.214844 56.660156 33.144531 56.914062 32.011719 C 59.101562 22.34375 67.109375 14.6875 76.855469 13.007812 C 79.140625 12.597656 83.359375 12.597656 85.644531 13.007812 C 95.390625 14.6875 103.398438 22.34375 105.585938 32.011719 C 105.839844 33.144531 106.113281 35.214844 106.210938 36.621094 C 106.425781 39.785156 106.816406 40.800781 108.320312 42.167969 C 110.253906 43.945312 108.90625 43.828125 128.417969 43.945312 L 145.605469 44.042969 L 146.601562 44.570312 C 147.773438 45.195312 148.90625 46.386719 149.492188 47.636719 C 149.882812 48.515625 149.902344 48.828125 150 59.472656 L 150.097656 70.410156 L 150.566406 71.445312 C 151.171875 72.792969 152.792969 74.277344 154.140625 74.726562 C 155.46875 75.15625 157.050781 75.15625 158.378906 74.707031 C 159.882812 74.21875 161.523438 72.578125 162.089844 71.015625 C 162.519531 69.863281 162.519531 69.765625 162.460938 58.417969 C 162.382812 45.332031 162.421875 45.742188 160.546875 41.875 C 158.105469 36.816406 153.90625 33.417969 148.261719 31.875 L 146.386719 31.367188 L 132.304688 31.289062 L 118.222656 31.230469 L 117.96875 29.921875 C 117.558594 27.753906 116.230469 23.867188 115.15625 21.582031 C 109.355469 9.355469 97.792969 1.386719 84.179688 0.195312 C 81.660156 -0.0195312 80.585938 -0.0195312 77.949219 0.214844 Z M 77.949219 0.214844 "/>
<path style=" stroke:none;fill-rule:nonzero;fill:rgb(0%,0%,0%);fill-opacity:1;" d="M 79.375 25.292969 C 77.519531 25.703125 76.054688 26.484375 74.726562 27.8125 C 72.832031 29.707031 71.875 31.933594 71.875 34.472656 C 71.875 39.0625 75.3125 43.027344 79.941406 43.75 C 84.492188 44.453125 89.140625 41.367188 90.332031 36.816406 C 90.898438 34.589844 90.605469 32.050781 89.492188 30 C 88.769531 28.613281 86.816406 26.71875 85.449219 26.09375 C 84.277344 25.527344 82.128906 25 81.152344 25.019531 C 80.839844 25.019531 80.019531 25.15625 79.375 25.292969 Z M 79.375 25.292969 "/>
<path style=" stroke:none;fill-rule:nonzero;fill:rgb(0%,0%,0%);fill-opacity:1;" d="M 42.207031 81.5625 C 40.878906 81.914062 40.097656 82.402344 39.121094 83.457031 C 36.855469 85.917969 36.992188 89.609375 39.433594 92.011719 C 41.445312 93.984375 39.6875 93.847656 62.5 93.847656 C 85.3125 93.847656 83.554688 93.984375 85.566406 92.011719 C 88.164062 89.433594 88.164062 85.761719 85.566406 83.183594 C 83.554688 81.191406 85.390625 81.347656 62.890625 81.308594 C 46.152344 81.269531 43.105469 81.308594 42.207031 81.5625 Z M 42.207031 81.5625 "/>
<path style=" stroke:none;fill-rule:nonzero;fill:rgb(0%,0%,0%);fill-opacity:1;" d="M 133.691406 87.714844 C 118.398438 88.886719 104.511719 97.03125 95.917969 109.863281 C 91.621094 116.289062 89.042969 123.183594 87.851562 131.347656 C 87.460938 134.0625 87.519531 141.738281 87.96875 144.628906 C 88.417969 147.578125 89.589844 152.265625 90.527344 154.804688 C 95.15625 167.324219 104.941406 177.832031 117.050781 183.222656 C 133.183594 190.429688 152.109375 188.59375 166.386719 178.417969 L 168.203125 177.109375 L 179.375 188.242188 C 191.757812 200.585938 191.035156 200 193.75 200 C 195.644531 200 196.757812 199.550781 198.066406 198.261719 C 199.921875 196.425781 200.46875 194.0625 199.589844 191.660156 C 199.199219 190.585938 198.554688 189.902344 188.164062 179.492188 C 182.109375 173.417969 177.148438 168.398438 177.148438 168.339844 C 177.148438 168.28125 177.988281 166.953125 179.023438 165.410156 C 181.015625 162.421875 183.300781 158.007812 184.472656 154.804688 C 185.410156 152.265625 186.582031 147.578125 187.03125 144.628906 C 187.480469 141.738281 187.539062 134.0625 187.148438 131.347656 C 184.960938 116.289062 177.285156 103.984375 164.882812 95.761719 C 157.871094 91.113281 149.648438 88.359375 140.820312 87.695312 C 137.871094 87.480469 136.796875 87.480469 133.691406 87.714844 Z M 144.628906 100.761719 C 147.636719 101.367188 150.664062 102.382812 153.417969 103.691406 C 157.675781 105.722656 160.273438 107.539062 163.652344 110.820312 C 172.832031 119.785156 176.757812 132.558594 174.199219 145.195312 C 171.386719 159.042969 160.449219 170.488281 146.777344 173.886719 C 143.203125 174.785156 142.089844 174.902344 137.5 174.902344 C 132.910156 174.902344 131.796875 174.785156 128.222656 173.886719 C 118.730469 171.523438 110.214844 165.117188 105.15625 156.503906 C 98.417969 145.078125 98.339844 130.605469 104.902344 119.121094 C 107.96875 113.75 112.714844 108.828125 117.871094 105.664062 C 121.484375 103.4375 126.328125 101.5625 130.371094 100.800781 C 133.4375 100.234375 133.457031 100.234375 138.183594 100.292969 C 141.699219 100.332031 142.871094 100.410156 144.628906 100.761719 Z M 144.628906 100.761719 "/>
<path style=" stroke:none;fill-rule:nonzero;fill:rgb(0%,0%,0%);fill-opacity:1;" d="M 42.207031 112.8125 C 40.859375 113.164062 40.097656 113.652344 39.121094 114.707031 C 36.855469 117.167969 36.992188 120.859375 39.433594 123.261719 C 41.367188 125.15625 40.957031 125.097656 53.125 125.097656 C 65.292969 125.097656 64.882812 125.15625 66.816406 123.261719 C 69.414062 120.683594 69.414062 117.011719 66.816406 114.433594 C 64.902344 112.539062 65.371094 112.617188 53.515625 112.558594 C 44.980469 112.519531 43.085938 112.558594 42.207031 112.8125 Z M 42.207031 112.8125 "/>
<path style=" stroke:none;fill-rule:nonzero;fill:rgb(0%,0%,0%);fill-opacity:1;" d="M 42.207031 144.0625 C 40.859375 144.414062 40.097656 144.902344 39.121094 145.957031 C 36.855469 148.417969 36.992188 152.109375 39.433594 154.511719 C 41.367188 156.40625 40.957031 156.347656 53.125 156.347656 C 65.292969 156.347656 64.882812 156.40625 66.816406 154.511719 C 69.414062 151.933594 69.414062 148.261719 66.816406 145.683594 C 64.902344 143.789062 65.371094 143.867188 53.515625 143.808594 C 44.980469 143.769531 43.085938 143.808594 42.207031 144.0625 Z M 42.207031 144.0625 "/>
</g>
</svg>
