<?xml version="1.0" encoding="UTF-8"?>
<svg xmlns="http://www.w3.org/2000/svg" xmlns:xlink="http://www.w3.org/1999/xlink" width="200pt" height="200pt" viewBox="0 0 200 200" version="1.1">
<g id="surface1">
<path style=" stroke:none;fill-rule:nonzero;fill:rgb(0%,0%,0%);fill-opacity:1;" d="M 79.003906 0.117188 C 71.289062 0.859375 65.644531 2.8125 60.019531 6.679688 C 52.207031 12.03125 46.445312 20.625 44.589844 29.609375 L 44.257812 31.230469 L 30.175781 31.289062 L 16.113281 31.367188 L 14.238281 31.875 C 6.660156 33.945312 1.367188 39.746094 0.214844 47.265625 C 0.0390625 48.359375 0 65.703125 0.0390625 116.601562 L 0.0976562 184.472656 L 0.527344 185.996094 C 1.464844 189.296875 3.242188 192.363281 5.546875 194.628906 C 7.832031 196.894531 10.3125 198.339844 13.867188 199.492188 C 15.136719 199.902344 15.3125 199.902344 42.558594 199.960938 C 73.398438 200.019531 71.035156 200.136719 72.832031 198.515625 C 73.398438 198.007812 74.042969 197.167969 74.355469 196.523438 C 74.824219 195.585938 74.902344 195.175781 74.902344 193.847656 C 74.882812 191.816406 74.375 190.585938 72.929688 189.277344 C 70.9375 187.460938 73.59375 187.617188 43.457031 187.5 L 16.894531 187.402344 L 16.054688 186.953125 C 14.765625 186.269531 13.730469 185.234375 13.144531 184.023438 L 12.597656 182.910156 L 12.597656 48.535156 L 13.007812 47.636719 C 13.59375 46.386719 14.726562 45.195312 15.898438 44.570312 L 16.894531 44.042969 L 34.082031 43.945312 C 53.496094 43.828125 52.226562 43.925781 54.082031 42.265625 C 55.605469 40.898438 56.074219 39.726562 56.269531 36.855469 C 56.464844 33.90625 56.5625 33.359375 57.128906 31.132812 C 59.511719 21.953125 67.460938 14.628906 76.835938 12.988281 C 79.082031 12.597656 83.417969 12.597656 85.664062 12.988281 C 91.582031 14.023438 97.421875 17.578125 100.957031 22.285156 C 104.277344 26.679688 105.800781 30.878906 106.210938 36.71875 C 106.425781 39.765625 106.835938 40.800781 108.320312 42.167969 C 110.253906 43.945312 108.90625 43.828125 128.417969 43.945312 L 145.605469 44.042969 L 146.601562 44.570312 C 147.773438 45.195312 148.90625 46.386719 149.492188 47.636719 C 149.882812 48.515625 149.902344 48.828125 150 59.472656 L 150.097656 70.410156 L 150.566406 71.445312 C 151.171875 72.792969 152.792969 74.277344 154.140625 74.726562 C 157.207031 75.742188 160.449219 74.394531 161.855469 71.523438 L 162.402344 70.410156 L 162.402344 58.789062 C 162.402344 47.226562 162.402344 47.167969 161.953125 45.507812 C 160.078125 38.652344 155.15625 33.75 148.261719 31.875 L 146.386719 31.367188 L 132.304688 31.289062 L 118.222656 31.230469 L 117.890625 29.628906 C 117.402344 27.304688 116.132812 23.632812 115.058594 21.386719 C 109.726562 10.273438 99.003906 2.324219 86.875 0.507812 C 84.902344 0.214844 80.351562 -0.0195312 79.003906 0.117188 Z M 79.003906 0.117188 "/>
<path style=" stroke:none;fill-rule:nonzero;fill:rgb(0%,0%,0%);fill-opacity:1;" d="M 79.316406 25.3125 C 77.460938 25.703125 76.035156 26.484375 74.6875 27.832031 C 70.9375 31.5625 70.917969 37.285156 74.648438 41.074219 C 79.648438 46.132812 88.359375 43.828125 90.273438 36.933594 C 91.191406 33.59375 90.292969 30.332031 87.773438 27.8125 C 86.425781 26.464844 84.980469 25.703125 83.046875 25.273438 C 81.464844 24.941406 80.9375 24.960938 79.316406 25.3125 Z M 79.316406 25.3125 "/>
<path style=" stroke:none;fill-rule:nonzero;fill:rgb(0%,0%,0%);fill-opacity:1;" d="M 42.285156 81.523438 C 41.035156 81.835938 40.566406 82.089844 39.511719 83.066406 C 38.28125 84.199219 37.65625 85.527344 37.539062 87.207031 C 37.421875 89.179688 37.96875 90.566406 39.433594 92.011719 C 41.503906 94.042969 37.109375 93.847656 81.25 93.847656 C 118.046875 93.847656 119.863281 93.828125 120.839844 93.496094 C 122.207031 93.027344 123.671875 91.679688 124.355469 90.273438 C 124.824219 89.335938 124.902344 88.925781 124.902344 87.597656 C 124.882812 85.566406 124.375 84.335938 122.929688 83.027344 C 120.898438 81.171875 125.175781 81.347656 81.640625 81.308594 C 51.738281 81.289062 43.046875 81.328125 42.285156 81.523438 Z M 42.285156 81.523438 "/>
<path style=" stroke:none;fill-rule:nonzero;fill:rgb(0%,0%,0%);fill-opacity:1;" d="M 173.398438 87.714844 C 169.785156 88.164062 166.191406 89.433594 163.085938 91.40625 C 161.601562 92.324219 157.773438 96.09375 128.085938 125.761719 C 99.941406 153.867188 94.667969 159.21875 94.335938 160.019531 C 93.828125 161.171875 87.5 192.65625 87.5 193.984375 C 87.5 195.527344 88.183594 197.011719 89.433594 198.261719 C 90.722656 199.53125 91.855469 200 93.632812 200 C 95.3125 200 126.699219 193.710938 127.8125 193.144531 C 128.417969 192.851562 138.554688 182.832031 161.757812 159.589844 C 187.714844 133.632812 195.078125 126.152344 195.839844 125 C 198.4375 121.09375 199.746094 117.128906 199.921875 112.5 C 200.429688 100.644531 192.148438 90.214844 180.488281 88.007812 C 178.4375 87.617188 175.253906 87.480469 173.398438 87.714844 Z M 179.003906 100.488281 C 180.722656 100.9375 182.363281 101.894531 183.945312 103.398438 C 187.832031 107.089844 188.574219 112.773438 185.800781 117.480469 C 185.253906 118.378906 177.890625 125.878906 153.554688 150.214844 L 122.03125 181.796875 L 111.992188 183.789062 C 106.464844 184.902344 101.914062 185.761719 101.855469 185.703125 C 101.796875 185.664062 102.65625 181.113281 103.769531 175.625 L 105.761719 165.625 L 137.5 133.925781 C 167.1875 104.257812 169.335938 102.167969 170.625 101.503906 C 171.386719 101.113281 172.5 100.664062 173.066406 100.507812 C 174.472656 100.117188 177.558594 100.117188 179.003906 100.488281 Z M 179.003906 100.488281 "/>
<path style=" stroke:none;fill-rule:nonzero;fill:rgb(0%,0%,0%);fill-opacity:1;" d="M 42.285156 112.773438 C 41.035156 113.085938 40.566406 113.339844 39.511719 114.316406 C 38.28125 115.449219 37.65625 116.777344 37.539062 118.457031 C 37.421875 120.429688 37.96875 121.816406 39.433594 123.261719 C 41.464844 125.253906 38.828125 125.097656 68.75 125.097656 C 93.457031 125.097656 94.882812 125.078125 95.839844 124.746094 C 97.207031 124.277344 98.671875 122.929688 99.355469 121.523438 C 99.824219 120.585938 99.902344 120.175781 99.902344 118.847656 C 99.882812 116.816406 99.375 115.585938 97.929688 114.277344 C 95.9375 112.441406 98.515625 112.597656 69.140625 112.558594 C 49.121094 112.539062 43.046875 112.578125 42.285156 112.773438 Z M 42.285156 112.773438 "/>
<path style=" stroke:none;fill-rule:nonzero;fill:rgb(0%,0%,0%);fill-opacity:1;" d="M 42.285156 144.023438 C 41.035156 144.335938 40.566406 144.589844 39.511719 145.566406 C 38.28125 146.699219 37.65625 148.027344 37.539062 149.707031 C 37.421875 151.679688 37.96875 153.066406 39.433594 154.511719 C 41.40625 156.445312 40.527344 156.347656 56.25 156.347656 C 68.867188 156.347656 69.902344 156.328125 70.839844 155.996094 C 72.207031 155.527344 73.671875 154.179688 74.355469 152.773438 C 74.824219 151.835938 74.902344 151.425781 74.902344 150.097656 C 74.882812 148.066406 74.375 146.835938 72.929688 145.527344 C 71.015625 143.769531 71.855469 143.847656 56.640625 143.808594 C 46.503906 143.789062 43.027344 143.828125 42.285156 144.023438 Z M 42.285156 144.023438 "/>
</g>
</svg>
