<?xml version="1.0" encoding="UTF-8"?>
<svg xmlns="http://www.w3.org/2000/svg" xmlns:xlink="http://www.w3.org/1999/xlink" width="200pt" height="200pt" viewBox="0 0 200 200" version="1.1">
<g id="surface1">
<path style=" stroke:none;fill-rule:nonzero;fill:rgb(0%,0%,0%);fill-opacity:1;" d="M 77.949219 0.214844 C 62.949219 1.542969 50.097656 11.835938 45.546875 26.171875 C 45.136719 27.519531 44.667969 29.199219 44.53125 29.921875 L 44.277344 31.230469 L 30.195312 31.289062 L 16.113281 31.367188 L 14.238281 31.875 C 9.980469 33.027344 6.660156 35.175781 4.0625 38.457031 C 2.675781 40.175781 1.152344 43.242188 0.546875 45.507812 L 0.0976562 47.167969 L 0.0976562 184.277344 L 0.546875 185.9375 C 2.480469 193.027344 7.949219 198.261719 14.941406 199.707031 C 16.210938 199.960938 20.488281 200 49.472656 200 C 87.128906 200 83.632812 200.175781 85.566406 198.261719 C 87.421875 196.425781 87.96875 194.0625 87.089844 191.660156 C 86.5625 190.214844 84.882812 188.515625 83.496094 187.96875 C 82.558594 187.617188 81.425781 187.597656 49.707031 187.5 L 16.894531 187.402344 L 16.054688 186.953125 C 14.765625 186.269531 13.730469 185.234375 13.144531 184.023438 L 12.597656 182.910156 L 12.597656 48.535156 L 13.007812 47.636719 C 13.59375 46.386719 14.726562 45.195312 15.898438 44.570312 L 16.894531 44.042969 L 34.082031 43.945312 C 53.59375 43.828125 52.246094 43.945312 54.179688 42.167969 C 55.683594 40.800781 56.074219 39.785156 56.289062 36.621094 C 56.386719 35.214844 56.660156 33.144531 56.914062 32.011719 C 59.101562 22.34375 67.109375 14.6875 76.855469 13.007812 C 79.140625 12.597656 83.359375 12.597656 85.644531 13.007812 C 95.390625 14.6875 103.398438 22.34375 105.585938 32.011719 C 105.839844 33.144531 106.113281 35.214844 106.210938 36.621094 C 106.425781 39.785156 106.816406 40.800781 108.320312 42.167969 C 110.253906 43.945312 108.90625 43.828125 128.417969 43.945312 L 145.605469 44.042969 L 146.601562 44.570312 C 147.773438 45.195312 148.90625 46.386719 149.492188 47.636719 C 149.882812 48.515625 149.902344 48.828125 150 59.472656 L 150.097656 70.410156 L 150.566406 71.445312 C 151.171875 72.792969 152.792969 74.277344 154.140625 74.726562 C 155.46875 75.15625 157.050781 75.15625 158.378906 74.707031 C 159.882812 74.21875 161.523438 72.578125 162.089844 71.015625 C 162.519531 69.863281 162.519531 69.765625 162.460938 58.417969 C 162.382812 45.332031 162.421875 45.742188 160.546875 41.875 C 158.105469 36.816406 153.90625 33.417969 148.261719 31.875 L 146.386719 31.367188 L 132.304688 31.289062 L 118.222656 31.230469 L 117.96875 29.921875 C 117.558594 27.753906 116.230469 23.867188 115.15625 21.582031 C 109.355469 9.355469 97.792969 1.386719 84.179688 0.195312 C 81.660156 -0.0195312 80.585938 -0.0195312 77.949219 0.214844 Z M 77.949219 0.214844 "/>
<path style=" stroke:none;fill-rule:nonzero;fill:rgb(0%,0%,0%);fill-opacity:1;" d="M 79.375 25.292969 C 77.519531 25.703125 76.054688 26.484375 74.726562 27.8125 C 72.832031 29.707031 71.875 31.933594 71.875 34.472656 C 71.875 39.0625 75.3125 43.027344 79.941406 43.75 C 84.492188 44.453125 89.140625 41.367188 90.332031 36.816406 C 90.898438 34.589844 90.605469 32.050781 89.492188 30 C 88.769531 28.613281 86.816406 26.71875 85.449219 26.09375 C 84.277344 25.527344 82.128906 25 81.152344 25.019531 C 80.839844 25.019531 80.019531 25.15625 79.375 25.292969 Z M 79.375 25.292969 "/>
<path style=" stroke:none;fill-rule:nonzero;fill:rgb(0%,0%,0%);fill-opacity:1;" d="M 42.207031 81.5625 C 40.878906 81.914062 40.097656 82.402344 39.121094 83.457031 C 36.855469 85.917969 36.992188 89.609375 39.433594 92.011719 C 41.464844 94.003906 39.257812 93.847656 65.625 93.847656 C 91.992188 93.847656 89.785156 94.003906 91.816406 92.011719 C 94.414062 89.433594 94.414062 85.761719 91.816406 83.183594 C 89.785156 81.191406 92.070312 81.347656 66.015625 81.308594 C 46.542969 81.269531 43.105469 81.308594 42.207031 81.5625 Z M 42.207031 81.5625 "/>
<path style=" stroke:none;fill-rule:nonzero;fill:rgb(0%,0%,0%);fill-opacity:1;" d="M 140.917969 87.617188 C 130.078125 88.417969 120.976562 91.425781 112.714844 96.953125 C 109.335938 99.21875 107.539062 100.664062 104.511719 103.613281 C 95.507812 112.363281 90.039062 123.105469 88.046875 135.839844 C 87.421875 139.84375 87.421875 147.871094 88.046875 151.933594 C 89.628906 161.992188 93.515625 170.996094 99.648438 178.769531 C 101.660156 181.308594 106.582031 186.230469 108.984375 188.085938 C 115.214844 192.890625 122.558594 196.523438 129.804688 198.339844 C 135.214844 199.707031 136.914062 199.902344 143.75 199.902344 C 149.296875 199.902344 150.15625 199.84375 152.519531 199.433594 C 162.304688 197.753906 170.820312 194.023438 178.515625 188.085938 C 180.917969 186.230469 185.839844 181.308594 187.851562 178.769531 C 193.984375 170.996094 197.871094 161.992188 199.453125 151.933594 C 200.078125 147.871094 200.078125 139.84375 199.453125 135.839844 C 197.460938 123.105469 191.992188 112.363281 182.988281 103.613281 C 179.960938 100.664062 178.164062 99.21875 174.785156 96.953125 C 167.65625 92.1875 159.21875 89.0625 150.644531 88.007812 C 148.28125 87.714844 142.65625 87.480469 140.917969 87.617188 Z M 149.414062 100.488281 C 163.984375 102.441406 176.347656 111.269531 182.871094 124.335938 C 191.25 141.152344 187.988281 161.367188 174.707031 174.707031 C 167.890625 181.5625 158.964844 185.957031 149.355469 187.207031 C 146.386719 187.578125 141.113281 187.578125 138.144531 187.207031 C 118.730469 184.6875 103.398438 169.609375 100.488281 150.195312 C 98.300781 135.546875 103.886719 120.46875 115.136719 110.800781 C 121.679688 105.15625 129.335938 101.679688 137.890625 100.488281 C 140.410156 100.136719 146.855469 100.136719 149.414062 100.488281 Z M 149.414062 100.488281 "/>
<path style=" stroke:none;fill-rule:nonzero;fill:rgb(0%,0%,0%);fill-opacity:1;" d="M 117.207031 137.8125 C 115.878906 138.164062 115.097656 138.652344 114.121094 139.707031 C 111.855469 142.167969 111.992188 145.859375 114.433594 148.261719 C 116.464844 150.253906 113.828125 150.097656 143.75 150.097656 C 173.671875 150.097656 171.035156 150.253906 173.066406 148.261719 C 175.664062 145.683594 175.664062 142.011719 173.066406 139.433594 C 171.015625 137.421875 173.75 137.597656 144.140625 137.558594 C 121.933594 137.519531 118.105469 137.558594 117.207031 137.8125 Z M 117.207031 137.8125 "/>
<path style=" stroke:none;fill-rule:nonzero;fill:rgb(0%,0%,0%);fill-opacity:1;" d="M 42.207031 112.8125 C 40.878906 113.164062 40.097656 113.652344 39.121094 114.707031 C 36.855469 117.167969 36.992188 120.859375 39.433594 123.261719 C 41.40625 125.195312 40.527344 125.097656 56.25 125.097656 C 71.972656 125.097656 71.09375 125.195312 73.066406 123.261719 C 75.664062 120.683594 75.664062 117.011719 73.066406 114.433594 C 71.09375 112.5 72.03125 112.617188 56.640625 112.558594 C 45.371094 112.519531 43.085938 112.558594 42.207031 112.8125 Z M 42.207031 112.8125 "/>
<path style=" stroke:none;fill-rule:nonzero;fill:rgb(0%,0%,0%);fill-opacity:1;" d="M 42.207031 144.0625 C 40.878906 144.414062 40.097656 144.902344 39.121094 145.957031 C 36.855469 148.417969 36.992188 152.109375 39.433594 154.511719 C 41.40625 156.445312 40.527344 156.347656 56.25 156.347656 C 71.972656 156.347656 71.09375 156.445312 73.066406 154.511719 C 75.664062 151.933594 75.664062 148.261719 73.066406 145.683594 C 71.09375 143.75 72.03125 143.867188 56.640625 143.808594 C 45.371094 143.769531 43.085938 143.808594 42.207031 144.0625 Z M 42.207031 144.0625 "/>
</g>
</svg>
