<?xml version="1.0" encoding="UTF-8"?>
<svg xmlns="http://www.w3.org/2000/svg" xmlns:xlink="http://www.w3.org/1999/xlink" width="200pt" height="200pt" viewBox="0 0 200 200" version="1.1">
<g id="surface1">
<path style=" stroke:none;fill-rule:nonzero;fill:rgb(0%,0%,0%);fill-opacity:1;" d="M 70 0.699219 C 31.398438 7.199219 2.800781 38.5 0.300781 77 C -2 113.699219 21.398438 148 56.5 159.398438 C 70.101562 163.699219 88.300781 164.398438 101.398438 161 C 110.898438 158.601562 123.601562 152.601562 130.398438 147.5 L 135.199219 143.699219 L 163.398438 171.898438 C 183.5 192 192.199219 200 193.800781 200 C 196.601562 200 200 196.601562 200 193.800781 C 200 192.199219 191.699219 183.300781 171.898438 163.398438 L 143.699219 135.199219 L 146.800781 131.199219 C 161.199219 113.101562 166.800781 85.300781 160.898438 61.5 C 152 25.800781 117.699219 -0.5 80.800781 0.101562 C 76.199219 0.199219 71.398438 0.5 70 0.699219 Z M 100.199219 15 C 120.101562 21 134.800781 33.101562 143.300781 50.398438 C 148.398438 60.898438 150.101562 67.300781 150.699219 78.5 C 151.398438 91.5 149.5 100.398438 143.398438 112.898438 C 134.699219 130.898438 118.300781 143.800781 97.601562 149 C 72.800781 155.300781 44.898438 145.800781 28 125.5 C 23 119.398438 16.699219 106.800781 14.398438 98 C 12.398438 90.300781 12.101562 73.699219 13.898438 67 C 18.800781 48.601562 29.101562 33.601562 43 24.601562 C 61.398438 12.699219 81.199219 9.398438 100.199219 15 Z M 100.199219 15 "/>
</g>
</svg>
