<?xml version="1.0" encoding="UTF-8"?>
<svg xmlns="http://www.w3.org/2000/svg" xmlns:xlink="http://www.w3.org/1999/xlink" width="200pt" height="200pt" viewBox="0 0 200 200" version="1.1">
<g id="surface1">
<path style=" stroke:none;fill-rule:nonzero;fill:rgb(0%,0%,0%);fill-opacity:1;" d="M 52 2 C 50.300781 3.699219 50 5.300781 50 14.5 L 50 25 L 27 25 C 5.300781 25 3.898438 25.101562 2 27 C 0 29 0 30.300781 0 112.5 C 0 194.699219 0 196 2 198 C 4 200 5.300781 200 100 200 C 194.699219 200 196 200 198 198 C 200 196 200 194.699219 200 112.5 C 200 30.300781 200 29 198 27 C 196.101562 25.101562 194.699219 25 173 25 L 150 25 L 150 14.5 C 150 5.300781 149.699219 3.699219 148 2 C 145.5 -0.5 142.898438 -0.5 139.898438 1.898438 C 137.699219 3.699219 137.5 4.699219 137.199219 14.398438 L 136.800781 25 L 61.898438 25 L 62.101562 14.300781 C 62.199219 4.398438 62.101562 3.5 60 1.800781 C 57.101562 -0.5 54.5 -0.5 52 2 Z M 50 44.800781 C 50 52.800781 51.699219 56 56 56 C 60.699219 56 62 53.800781 62 45.398438 L 62 38 L 137 38 L 137 43.398438 C 137 49.199219 138.300781 54 140.300781 55.199219 C 141 55.601562 142.699219 56 144.199219 56 C 148.300781 56 150 52.699219 150 44.800781 L 150 38 L 187 38 L 187 75 L 13 75 L 13 38 L 50 38 Z M 187 137.5 L 187 187 L 13 187 L 13 88 L 187 88 Z M 187 137.5 "/>
<path style=" stroke:none;fill-rule:nonzero;fill:rgb(0%,0%,0%);fill-opacity:1;" d="M 52 102 C 47.699219 106.300781 50.398438 111.398438 57.800781 112.601562 L 62 113.300781 L 62 150 L 58 150 C 51 150 47.398438 156.398438 52.101562 160.601562 C 53.898438 162.199219 56.101562 162.5 67.199219 162.800781 C 81.300781 163.199219 85.398438 162.300781 86.699219 158.601562 C 88.398438 153.5 85.398438 150 79.300781 150 L 75 150 L 75 130 C 75 107.699219 74.5 105.5 68.699219 102 C 64.199219 99.199219 54.800781 99.199219 52 102 Z M 52 102 "/>
<path style=" stroke:none;fill-rule:nonzero;fill:rgb(0%,0%,0%);fill-opacity:1;" d="M 111 102 C 108.398438 104.601562 108.398438 108.199219 111 110.5 C 112.5 111.898438 115.300781 112.5 121.898438 112.898438 L 130.800781 113.5 L 122.898438 134.800781 C 115.601562 154.300781 115 156.300781 116.199219 158.800781 C 117.199219 160.898438 118.300781 161.601562 121.101562 161.800781 C 123.300781 162 125.101562 161.601562 125.800781 160.699219 C 127.300781 158.898438 144 114.5 144 112.398438 C 144 109.300781 140.601562 103.699219 137.601562 101.898438 C 135.101562 100.398438 132.5 100 123.800781 100 C 114.300781 100 112.800781 100.199219 111 102 Z M 111 102 "/>
</g>
</svg>
