<?xml version="1.0" encoding="UTF-8"?>
<svg xmlns="http://www.w3.org/2000/svg" xmlns:xlink="http://www.w3.org/1999/xlink" width="200pt" height="200pt" viewBox="0 0 200 200" version="1.1">
<g id="surface1">
<path style=" stroke:none;fill-rule:nonzero;fill:rgb(0%,0%,0%);fill-opacity:1;" d="M 2 2 C 0.898438 3.101562 0 5 0 6.199219 C 0 7.898438 12.601562 21.101562 45.699219 54.199219 L 91.5 100 L 45.699219 145.800781 C 12.800781 178.699219 0 192.199219 0 193.800781 C 0 196.601562 3.398438 200 6.199219 200 C 7.898438 200 21.101562 187.398438 54.199219 154.300781 L 100 108.5 L 145.800781 154.300781 C 178.898438 187.398438 192.101562 200 193.800781 200 C 196.601562 200 200 196.601562 200 193.800781 C 200 192.199219 187.199219 178.699219 154.300781 145.800781 L 108.5 100 L 154.300781 54.199219 C 187.398438 21.101562 200 7.898438 200 6.199219 C 200 3.398438 196.601562 0 193.800781 0 C 192.101562 0 178.898438 12.601562 145.800781 45.699219 L 100 91.5 L 54.199219 45.699219 C 21.101562 12.601562 7.898438 0 6.199219 0 C 5 0 3.101562 0.898438 2 2 Z M 2 2 "/>
</g>
</svg>
