<?xml version="1.0" encoding="UTF-8"?>
<svg xmlns="http://www.w3.org/2000/svg" xmlns:xlink="http://www.w3.org/1999/xlink" width="200pt" height="200pt" viewBox="0 0 200 200" version="1.1">
<g id="surface1">
<path style=" stroke:none;fill-rule:nonzero;fill:rgb(0%,0%,0%);fill-opacity:1;" d="M 27.246094 0.214844 C 20.566406 1.054688 14.0625 4.296875 9.179688 9.179688 C 4.746094 13.613281 1.972656 18.789062 0.546875 25.253906 L 0.0976562 27.246094 L 0.0976562 110.253906 L 0.546875 112.246094 C 1.542969 116.777344 3.359375 120.976562 5.800781 124.414062 C 7.5 126.777344 10.722656 130 13.085938 131.699219 C 16.523438 134.140625 20.722656 135.957031 25.253906 136.953125 C 27.226562 137.402344 27.402344 137.402344 42.578125 137.402344 C 57.890625 137.402344 57.910156 137.402344 58.828125 136.972656 C 60 136.425781 61.445312 135 61.972656 133.828125 C 62.578125 132.539062 62.578125 129.960938 61.972656 128.671875 C 61.445312 127.5 60 126.074219 58.828125 125.527344 C 57.910156 125.097656 57.773438 125.097656 43.066406 125 C 26.132812 124.863281 27.011719 124.960938 23.144531 123.066406 C 19.042969 121.09375 16.074219 118.046875 14.160156 113.886719 L 13.710938 112.949219 L 16.367188 112.8125 C 17.8125 112.753906 26.523438 112.675781 35.722656 112.675781 C 44.921875 112.65625 56.484375 112.597656 61.425781 112.519531 C 70.097656 112.402344 70.449219 112.382812 71.328125 111.972656 C 72.5 111.425781 73.945312 110 74.472656 108.828125 C 75.078125 107.539062 75.078125 104.960938 74.472656 103.671875 C 73.945312 102.5 72.5 101.074219 71.328125 100.527344 L 70.410156 100.097656 L 41.445312 100.175781 L 12.5 100.253906 L 12.539062 64.238281 L 12.597656 28.222656 L 13.027344 26.699219 C 14.042969 23.125 15.488281 20.644531 18.066406 18.066406 C 20.683594 15.449219 23.242188 13.984375 26.796875 13.027344 L 28.417969 12.597656 L 171.582031 12.597656 L 173.203125 13.027344 C 176.757812 13.984375 179.316406 15.449219 181.933594 18.066406 C 184.511719 20.644531 185.957031 23.125 186.972656 26.699219 L 187.402344 28.222656 L 187.597656 95.410156 L 188.027344 96.328125 C 188.574219 97.5 190 98.945312 191.171875 99.472656 C 192.460938 100.078125 195.039062 100.078125 196.328125 99.472656 C 197.5 98.945312 198.925781 97.5 199.472656 96.328125 L 199.902344 95.410156 L 199.902344 27.246094 L 199.453125 25.253906 C 198.457031 20.722656 196.640625 16.523438 194.199219 13.085938 C 192.5 10.722656 189.277344 7.5 186.914062 5.800781 C 183.515625 3.398438 179.394531 1.601562 174.84375 0.546875 L 172.949219 0.0976562 L 100.78125 0.078125 C 59.902344 0.0585938 28.027344 0.117188 27.246094 0.214844 Z M 27.246094 0.214844 "/>
<path style=" stroke:none;fill-rule:nonzero;fill:rgb(0%,0%,0%);fill-opacity:1;" d="M 126.074219 81.484375 C 121.621094 81.933594 115.78125 83.476562 111.328125 85.390625 C 99.921875 90.273438 90.273438 99.921875 85.390625 111.328125 C 75.839844 133.574219 83.261719 159.023438 103.222656 172.636719 C 111.386719 178.222656 121.269531 181.25 131.25 181.25 C 138.007812 181.25 144.84375 179.824219 151.171875 177.109375 C 154.609375 175.644531 157.070312 174.199219 161.640625 170.996094 C 161.855469 170.839844 165.097656 174.003906 176.113281 184.980469 C 192.050781 200.878906 190.898438 199.902344 193.847656 199.902344 C 195.761719 199.882812 196.855469 199.453125 198.144531 198.144531 C 199.453125 196.855469 199.882812 195.761719 199.902344 193.847656 C 199.902344 190.898438 200.878906 192.050781 184.980469 176.113281 C 174.003906 165.097656 170.839844 161.855469 170.996094 161.640625 C 174.199219 157.070312 175.644531 154.609375 177.109375 151.171875 C 187.324219 127.363281 178.027344 100.058594 155.371094 87.441406 C 149.84375 84.355469 142.5 82.089844 136.054688 81.464844 C 133.554688 81.210938 128.59375 81.230469 126.074219 81.484375 Z M 134.785156 93.945312 C 147.96875 95.253906 159.296875 103.164062 165.019531 115.039062 C 167.128906 119.414062 168.164062 123.300781 168.59375 128.359375 C 169.277344 136.640625 167.089844 145.058594 162.402344 152.050781 C 156.992188 160.136719 148.574219 165.878906 139.160156 167.890625 C 135.742188 168.613281 131.796875 168.867188 128.359375 168.59375 C 123.300781 168.164062 119.414062 167.128906 115.039062 165.019531 C 107.34375 161.308594 101.191406 155.15625 97.480469 147.460938 C 95.371094 143.085938 94.335938 139.199219 93.90625 134.121094 C 93.222656 125.859375 95.410156 117.441406 100.097656 110.449219 C 107.773438 98.964844 121.171875 92.597656 134.785156 93.945312 Z M 134.785156 93.945312 "/>
<path style=" stroke:none;fill-rule:nonzero;fill:rgb(0%,0%,0%);fill-opacity:1;" d="M 48.085938 162.792969 C 44.609375 163.886719 42.8125 167.96875 44.296875 171.347656 C 44.804688 172.5 46.25 173.925781 47.421875 174.472656 C 48.320312 174.902344 48.457031 174.902344 59.375 174.902344 C 70.292969 174.902344 70.429688 174.902344 71.328125 174.472656 C 72.5 173.925781 73.945312 172.5 74.472656 171.328125 C 75.078125 170.039062 75.078125 167.460938 74.472656 166.171875 C 73.945312 165 72.5 163.574219 71.328125 163.027344 C 70.429688 162.597656 70.234375 162.597656 59.667969 162.558594 C 51.035156 162.519531 48.75 162.578125 48.085938 162.792969 Z M 48.085938 162.792969 "/>
</g>
</svg>
