<?xml version="1.0" encoding="UTF-8"?>
<svg xmlns="http://www.w3.org/2000/svg" xmlns:xlink="http://www.w3.org/1999/xlink" width="200pt" height="200pt" viewBox="0 0 200 200" version="1.1">
<g id="surface1">
<path style=" stroke:none;fill-rule:nonzero;fill:rgb(0%,0%,0%);fill-opacity:1;" d="M 170.3125 0.292969 C 166.445312 0.9375 162.890625 2.304688 159.707031 4.414062 C 157.851562 5.625 155.136719 8.300781 117.578125 45.839844 L 77.421875 85.9375 L 76.269531 85.546875 C 74.238281 84.824219 69.921875 83.847656 66.796875 83.378906 C 64.179688 82.96875 63.066406 82.910156 58.496094 82.929688 C 52.675781 82.929688 50.019531 83.222656 45.117188 84.394531 C 23.789062 89.453125 7.109375 105.898438 1.757812 127.148438 C -0.390625 135.703125 -0.566406 145.371094 1.289062 153.710938 C 6.015625 174.84375 21.210938 191.328125 41.699219 197.558594 C 49.902344 200.039062 59.511719 200.683594 67.96875 199.296875 C 92.050781 195.351562 111.171875 176.992188 116.015625 153.144531 C 116.953125 148.554688 117.246094 145.117188 117.128906 140.039062 C 116.992188 134.199219 116.328125 129.882812 114.785156 124.667969 L 114.121094 122.5 L 121.953125 114.667969 C 126.269531 110.351562 129.882812 106.835938 130 106.835938 C 130.097656 106.835938 133.007812 107.597656 136.445312 108.535156 L 142.675781 110.214844 L 145.898438 110.234375 C 148.691406 110.253906 149.335938 110.195312 150.78125 109.804688 C 152.636719 109.296875 155.546875 107.988281 156.953125 107.011719 C 159.316406 105.390625 162.050781 102.246094 163.320312 99.707031 C 164.707031 96.953125 165.546875 92.871094 165.332031 90.039062 C 165.175781 87.871094 165.078125 87.460938 163.261719 80.664062 L 161.71875 74.902344 L 162.460938 74.199219 L 163.183594 73.496094 L 168.847656 75.019531 C 171.972656 75.859375 175.253906 76.699219 176.152344 76.855469 C 184.082031 78.28125 192.382812 74.199219 196.269531 66.953125 C 198.222656 63.359375 199.023438 58.867188 198.4375 55.078125 C 198.320312 54.375 197.480469 51.015625 196.5625 47.617188 L 194.921875 41.425781 L 195.820312 40.039062 C 198.769531 35.488281 200.15625 30.371094 199.921875 24.902344 C 199.804688 21.914062 199.414062 19.882812 198.4375 17.089844 C 197.167969 13.515625 195.195312 10.429688 192.382812 7.617188 C 188.691406 3.925781 184.335938 1.601562 179.003906 0.488281 C 176.855469 0.0390625 172.421875 -0.0585938 170.3125 0.292969 Z M 177.324219 12.910156 C 177.8125 13.027344 179.042969 13.515625 180.058594 14.003906 C 181.601562 14.746094 182.167969 15.15625 183.496094 16.484375 C 184.804688 17.792969 185.253906 18.398438 185.996094 19.921875 C 187.636719 23.28125 187.910156 26.71875 186.796875 30.039062 C 186.152344 31.992188 185.449219 33.183594 184.003906 34.863281 C 183.339844 35.605469 182.636719 36.582031 182.421875 37.011719 C 181.933594 38.027344 181.621094 39.667969 181.777344 40.488281 C 181.835938 40.820312 182.792969 44.511719 183.90625 48.671875 C 185.019531 52.832031 185.976562 56.660156 186.054688 57.1875 C 186.328125 59.335938 185.058594 62.050781 183.144531 63.359375 C 181.933594 64.199219 179.960938 64.726562 178.710938 64.589844 C 178.222656 64.53125 174.355469 63.535156 170.117188 62.402344 C 161.875 60.175781 160.878906 60.019531 159.199219 60.625 C 157.871094 61.113281 156.796875 62.011719 153.066406 65.800781 C 147.539062 71.40625 147.617188 70.839844 150.644531 82.03125 C 153.066406 90.996094 153.164062 91.757812 152.167969 93.886719 C 151.074219 96.171875 149.003906 97.617188 146.523438 97.792969 C 145.3125 97.890625 144.550781 97.714844 137.03125 95.703125 C 129.511719 93.691406 128.730469 93.515625 127.519531 93.59375 C 125.078125 93.769531 125.351562 93.535156 112.96875 105.9375 C 100.488281 118.417969 100.800781 118.046875 100.625 120.605469 C 100.546875 121.875 100.605469 122.148438 101.5625 124.707031 C 104.746094 133.261719 105.488281 141.699219 103.789062 150.488281 C 102.460938 157.304688 98.847656 165.058594 94.53125 170.3125 C 88.085938 178.203125 79.179688 183.847656 69.511719 186.210938 C 65.683594 187.128906 63.339844 187.402344 58.59375 187.402344 C 53.769531 187.402344 51.699219 187.167969 47.558594 186.152344 C 31.171875 182.148438 18.125 169.21875 13.964844 152.851562 C 12.910156 148.671875 12.617188 146.171875 12.617188 141.40625 C 12.617188 135.488281 13.417969 130.78125 15.273438 125.683594 C 17.636719 119.21875 21.09375 113.867188 26.074219 108.886719 C 31.035156 103.90625 36.367188 100.488281 42.871094 98.085938 C 47.949219 96.230469 52.65625 95.429688 58.59375 95.429688 C 64.414062 95.429688 69.21875 96.230469 74.023438 97.988281 C 75.039062 98.359375 76.347656 98.828125 76.894531 99.042969 C 78.261719 99.53125 79.960938 99.53125 81.386719 99.003906 C 82.480469 98.613281 84.0625 97.050781 124.414062 56.757812 C 163.59375 17.617188 166.40625 14.863281 167.675781 14.21875 C 169.335938 13.378906 170.625 12.929688 172.070312 12.695312 C 173.320312 12.5 176.015625 12.617188 177.324219 12.910156 Z M 177.324219 12.910156 "/>
<path style=" stroke:none;fill-rule:nonzero;fill:rgb(0%,0%,0%);fill-opacity:1;" d="M 46.972656 131.464844 C 42.675781 132.050781 39.199219 133.730469 35.996094 136.777344 C 33.359375 139.316406 31.816406 141.855469 30.742188 145.449219 C 30.039062 147.753906 29.863281 151.875 30.351562 154.277344 C 31.132812 158.105469 32.773438 161.25 35.429688 164.023438 C 41.289062 170.117188 50.058594 171.71875 57.714844 168.085938 C 61.601562 166.230469 64.667969 163.222656 66.640625 159.277344 C 72.148438 148.320312 66.015625 134.960938 54.101562 131.953125 C 51.953125 131.40625 48.925781 131.191406 46.972656 131.464844 Z M 51.835938 144.355469 C 53.945312 145.136719 55.605469 147.1875 56.035156 149.511719 C 56.621094 152.65625 54.765625 155.917969 51.796875 157.03125 C 50.214844 157.636719 47.792969 157.519531 46.328125 156.757812 C 44.101562 155.625 42.773438 153.613281 42.617188 151.171875 C 42.578125 150.371094 42.636719 149.355469 42.753906 148.925781 C 43.28125 146.953125 45.019531 145.019531 46.914062 144.296875 C 48.144531 143.828125 50.507812 143.847656 51.835938 144.355469 Z M 51.835938 144.355469 "/>
</g>
</svg>
