<?xml version="1.0" encoding="UTF-8"?>
<svg xmlns="http://www.w3.org/2000/svg" xmlns:xlink="http://www.w3.org/1999/xlink" width="200pt" height="200pt" viewBox="0 0 200 200" version="1.1">
<g id="surface1">
<path style=" stroke:none;fill-rule:nonzero;fill:rgb(0%,0%,0%);fill-opacity:1;" d="M 16.191406 12.8125 C 8.691406 14.160156 2.734375 19.746094 0.527344 27.5 L 0.0976562 29.003906 L 0.0390625 99.765625 C 0 168.496094 0 170.585938 0.371094 172.324219 C 1.152344 176.171875 2.96875 179.511719 5.703125 182.148438 C 8.398438 184.765625 11.445312 186.367188 15.175781 187.128906 C 16.914062 187.5 19.277344 187.5 100.234375 187.460938 L 183.496094 187.402344 L 185 186.972656 C 188.769531 185.898438 191.835938 184.101562 194.355469 181.503906 C 196.855469 178.945312 198.4375 176.152344 199.472656 172.5 L 199.902344 170.996094 L 199.960938 100.976562 C 200 49.648438 199.960938 30.546875 199.804688 29.394531 C 198.59375 20.9375 192.109375 14.277344 183.613281 12.792969 C 181.230469 12.363281 18.496094 12.382812 16.191406 12.8125 Z M 183.300781 25.664062 C 184.785156 26.40625 186.09375 27.714844 186.835938 29.199219 L 187.402344 30.371094 L 187.460938 40.175781 L 187.519531 50 L 12.480469 50 L 12.539062 40.273438 L 12.597656 30.566406 L 13.222656 29.257812 C 14.160156 27.246094 15.644531 25.976562 17.871094 25.273438 C 18.496094 25.078125 34.726562 25.039062 100.390625 25.058594 L 182.128906 25.097656 Z M 187.460938 115.957031 L 187.402344 169.433594 L 186.777344 170.742188 C 185.996094 172.382812 184.882812 173.496094 183.242188 174.277344 L 181.933594 174.902344 L 17.089844 174.902344 L 16.074219 174.375 C 14.785156 173.691406 13.808594 172.714844 13.125 171.425781 L 12.597656 170.410156 L 12.539062 116.445312 L 12.5 62.5 L 187.5 62.5 Z M 187.460938 115.957031 "/>
<path style=" stroke:none;fill-rule:nonzero;fill:rgb(0%,0%,0%);fill-opacity:1;" d="M 54.335938 87.773438 C 51.601562 88.671875 49.824219 91.347656 50.039062 94.238281 C 50.234375 96.640625 50.058594 96.425781 61.679688 108.046875 L 72.34375 118.75 L 61.601562 129.53125 C 49.511719 141.660156 50.097656 140.9375 50.097656 143.847656 C 50.117188 145.761719 50.546875 146.855469 51.855469 148.144531 C 53.183594 149.492188 54.238281 149.902344 56.25 149.902344 C 57.558594 149.902344 58.105469 149.804688 58.886719 149.453125 C 59.6875 149.082031 62.304688 146.5625 73.183594 135.683594 C 84.0625 124.804688 86.582031 122.1875 86.953125 121.386719 C 87.304688 120.605469 87.402344 120.058594 87.402344 118.75 C 87.402344 117.441406 87.304688 116.894531 86.953125 116.113281 C 86.582031 115.3125 84.0625 112.695312 73.183594 101.816406 C 62.109375 90.742188 59.707031 88.417969 58.886719 88.066406 C 57.675781 87.519531 55.527344 87.382812 54.335938 87.773438 Z M 54.335938 87.773438 "/>
<path style=" stroke:none;fill-rule:nonzero;fill:rgb(0%,0%,0%);fill-opacity:1;" d="M 104.335938 112.792969 C 100.859375 113.886719 99.0625 117.96875 100.546875 121.347656 C 101.054688 122.5 102.5 123.925781 103.671875 124.472656 L 104.589844 124.902344 L 145.410156 124.902344 L 146.328125 124.472656 C 147.5 123.925781 148.945312 122.5 149.472656 121.328125 C 150.078125 120.039062 150.078125 117.460938 149.472656 116.171875 C 148.945312 115 147.5 113.574219 146.328125 113.027344 L 145.410156 112.597656 L 125.292969 112.558594 C 108.789062 112.519531 105.019531 112.578125 104.335938 112.792969 Z M 104.335938 112.792969 "/>
</g>
</svg>
