<?xml version="1.0" encoding="UTF-8"?>
<svg xmlns="http://www.w3.org/2000/svg" xmlns:xlink="http://www.w3.org/1999/xlink" width="200pt" height="200pt" viewBox="0 0 200 200" version="1.1">
<g id="surface1">
<path style=" stroke:none;fill-rule:nonzero;fill:rgb(0%,0%,0%);fill-opacity:1;" d="M 15.683594 0.214844 C 13.90625 0.507812 11.074219 1.523438 9.394531 2.480469 C 7.480469 3.554688 4.726562 6.074219 3.398438 7.929688 C 2.265625 9.511719 1.113281 11.992188 0.546875 14.0625 L 0.0976562 15.722656 L 0.0976562 184.277344 L 0.546875 185.9375 C 1.113281 188.007812 2.265625 190.488281 3.398438 192.070312 C 4.667969 193.847656 7.5 196.445312 9.277344 197.441406 C 11.113281 198.496094 13.28125 199.296875 15.429688 199.6875 C 16.875 199.960938 25.800781 200 99.902344 200 C 190.996094 200 184.238281 200.097656 187.753906 198.828125 C 190.117188 197.96875 192.402344 196.484375 194.355469 194.53125 C 196.972656 191.953125 198.4375 189.414062 199.453125 185.742188 L 199.902344 184.082031 L 199.902344 15.917969 L 199.453125 14.257812 C 197.441406 6.972656 192.089844 1.875 184.863281 0.371094 C 183.164062 0.0195312 180.410156 0 99.902344 0.0195312 C 54.101562 0.0390625 16.25 0.117188 15.683594 0.214844 Z M 183.730469 13.066406 C 185.019531 13.632812 186.523438 15.234375 187.03125 16.503906 C 187.402344 17.460938 187.402344 18.984375 187.402344 100.097656 L 187.402344 182.714844 L 186.933594 183.730469 C 186.367188 185.019531 184.765625 186.523438 183.496094 187.03125 C 182.539062 187.402344 181.015625 187.402344 99.804688 187.402344 L 17.089844 187.402344 L 15.820312 186.699219 C 14.335938 185.878906 13.222656 184.570312 12.792969 183.125 C 12.539062 182.265625 12.5 172.070312 12.5 100 C 12.5 27.929688 12.539062 17.734375 12.792969 16.875 C 13.359375 15 15.332031 13.144531 17.246094 12.695312 C 17.597656 12.597656 54.960938 12.558594 100.292969 12.558594 L 182.714844 12.597656 Z M 183.730469 13.066406 "/>
<path style=" stroke:none;fill-rule:nonzero;fill:rgb(0%,0%,0%);fill-opacity:1;" d="M 63.964844 25.234375 C 55.820312 26.152344 47.695312 29.53125 41.308594 34.667969 C 39.316406 36.25 36.054688 39.511719 34.550781 41.40625 C 31.171875 45.625 28.242188 51.25 26.757812 56.328125 C 25.390625 61.09375 24.902344 65.058594 25.058594 70.195312 C 25.175781 73.925781 25.46875 76.171875 26.289062 79.394531 C 27.734375 85.136719 30.625 91.074219 34.238281 95.703125 C 35.703125 97.558594 39.492188 101.40625 41.40625 102.929688 C 50.273438 110 61.835938 113.4375 73.066406 112.304688 C 90.957031 110.488281 106.09375 97.773438 110.839844 80.527344 C 112.050781 76.132812 112.382812 73.671875 112.382812 68.847656 C 112.402344 64.003906 112.148438 61.992188 111.015625 57.65625 C 106.464844 40.078125 91.425781 27.1875 73.203125 25.214844 C 70.976562 24.960938 66.191406 24.980469 63.964844 25.234375 Z M 63.046875 71.386719 C 63.398438 72.167969 65.625 74.511719 74.707031 83.59375 L 85.9375 94.824219 L 85.097656 95.332031 C 83.671875 96.230469 80.820312 97.597656 79.101562 98.203125 C 67.714844 102.1875 55.234375 99.355469 46.679688 90.820312 C 41.699219 85.820312 38.710938 79.785156 37.773438 72.851562 C 36.132812 60.410156 42.03125 48.300781 52.949219 41.796875 C 55.078125 40.527344 58.222656 39.199219 60.546875 38.613281 L 62.402344 38.125 L 62.5 54.257812 L 62.597656 70.410156 Z M 78.691406 39.179688 C 88.945312 42.597656 96.914062 51.464844 99.199219 61.972656 C 100.917969 69.882812 99.6875 77.558594 95.546875 84.726562 L 94.84375 85.9375 L 84.921875 76.035156 L 75 66.113281 L 75 38.125 L 75.839844 38.320312 C 76.289062 38.417969 77.578125 38.808594 78.691406 39.179688 Z M 78.691406 39.179688 "/>
<path style=" stroke:none;fill-rule:nonzero;fill:rgb(0%,0%,0%);fill-opacity:1;" d="M 135.410156 37.871094 C 130.234375 39.648438 129.785156 46.933594 134.726562 49.355469 L 135.839844 49.902344 L 149.609375 49.960938 C 164.980469 50.019531 164.472656 50.058594 166.328125 48.652344 C 167.519531 47.753906 168.515625 45.917969 168.691406 44.316406 C 168.90625 42.226562 167.832031 39.84375 166.152344 38.710938 C 164.355469 37.460938 164.804688 37.5 149.941406 37.5 C 137.480469 37.519531 136.347656 37.539062 135.410156 37.871094 Z M 135.410156 37.871094 "/>
<path style=" stroke:none;fill-rule:nonzero;fill:rgb(0%,0%,0%);fill-opacity:1;" d="M 135.410156 62.871094 C 130.234375 64.648438 129.785156 71.933594 134.726562 74.355469 L 135.839844 74.902344 L 149.609375 74.960938 C 164.980469 75.019531 164.472656 75.058594 166.328125 73.652344 C 167.519531 72.753906 168.515625 70.917969 168.691406 69.316406 C 168.90625 67.226562 167.832031 64.84375 166.152344 63.710938 C 164.355469 62.460938 164.804688 62.5 149.941406 62.5 C 137.480469 62.519531 136.347656 62.539062 135.410156 62.871094 Z M 135.410156 62.871094 "/>
<path style=" stroke:none;fill-rule:nonzero;fill:rgb(0%,0%,0%);fill-opacity:1;" d="M 166.894531 106.523438 C 166.464844 106.660156 165.898438 106.875 165.625 107.011719 C 165.351562 107.148438 157.519531 114.882812 148.203125 124.179688 L 131.25 141.113281 L 122.617188 132.5 C 113.378906 123.300781 112.949219 122.949219 110.058594 121.953125 C 107.910156 121.210938 104.921875 121.171875 102.734375 121.835938 C 99.472656 122.851562 100.253906 122.148438 81.191406 141.191406 C 61.816406 160.527344 62.65625 159.570312 62.539062 162.207031 C 62.402344 164.746094 63.730469 166.992188 65.976562 168.105469 C 66.933594 168.574219 67.324219 168.652344 68.75 168.652344 C 70.078125 168.652344 70.605469 168.554688 71.386719 168.183594 C 72.167969 167.8125 75.722656 164.375 89.296875 150.800781 L 106.25 133.886719 L 114.980469 142.597656 C 124.453125 152.050781 124.648438 152.207031 127.734375 153.164062 C 129.902344 153.828125 132.890625 153.789062 135.058594 153.046875 C 135.917969 152.753906 137.148438 152.1875 137.792969 151.816406 C 138.671875 151.289062 143.242188 146.855469 156.308594 133.808594 C 175.214844 114.941406 174.6875 115.546875 174.941406 113.046875 C 175.078125 111.738281 174.609375 110.039062 173.808594 108.847656 C 172.363281 106.777344 169.355469 105.742188 166.894531 106.523438 Z M 166.894531 106.523438 "/>
</g>
</svg>
