<?xml version="1.0" encoding="UTF-8"?>
<svg xmlns="http://www.w3.org/2000/svg" xmlns:xlink="http://www.w3.org/1999/xlink" width="200pt" height="200pt" viewBox="0 0 200 200" version="1.1">
<g id="surface1">
<path style=" stroke:none;fill-rule:nonzero;fill:rgb(0%,0%,0%);fill-opacity:1;" d="M 77.734375 8.847656 C 75.507812 9.511719 74.296875 10.273438 72.460938 12.109375 C 70.585938 13.984375 69.765625 15.390625 69.140625 17.890625 C 68.769531 19.355469 68.75 20.117188 68.75 45.136719 L 68.75 70.878906 L 55.332031 70.9375 L 41.894531 70.996094 L 40.898438 71.523438 C 38.789062 72.636719 37.617188 74.589844 37.597656 76.953125 C 37.597656 79.863281 34.980469 77.03125 67.441406 109.511719 C 99.726562 141.816406 97.226562 139.53125 100 139.53125 C 102.949219 139.550781 100.332031 141.953125 132.636719 109.609375 C 156.523438 85.722656 161.542969 80.585938 161.914062 79.785156 C 163.339844 76.660156 161.992188 72.929688 158.886719 71.464844 L 157.714844 70.898438 L 131.25 70.898438 L 131.210938 44.570312 L 131.152344 18.261719 L 130.625 16.835938 C 130.332031 16.054688 129.785156 14.902344 129.414062 14.277344 C 128.398438 12.617188 126.113281 10.546875 124.394531 9.6875 C 121.601562 8.339844 122.851562 8.398438 99.902344 8.417969 L 79.199219 8.417969 Z M 118.789062 49.746094 L 118.847656 78.613281 L 119.296875 79.609375 C 119.863281 80.859375 121.289062 82.265625 122.558594 82.851562 C 123.515625 83.300781 123.671875 83.300781 132.285156 83.398438 L 141.015625 83.496094 L 100 124.511719 L 58.984375 83.496094 L 67.714844 83.398438 L 76.464844 83.300781 L 77.539062 82.792969 C 78.867188 82.167969 79.921875 81.152344 80.625 79.824219 L 81.152344 78.808594 L 81.210938 49.84375 L 81.25 20.898438 L 118.75 20.898438 Z M 118.789062 49.746094 "/>
<path style=" stroke:none;fill-rule:nonzero;fill:rgb(0%,0%,0%);fill-opacity:1;" d="M 4.492188 139.824219 C 2.792969 140.351562 1.269531 141.679688 0.507812 143.339844 C 0.0976562 144.238281 0.0976562 144.335938 0.0976562 158.984375 L 0.0976562 173.730469 L 0.546875 175.390625 C 2.265625 181.699219 6.738281 186.542969 12.792969 188.613281 C 15.996094 189.707031 10.9375 189.648438 99.902344 189.648438 C 155.585938 189.648438 182.460938 189.589844 183.574219 189.453125 C 191.5625 188.4375 197.988281 182.460938 199.628906 174.511719 C 199.960938 172.890625 200 171.640625 200 158.75 C 200 145.097656 199.980469 144.707031 199.589844 143.671875 C 199.042969 142.167969 197.753906 140.820312 196.269531 140.136719 C 195.195312 139.667969 194.902344 139.609375 193.476562 139.6875 C 190.9375 139.824219 189.0625 141.074219 188.007812 143.339844 C 187.597656 144.21875 187.597656 144.453125 187.5 158.300781 L 187.402344 172.363281 L 186.855469 173.476562 C 186.171875 174.882812 184.707031 176.230469 183.339844 176.699219 C 182.363281 177.03125 179.121094 177.050781 100 177.050781 C 20.878906 177.050781 17.636719 177.03125 16.660156 176.699219 C 15.292969 176.230469 13.828125 174.882812 13.144531 173.476562 L 12.597656 172.363281 L 12.5 158.300781 C 12.402344 144.453125 12.402344 144.21875 11.992188 143.339844 C 11.367188 141.992188 10.214844 140.839844 8.886719 140.195312 C 7.929688 139.746094 7.460938 139.648438 6.347656 139.667969 C 5.605469 139.667969 4.765625 139.746094 4.492188 139.824219 Z M 4.492188 139.824219 "/>
</g>
</svg>
