<?xml version="1.0" encoding="UTF-8"?>
<svg xmlns="http://www.w3.org/2000/svg" xmlns:xlink="http://www.w3.org/1999/xlink" width="200pt" height="200pt" viewBox="0 0 200 200" version="1.1">
<g id="surface1">
<path style=" stroke:none;fill-rule:nonzero;fill:rgb(0%,0%,0%);fill-opacity:1;" d="M 79.101562 1.199219 C 57.199219 3.601562 34.398438 12.199219 23.601562 22.101562 C 14 30.898438 11.5 38.199219 13 52.601562 C 15.601562 75.5 27.101562 97 44.601562 111.398438 C 51.699219 117.300781 63.699219 124 70.800781 126.101562 L 75 127.300781 L 75 153 C 75 182.601562 75.601562 185.601562 82.5 192.5 C 92.300781 202.300781 107.699219 202.300781 117.5 192.5 C 124.398438 185.601562 125 182.601562 125 153 L 125 127.300781 L 129.300781 126.101562 C 148.5 120.398438 168.699219 102.101562 178.601562 81.5 C 183.601562 71.199219 185.601562 64 187 52.101562 C 188.601562 38.300781 185.898438 30.800781 176.398438 22.101562 C 158.398438 5.601562 117.800781 -3.101562 79.101562 1.199219 Z M 125.398438 14.5 C 147.800781 17.898438 168.300781 27.898438 173.5 38 C 184 58.398438 135.601562 78.5 86.5 74.101562 C 58.898438 71.699219 34.5 62.398438 27.398438 51.5 C 23.398438 45.300781 24.898438 37.800781 31.398438 31.800781 C 39 24.699219 57.800781 17 73.699219 14.601562 C 85.800781 12.699219 113.101562 12.699219 125.398438 14.5 Z M 37.5 74.601562 C 70.699219 91.898438 129.300781 91.898438 162.5 74.601562 C 165.800781 72.898438 168.898438 71.300781 169.398438 71.101562 C 169.800781 70.898438 168.300781 74.5 165.898438 79.101562 C 157.398438 95.601562 139.199219 110.5 121.5 115.5 C 118.199219 116.398438 114.800781 117.898438 114 118.601562 C 112.800781 119.800781 112.398438 125.199219 112 150.601562 L 111.5 181.199219 L 108 184.101562 C 103.199219 188.199219 96.800781 188.199219 92 184.101562 L 88.5 181.199219 L 88 150.601562 C 87.601562 125.199219 87.199219 119.800781 86 118.601562 C 85.199219 117.898438 81.800781 116.398438 78.5 115.5 C 60.800781 110.5 42.601562 95.601562 34.101562 79.101562 C 31.699219 74.5 30.199219 70.898438 30.601562 71.101562 C 31.101562 71.300781 34.199219 72.898438 37.5 74.601562 Z M 37.5 74.601562 "/>
</g>
</svg>
