<?xml version="1.0" encoding="UTF-8"?>
<svg xmlns="http://www.w3.org/2000/svg" xmlns:xlink="http://www.w3.org/1999/xlink" width="200pt" height="200pt" viewBox="0 0 200 200" version="1.1">
<g id="surface1">
<path style=" stroke:none;fill-rule:nonzero;fill:rgb(0%,0%,0%);fill-opacity:1;" d="M 94.5 16.398438 C 68.101562 22.398438 45.898438 39.800781 34 63.898438 C 30.601562 70.601562 26 85.800781 26 90.101562 C 26 91.699219 25.699219 93 25.300781 93 C 24.898438 93 20.898438 89.398438 16.398438 85 C 7.800781 76.5 5.398438 75.601562 2 79 C -1.800781 82.800781 -0.699219 84.800781 13.800781 99.300781 C 21.300781 106.898438 28.199219 113.5 29 114 C 31.800781 115.800781 34.5 113.800781 48.300781 100.199219 C 60.199219 88.300781 62 86.101562 62 83.300781 C 62 79.898438 59.101562 77 55.699219 77 C 54.601562 77 50.199219 80.5 45.898438 84.699219 C 38.101562 92.300781 38 92.300781 38.601562 88.898438 C 42.300781 68.398438 54.300781 50.398438 72.199219 38.800781 C 96.5 23.101562 128.5 23.101562 152.800781 38.800781 C 169.300781 49.5 181.800781 67.199219 185.601562 84.898438 C 187.398438 93.398438 187.398438 110.601562 185.601562 119.101562 C 178.800781 150.898438 149 175.300781 114.601562 177.199219 C 110.601562 177.5 109.300781 178 107.601562 180.300781 C 105.699219 182.898438 105.699219 183.300781 107.101562 185.800781 C 108.5 188.300781 109.101562 188.5 116 188.800781 C 126.699219 189.199219 140.101562 186 151.601562 180 C 174 168.601562 189.101562 150.300781 196.601562 125.300781 C 199 117.601562 199.300781 114.699219 199.398438 102.5 C 199.398438 83 195.699219 70.101562 185.5 54.5 C 174.101562 37.101562 159.398438 25.800781 138.898438 18.898438 C 130.300781 16 128.199219 15.601562 115 15.398438 C 105.199219 15.101562 98.5 15.5 94.5 16.398438 Z M 94.5 16.398438 "/>
<path style=" stroke:none;fill-rule:nonzero;fill:rgb(0%,0%,0%);fill-opacity:1;" d="M 102 48 C 100.101562 49.898438 100 51.300781 100 80.300781 C 100 109.898438 100.101562 110.699219 102.101562 112.601562 C 104 114.300781 106.199219 114.5 125.300781 114.800781 C 147.800781 115.199219 152 114.800781 154.5 112.398438 C 156.601562 110.300781 156.398438 106.398438 154 104 C 152.101562 102.101562 150.699219 102 132 102 L 112 102 L 112 75.699219 C 112 51.398438 111.898438 49.199219 110.199219 47.699219 C 107.699219 45.398438 104.398438 45.601562 102 48 Z M 102 48 "/>
</g>
</svg>
