<?xml version="1.0" encoding="UTF-8"?>
<svg xmlns="http://www.w3.org/2000/svg" xmlns:xlink="http://www.w3.org/1999/xlink" width="200pt" height="200pt" viewBox="0 0 200 200" version="1.1">
<g id="surface1">
<path style=" stroke:none;fill-rule:nonzero;fill:rgb(0%,0%,0%);fill-opacity:1;" d="M 9.5 1.5 C 3.5 4.300781 0 9.300781 0 15 C 0 20.398438 2.800781 24.101562 20.101562 41.5 L 36.898438 58.5 L 37.199219 83.699219 C 37.5 111.300781 37.699219 112.300781 43.5 112.199219 C 45.699219 112.199219 49.199219 109.300781 60.601562 97.898438 L 75 83.5 L 75 58.5 L 92.898438 40.5 C 106.898438 26.398438 111.101562 21.699219 111.800781 18.699219 C 113.800781 11.398438 109.398438 3.300781 102.199219 1.199219 C 96 -0.699219 13.5 -0.398438 9.5 1.5 Z M 99.800781 14.800781 C 100 15.601562 92 24.398438 81.398438 35.101562 L 62.5 54.101562 L 62.199219 66.898438 L 61.800781 79.699219 L 55.898438 85.601562 L 50 91.398438 L 50 53.601562 L 31.5 35 C 21.300781 24.800781 13 15.699219 13 14.699219 C 13 13.101562 15.800781 13 56.199219 13.199219 C 91 13.398438 99.398438 13.800781 99.800781 14.800781 Z M 99.800781 14.800781 "/>
<path style=" stroke:none;fill-rule:nonzero;fill:rgb(0%,0%,0%);fill-opacity:1;" d="M 116.300781 38.398438 C 113.5 39.699219 113 40.398438 113 43.300781 C 113 50 112.800781 50 149.601562 50 C 177.800781 50 182.898438 50.199219 184.800781 51.601562 L 187 53.101562 L 187 119 C 187 183.199219 186.898438 185 185.101562 186 C 183.800781 186.601562 163.101562 187 124.800781 187 C 75.898438 187 66.101562 186.800781 64.398438 185.601562 C 62.601562 184.199219 62.5 182.601562 62.199219 156.300781 C 62 129.5 61.898438 128.398438 59.898438 126.800781 C 57.101562 124.5 54.5 124.5 52 127 C 50.101562 128.898438 50 130.300781 50 156.898438 C 50 174.199219 50.398438 185.898438 51.101562 187.699219 C 52.5 191.5 57.800781 196.898438 61.898438 198.601562 C 64.699219 199.800781 75.601562 200 125.199219 200 C 182.101562 200 185.300781 199.898438 188.800781 198.101562 C 193.5 195.699219 196.5 192.5 198.5 187.800781 C 199.800781 184.601562 200 175.398438 200 118.5 C 200 47.699219 200.101562 48.898438 194.699219 43.199219 C 189.5 37.601562 189.199219 37.5 153 37.199219 C 125.398438 37 118.898438 37.300781 116.300781 38.398438 Z M 116.300781 38.398438 "/>
<path style=" stroke:none;fill-rule:nonzero;fill:rgb(0%,0%,0%);fill-opacity:1;" d="M 102 77 C 99.398438 79.601562 99.5 83.199219 102.101562 85.601562 C 104.101562 87.398438 106.199219 87.5 137.5 87.5 C 168.800781 87.5 170.898438 87.398438 172.898438 85.601562 C 175.5 83.199219 175.601562 79.601562 173 77 C 171.101562 75.101562 169.699219 75 137.5 75 C 105.300781 75 103.898438 75.101562 102 77 Z M 102 77 "/>
<path style=" stroke:none;fill-rule:nonzero;fill:rgb(0%,0%,0%);fill-opacity:1;" d="M 86.199219 112.699219 C 83.300781 113.300781 80.601562 117.300781 81.5 119.898438 C 83.101562 125.101562 82 125 128.101562 125 C 169.699219 125 171.101562 124.898438 173 123 C 175.101562 120.898438 175.300781 119.800781 174.398438 116.300781 C 174 114.800781 172.601562 113.699219 170.101562 113 C 166.601562 112 91.199219 111.800781 86.199219 112.699219 Z M 86.199219 112.699219 "/>
<path style=" stroke:none;fill-rule:nonzero;fill:rgb(0%,0%,0%);fill-opacity:1;" d="M 83 152.199219 C 80.5 154.898438 80.5 157.101562 82.898438 160.101562 L 84.800781 162.5 L 127.800781 162.5 C 168.699219 162.5 170.898438 162.398438 172.898438 160.601562 C 175.5 158.199219 175.601562 154.601562 173 152 C 171.101562 150.101562 169.699219 150 128 150 C 85.101562 150 85.101562 150 83 152.199219 Z M 83 152.199219 "/>
</g>
</svg>
