<?xml version="1.0" encoding="UTF-8"?>
<svg xmlns="http://www.w3.org/2000/svg" xmlns:xlink="http://www.w3.org/1999/xlink" width="200pt" height="200pt" viewBox="0 0 200 200" version="1.1">
<g id="surface1">
<path style=" stroke:none;fill-rule:nonzero;fill:rgb(0%,0%,0%);fill-opacity:1;" d="M 83.300781 0.683594 C 70.703125 3.710938 9.023438 19.023438 8.105469 19.355469 C 4.375 20.703125 1.40625 24.042969 0.390625 28.046875 C 0 29.53125 0 30.546875 0 103.90625 C 0 177.636719 0 178.261719 0.390625 179.804688 C 0.957031 182.03125 1.835938 183.632812 3.4375 185.332031 C 5 186.992188 6.699219 188.085938 8.59375 188.691406 C 9.375 188.925781 24.609375 191.191406 48.046875 194.550781 C 90.976562 200.703125 88.554688 200.449219 91.71875 199.257812 C 95.683594 197.792969 98.574219 194.589844 99.609375 190.507812 C 100 189.023438 100 187.949219 100 100.117188 C 100 1.191406 100.117188 9.921875 98.59375 6.835938 C 96.601562 2.753906 91.992188 -0.0390625 87.363281 0.0195312 C 86.5625 0.0195312 84.941406 0.292969 83.300781 0.683594 Z M 87.441406 187.441406 C 87.382812 187.5 13.808594 177.050781 12.949219 176.855469 L 12.5 176.757812 L 12.5 31.054688 L 13.046875 30.917969 C 13.339844 30.859375 30.195312 26.679688 50.488281 21.679688 L 87.402344 12.578125 L 87.460938 99.960938 C 87.480469 148.046875 87.480469 187.402344 87.441406 187.441406 Z M 87.441406 187.441406 "/>
<path style=" stroke:none;fill-rule:nonzero;fill:rgb(0%,0%,0%);fill-opacity:1;" d="M 63.300781 90.9375 C 61.679688 91.367188 60.078125 92.324219 58.925781 93.535156 C 55.332031 97.285156 55.371094 103.007812 59.003906 106.621094 C 60.839844 108.457031 63.027344 109.375 65.625 109.375 C 69.980469 109.375 73.59375 106.542969 74.707031 102.246094 C 76.425781 95.527344 70 89.140625 63.300781 90.9375 Z M 63.300781 90.9375 "/>
<path style=" stroke:none;fill-rule:nonzero;fill:rgb(0%,0%,0%);fill-opacity:1;" d="M 116.855469 25.351562 C 115.449219 25.859375 114.375 26.601562 113.710938 27.597656 C 111.464844 30.839844 112.519531 35.15625 115.976562 36.855469 L 117.089844 37.402344 L 157.714844 37.597656 L 158.710938 38.046875 C 159.960938 38.613281 161.367188 40.039062 161.953125 41.308594 C 162.382812 42.265625 162.402344 42.460938 162.5 50.097656 L 162.597656 57.910156 L 163.144531 59.023438 C 165.410156 63.632812 172.089844 63.632812 174.355469 59.023438 L 174.902344 57.910156 L 174.960938 50.136719 C 175 43.847656 174.960938 42.03125 174.726562 40.625 C 173.476562 33.4375 168.320312 27.753906 161.113281 25.644531 L 159.277344 25.117188 L 138.574219 25.058594 C 119.023438 25 117.8125 25.019531 116.855469 25.351562 Z M 116.855469 25.351562 "/>
<path style=" stroke:none;fill-rule:nonzero;fill:rgb(0%,0%,0%);fill-opacity:1;" d="M 166.914062 75.3125 C 164.0625 76.210938 162.285156 78.886719 162.558594 81.816406 C 162.753906 84.101562 162.871094 84.238281 171.054688 92.421875 L 178.613281 100 L 151.445312 100 C 121.503906 100 123.183594 99.941406 121.328125 101.210938 C 120.878906 101.523438 120.195312 102.246094 119.824219 102.792969 C 117.617188 106.171875 119.0625 110.703125 122.773438 112.109375 C 123.828125 112.5 124.179688 112.5 151.230469 112.5 L 178.59375 112.5 L 171.074219 120.058594 C 162.5 128.691406 162.597656 128.554688 162.597656 131.25 C 162.597656 132.675781 162.675781 133.066406 163.144531 134.023438 C 164.550781 136.914062 167.949219 138.222656 171.035156 137.089844 C 172.109375 136.699219 172.851562 135.976562 185.488281 123.378906 C 194.980469 113.90625 198.964844 109.804688 199.355469 109.101562 C 199.84375 108.222656 199.902344 107.910156 199.902344 106.347656 C 199.902344 103.359375 200.625 104.21875 185.703125 89.316406 C 174.023438 77.65625 172.421875 76.132812 171.40625 75.664062 C 169.980469 75.019531 168.261719 74.882812 166.914062 75.3125 Z M 166.914062 75.3125 "/>
<path style=" stroke:none;fill-rule:nonzero;fill:rgb(0%,0%,0%);fill-opacity:1;" d="M 167.050781 150.273438 C 165.722656 150.703125 164.472656 151.523438 163.847656 152.402344 C 162.578125 154.140625 162.617188 153.847656 162.5 162.5 L 162.402344 170.410156 L 161.738281 171.640625 C 161.015625 172.988281 160.175781 173.789062 158.789062 174.472656 L 157.910156 174.902344 L 117.246094 175.097656 L 115.898438 175.78125 C 111.113281 178.222656 111.503906 185.214844 116.542969 187.109375 C 117.617188 187.5 117.832031 187.5 138.554688 187.460938 L 159.472656 187.402344 L 161.035156 186.953125 C 163.066406 186.367188 165.546875 185.195312 167.070312 184.101562 C 168.847656 182.832031 171.445312 180 172.441406 178.222656 C 173.515625 176.367188 174.296875 174.199219 174.707031 171.992188 C 174.960938 170.625 175 169.003906 174.960938 162.460938 L 174.902344 154.589844 L 174.414062 153.613281 C 173.085938 150.9375 169.707031 149.394531 167.050781 150.273438 Z M 167.050781 150.273438 "/>
</g>
</svg>
