<?xml version="1.0" encoding="UTF-8"?>
<svg xmlns="http://www.w3.org/2000/svg" xmlns:xlink="http://www.w3.org/1999/xlink" width="200pt" height="200pt" viewBox="0 0 200 200" version="1.1">
<g id="surface1">
<path style=" stroke:none;fill-rule:nonzero;fill:rgb(0%,0%,0%);fill-opacity:1;" d="M 96.199219 1.601562 C 94.199219 2.898438 94 4 94 10.898438 L 94 18.699219 L 85.800781 20.300781 C 80.699219 21.300781 74.199219 23.601562 69 26.101562 C 52.898438 34.101562 38.300781 51.898438 33.601562 69.5 C 32.5 73.199219 31.601562 82.898438 31 95.101562 C 29.699219 122.800781 27.300781 136.800781 21.300781 150.199219 C 18.199219 157.199219 18.699219 160.300781 23.101562 161.898438 C 27.5 163.398438 172.699219 163.398438 176.699219 161.898438 C 178.199219 161.398438 179.800781 160.300781 180.199219 159.699219 C 181.601562 157.601562 181 153.898438 179.101562 151.398438 C 173.699219 144.5 170.199219 125.800781 169 97 C 168 72.898438 167.199219 68.800781 160.898438 56 C 157.5 49.300781 154.898438 45.699219 148.101562 38.898438 C 137.800781 28.601562 127.398438 22.898438 114.300781 20.300781 L 106 18.699219 L 106 10.898438 C 106 4 105.800781 2.898438 103.800781 1.601562 C 102.601562 0.699219 100.898438 0 100 0 C 99.101562 0 97.398438 0.699219 96.199219 1.601562 Z M 111.5 32.5 C 131.800781 36.699219 149.601562 53.898438 154.398438 73.800781 C 155.199219 76.898438 156.101562 87.300781 156.5 96.898438 C 156.800781 106.398438 157.5 117.898438 158.101562 122.398438 C 159 130.101562 162.101562 144.398438 163.5 148.300781 C 164.199219 149.898438 160.699219 150 99.699219 150 L 35.300781 150 L 37.199219 143.199219 C 40.5 131.199219 42.101562 119.898438 43.398438 97 C 44.601562 78.300781 45.199219 73.5 47.101562 68.5 C 50.199219 60.101562 53.800781 54.601562 61 47.398438 C 74.199219 34.101562 92.898438 28.601562 111.5 32.5 Z M 111.5 32.5 "/>
<path style=" stroke:none;fill-rule:nonzero;fill:rgb(0%,0%,0%);fill-opacity:1;" d="M 79 177 C 76.5 179.5 76.5 181.300781 78.898438 186.601562 C 82.300781 194.101562 91.5 200 100 200 C 108.300781 200 117.199219 194.5 121 186.898438 C 123.5 182 123.5 179.5 121 177 C 118.199219 174.199219 114.5 174.398438 112.300781 177.699219 C 111.300781 179.101562 109.101562 181.800781 107.398438 183.699219 C 104.699219 186.398438 103.5 187 100 187 C 96.5 187 95.300781 186.398438 92.699219 183.699219 C 90.898438 181.800781 88.699219 179.101562 87.699219 177.699219 C 85.5 174.398438 81.800781 174.199219 79 177 Z M 79 177 "/>
</g>
</svg>
