<?xml version="1.0" encoding="UTF-8"?>
<svg xmlns="http://www.w3.org/2000/svg" xmlns:xlink="http://www.w3.org/1999/xlink" width="200pt" height="200pt" viewBox="0 0 200 200" version="1.1">
<g id="surface1">
<path style=" stroke:none;fill-rule:nonzero;fill:rgb(0%,0%,0%);fill-opacity:1;" d="M 15.039062 0.371094 C 11.289062 1.171875 7.949219 3.007812 5.351562 5.703125 C 2.753906 8.378906 1.132812 11.425781 0.371094 15.136719 C 0.0195312 16.835938 0 19.316406 0 87.5 C 0 155.683594 0.0195312 158.164062 0.371094 159.863281 C 1.171875 163.691406 2.96875 167.011719 5.703125 169.648438 C 8.398438 172.265625 11.445312 173.867188 15.175781 174.628906 C 16.894531 174.980469 18.066406 175 40.566406 174.960938 L 64.160156 174.902344 L 65.078125 174.472656 C 66.25 173.925781 67.695312 172.5 68.222656 171.328125 C 68.828125 170.039062 68.828125 167.460938 68.222656 166.171875 C 67.695312 165 66.25 163.574219 65.078125 163.027344 L 64.160156 162.597656 L 17.089844 162.402344 L 16.074219 161.875 C 14.785156 161.191406 13.808594 160.214844 13.125 158.925781 L 12.597656 157.910156 L 12.597656 17.089844 L 13.125 16.074219 C 13.808594 14.785156 14.785156 13.808594 16.074219 13.125 L 17.089844 12.597656 L 62.890625 12.597656 C 107.1875 12.597656 108.730469 12.617188 109.667969 12.96875 C 110.527344 13.28125 112.148438 14.824219 123.496094 26.152344 C 134.121094 36.738281 136.425781 39.160156 136.875 40.039062 L 137.402344 41.113281 L 137.5 52.636719 C 137.597656 63.945312 137.597656 64.179688 138.027344 65.078125 C 138.574219 66.25 140 67.695312 141.171875 68.222656 C 141.875 68.554688 142.460938 68.652344 143.75 68.652344 C 145.039062 68.652344 145.625 68.554688 146.328125 68.222656 C 147.5 67.695312 148.925781 66.25 149.472656 65.078125 C 149.902344 64.160156 149.902344 64.0625 149.902344 51.953125 C 149.902344 39.84375 149.902344 39.726562 149.453125 38.085938 C 148.886719 35.996094 147.382812 32.890625 146.113281 31.25 C 144.589844 29.257812 119.453125 4.296875 117.988281 3.320312 C 116.347656 2.226562 113.945312 1.113281 112.011719 0.546875 L 110.449219 0.0976562 L 63.574219 0.0585938 C 18.964844 0.0195312 16.621094 0.0390625 15.039062 0.371094 Z M 15.039062 0.371094 "/>
<path style=" stroke:none;fill-rule:nonzero;fill:rgb(0%,0%,0%);fill-opacity:1;" d="M 29.335938 50.292969 C 25.859375 51.367188 24.0625 55.46875 25.546875 58.847656 C 26.054688 60 27.5 61.425781 28.671875 61.972656 L 29.589844 62.402344 L 120.410156 62.402344 L 121.328125 61.972656 C 122.5 61.425781 123.945312 60 124.472656 58.828125 C 125.078125 57.539062 125.078125 54.960938 124.472656 53.671875 C 123.945312 52.5 122.5 51.074219 121.328125 50.527344 L 120.410156 50.097656 L 75.292969 50.058594 C 37.8125 50.039062 30.039062 50.078125 29.335938 50.292969 Z M 29.335938 50.292969 "/>
<path style=" stroke:none;fill-rule:nonzero;fill:rgb(0%,0%,0%);fill-opacity:1;" d="M 29.335938 87.792969 C 25.859375 88.867188 24.0625 92.96875 25.546875 96.347656 C 26.054688 97.5 27.5 98.925781 28.671875 99.472656 L 29.589844 99.902344 L 82.910156 99.902344 L 83.828125 99.472656 C 85 98.925781 86.445312 97.5 86.972656 96.328125 C 87.578125 95.039062 87.578125 92.460938 86.972656 91.171875 C 86.445312 90 85 88.574219 83.828125 88.027344 L 82.910156 87.597656 L 56.542969 87.558594 C 34.804688 87.539062 30.019531 87.578125 29.335938 87.792969 Z M 29.335938 87.792969 "/>
<path style=" stroke:none;fill-rule:nonzero;fill:rgb(0%,0%,0%);fill-opacity:1;" d="M 137.695312 87.8125 C 127.675781 88.90625 117.851562 92.792969 109.84375 98.867188 C 95.761719 109.550781 87.5 126.132812 87.5 143.75 C 87.5 155.957031 91.523438 167.96875 98.867188 177.65625 C 109.550781 191.738281 126.132812 200 143.75 200 C 155.957031 200 167.96875 195.976562 177.65625 188.632812 C 191.738281 177.949219 200 161.367188 200 143.75 C 200 131.542969 195.976562 119.53125 188.632812 109.84375 C 179.179688 97.363281 165.117188 89.433594 149.53125 87.792969 C 146.113281 87.441406 141.035156 87.441406 137.695312 87.8125 Z M 150.195312 100.488281 C 162.519531 102.34375 173.457031 109.355469 180.3125 119.824219 C 183.847656 125.195312 186.054688 131.015625 187.050781 137.5 C 187.519531 140.585938 187.519531 146.914062 187.050781 150 C 185.136719 162.578125 178.183594 173.4375 167.675781 180.3125 C 162.304688 183.847656 156.484375 186.054688 150 187.050781 C 146.914062 187.519531 140.585938 187.519531 137.5 187.050781 C 124.921875 185.136719 114.082031 178.203125 107.1875 167.675781 C 103.652344 162.304688 101.445312 156.484375 100.449219 150 C 99.980469 146.914062 99.980469 140.585938 100.449219 137.5 C 102.363281 124.921875 109.316406 114.0625 119.824219 107.1875 C 126.015625 103.125 132.734375 100.820312 140.429688 100.117188 C 142.167969 99.960938 148.183594 100.195312 150.195312 100.488281 Z M 150.195312 100.488281 "/>
<path style=" stroke:none;fill-rule:nonzero;fill:rgb(0%,0%,0%);fill-opacity:1;" d="M 141.679688 112.851562 C 140.46875 113.28125 139.316406 114.160156 138.59375 115.214844 C 137.460938 116.835938 137.5 116.269531 137.5 135.722656 L 137.5 153.59375 L 133.046875 149.160156 C 127.871094 144.023438 127.617188 143.847656 125 143.847656 C 122.988281 143.847656 121.933594 144.257812 120.605469 145.605469 C 119.296875 146.894531 118.867188 147.988281 118.847656 149.902344 C 118.847656 152.8125 118.320312 152.167969 129.746094 163.613281 C 136.933594 170.820312 140.195312 173.964844 140.898438 174.355469 C 141.796875 174.84375 142.070312 174.902344 143.75 174.902344 C 145.429688 174.902344 145.703125 174.84375 146.601562 174.355469 C 147.304688 173.964844 150.566406 170.820312 157.753906 163.613281 C 169.179688 152.167969 168.652344 152.8125 168.652344 149.902344 C 168.632812 147.988281 168.203125 146.894531 166.894531 145.605469 C 165.566406 144.257812 164.511719 143.847656 162.5 143.847656 C 159.882812 143.847656 159.628906 144.023438 154.453125 149.160156 L 150 153.59375 L 149.960938 135.332031 L 149.902344 117.089844 L 149.472656 116.171875 C 148.925781 114.980469 147.5 113.554688 146.328125 113.046875 C 145.039062 112.460938 142.96875 112.382812 141.679688 112.851562 Z M 141.679688 112.851562 "/>
<path style=" stroke:none;fill-rule:nonzero;fill:rgb(0%,0%,0%);fill-opacity:1;" d="M 29.335938 125.292969 C 25.859375 126.386719 24.0625 130.46875 25.546875 133.847656 C 26.054688 135 27.5 136.425781 28.671875 136.972656 L 29.589844 137.402344 L 64.160156 137.402344 L 65.078125 136.972656 C 66.25 136.425781 67.695312 135 68.222656 133.828125 C 68.828125 132.539062 68.828125 129.960938 68.222656 128.671875 C 67.695312 127.5 66.25 126.074219 65.078125 125.527344 C 64.160156 125.097656 64.160156 125.097656 47.167969 125.058594 C 33.300781 125.019531 30.019531 125.078125 29.335938 125.292969 Z M 29.335938 125.292969 "/>
</g>
</svg>
