<?xml version="1.0" encoding="UTF-8"?>
<svg xmlns="http://www.w3.org/2000/svg" xmlns:xlink="http://www.w3.org/1999/xlink" width="200pt" height="200pt" viewBox="0 0 200 200" version="1.1">
<g id="surface1">
<path style=" stroke:none;fill-rule:nonzero;fill:rgb(0%,0%,0%);fill-opacity:1;" d="M 55.898438 0.3125 C 52.402344 0.820312 48.339844 2.167969 45.3125 3.847656 C 41.5625 5.898438 41.113281 6.328125 23.710938 23.710938 C 6.328125 41.113281 5.898438 41.5625 3.847656 45.3125 C 2.832031 47.167969 1.679688 50.039062 1.074219 52.207031 C -0.0585938 56.367188 0 52.578125 0 120.605469 C 0 180.878906 0.0195312 183.164062 0.371094 184.863281 C 1.171875 188.691406 2.96875 192.011719 5.703125 194.648438 C 8.378906 197.246094 11.425781 198.867188 15.136719 199.628906 C 16.835938 199.980469 19.628906 200 100 200 C 180.371094 200 183.164062 199.980469 184.863281 199.628906 C 192.421875 198.066406 198.066406 192.421875 199.628906 184.863281 C 199.980469 183.164062 200 180.371094 200 100 C 200 19.628906 199.980469 16.835938 199.628906 15.136719 C 198.828125 11.308594 197.03125 7.988281 194.296875 5.351562 C 191.621094 2.753906 188.574219 1.132812 184.863281 0.371094 C 183.164062 0.0195312 180.898438 0 120.410156 0.0195312 C 68.632812 0.0390625 57.402344 0.0976562 55.898438 0.3125 Z M 62.5 35.292969 C 62.5 56.796875 62.519531 58.203125 62.871094 59.863281 C 64.433594 67.421875 70.078125 73.066406 77.636719 74.628906 C 79.316406 74.980469 80.9375 75 112.5 75 C 144.0625 75 145.683594 74.980469 147.363281 74.628906 C 154.921875 73.066406 160.566406 67.421875 162.128906 59.863281 C 162.480469 58.203125 162.5 56.796875 162.5 35.292969 L 162.5 12.480469 L 172.714844 12.539062 L 182.910156 12.597656 L 183.925781 13.125 C 185.214844 13.808594 186.191406 14.785156 186.875 16.074219 L 187.402344 17.089844 L 187.402344 182.910156 L 186.875 183.925781 C 186.191406 185.214844 185.214844 186.191406 183.925781 186.875 L 182.910156 187.402344 L 172.714844 187.460938 L 162.5 187.519531 L 162.5 152.207031 C 162.5 118.496094 162.480469 116.816406 162.128906 115.136719 C 161.328125 111.308594 159.53125 107.988281 156.796875 105.351562 C 154.121094 102.753906 151.074219 101.132812 147.363281 100.371094 C 145.683594 100.019531 143.769531 100 100 100 C 56.230469 100 54.316406 100.019531 52.636719 100.371094 C 48.808594 101.171875 45.488281 102.96875 42.851562 105.703125 C 40.253906 108.378906 38.632812 111.425781 37.871094 115.136719 C 37.519531 116.816406 37.5 118.496094 37.5 152.207031 L 37.5 187.519531 L 27.304688 187.460938 L 17.089844 187.402344 L 16.074219 186.875 C 14.785156 186.191406 13.808594 185.214844 13.125 183.925781 L 12.597656 182.910156 L 12.597656 57.519531 L 13.105469 55.644531 C 13.730469 53.4375 14.921875 50.976562 16.230469 49.21875 C 17.382812 47.65625 48.378906 16.679688 49.609375 15.878906 C 52.890625 13.691406 56.582031 12.558594 60.605469 12.519531 L 62.5 12.5 Z M 149.960938 35.195312 L 149.902344 57.910156 L 149.375 58.925781 C 148.691406 60.214844 147.714844 61.191406 146.425781 61.875 L 145.410156 62.402344 L 79.589844 62.402344 L 78.574219 61.875 C 77.285156 61.191406 76.308594 60.214844 75.625 58.925781 L 75.097656 57.910156 L 75.039062 35.195312 L 75 12.5 L 150 12.5 Z M 146.425781 113.125 C 147.714844 113.808594 148.691406 114.785156 149.375 116.074219 L 149.902344 117.089844 L 149.960938 152.285156 L 150 187.5 L 50 187.5 L 50.039062 152.285156 L 50.097656 117.089844 L 50.625 116.074219 C 51.523438 114.375 53.085938 113.105469 54.785156 112.675781 C 55.117188 112.597656 75.625 112.558594 100.390625 112.558594 L 145.410156 112.597656 Z M 146.425781 113.125 "/>
<path style=" stroke:none;fill-rule:nonzero;fill:rgb(0%,0%,0%);fill-opacity:1;" d="M 129.179688 25.351562 C 127.207031 26.054688 125.605469 27.8125 125.195312 29.746094 C 125.039062 30.429688 125 33.164062 125.039062 38.085938 C 125.097656 45.117188 125.117188 45.449219 125.527344 46.328125 C 126.074219 47.5 127.5 48.945312 128.671875 49.472656 C 129.960938 50.078125 132.539062 50.078125 133.828125 49.472656 C 135 48.945312 136.425781 47.5 136.972656 46.328125 C 137.382812 45.429688 137.402344 45.195312 137.402344 37.5 C 137.402344 29.804688 137.382812 29.570312 136.972656 28.671875 C 136.425781 27.480469 135 26.054688 133.828125 25.546875 C 132.539062 24.960938 130.46875 24.882812 129.179688 25.351562 Z M 129.179688 25.351562 "/>
<path style=" stroke:none;fill-rule:nonzero;fill:rgb(0%,0%,0%);fill-opacity:1;" d="M 66.835938 125.292969 C 63.359375 126.386719 61.5625 130.46875 63.046875 133.847656 C 63.554688 135 65 136.425781 66.171875 136.972656 L 67.089844 137.402344 L 107.910156 137.402344 L 108.828125 136.972656 C 110 136.425781 111.445312 135 111.972656 133.828125 C 112.578125 132.539062 112.578125 129.960938 111.972656 128.671875 C 111.445312 127.5 110 126.074219 108.828125 125.527344 L 107.910156 125.097656 L 87.792969 125.058594 C 71.289062 125.019531 67.519531 125.078125 66.835938 125.292969 Z M 66.835938 125.292969 "/>
<path style=" stroke:none;fill-rule:nonzero;fill:rgb(0%,0%,0%);fill-opacity:1;" d="M 66.835938 150.292969 C 63.359375 151.367188 61.5625 155.46875 63.046875 158.847656 C 63.554688 160 65 161.425781 66.171875 161.972656 L 67.089844 162.402344 L 132.910156 162.402344 L 133.828125 161.972656 C 135 161.425781 136.445312 160 136.972656 158.828125 C 137.578125 157.539062 137.578125 154.960938 136.972656 153.671875 C 136.445312 152.5 135 151.074219 133.828125 150.527344 L 132.910156 150.097656 L 100.292969 150.058594 C 73.300781 150.039062 67.539062 150.078125 66.835938 150.292969 Z M 66.835938 150.292969 "/>
</g>
</svg>
