<?xml version="1.0" encoding="UTF-8"?>
<svg xmlns="http://www.w3.org/2000/svg" xmlns:xlink="http://www.w3.org/1999/xlink" width="200pt" height="200pt" viewBox="0 0 200 200" version="1.1">
<g id="surface1">
<path style=" stroke:none;fill-rule:nonzero;fill:rgb(0%,0%,0%);fill-opacity:1;" d="M 90.199219 38.101562 C 80.101562 39 64.601562 43.601562 53.898438 49 C 32.300781 59.898438 3.699219 84.101562 1.101562 93.699219 C -1.699219 103.800781 0.800781 109.699219 13 121.300781 C 32.199219 139.699219 49.601562 150.601562 70.5 157.601562 C 94.398438 165.601562 121.800781 163.199219 146.199219 150.898438 C 167.5 140.199219 196.300781 115.800781 199 106.199219 C 201.5 96.898438 199.601562 91.5 190.300781 81.800781 C 167.699219 58.398438 134.800781 40.199219 111.699219 38.5 C 107.699219 38.199219 103.398438 37.800781 102 37.601562 C 100.601562 37.5 95.300781 37.699219 90.199219 38.101562 Z M 114 51.398438 C 135.898438 55.398438 161.800781 70.5 180.800781 90.300781 C 189.800781 99.699219 189.601562 101.199219 178.101562 112.300781 C 165.699219 124.300781 154.5 132.199219 140.5 139.101562 C 124.199219 147.101562 114.898438 149.398438 99.5 149.300781 C 85.101562 149.300781 76.398438 147.199219 62.199219 140.5 C 46 132.800781 35.898438 125.699219 21.699219 112.101562 C 10.398438 101.199219 10.199219 99.699219 19.199219 90.300781 C 33.101562 75.800781 53.601562 61.898438 69.800781 56 C 85.5 50.199219 99.5 48.800781 114 51.398438 Z M 114 51.398438 "/>
<path style=" stroke:none;fill-rule:nonzero;fill:rgb(0%,0%,0%);fill-opacity:1;" d="M 87.898438 64.398438 C 66.800781 72.398438 57.101562 95.199219 66 115.800781 C 69.101562 122.898438 78.898438 132.101562 86.699219 135 C 94.601562 137.898438 105.398438 137.898438 113.300781 135 C 120.699219 132.199219 130 123.800781 133.5 116.5 C 142.601562 98 135 75.898438 116.199219 66.398438 C 111.300781 63.898438 109.199219 63.5 101 63.300781 C 94.800781 63.101562 90.199219 63.5 87.898438 64.398438 Z M 108.300781 76.601562 C 117.398438 79.699219 125 90.300781 125 100 C 125 113 113 125 100 125 C 86.898438 125 75 113.101562 75 100 C 75 94.101562 78 87.101562 82.5 82.601562 C 89.699219 75.5 98.800781 73.300781 108.300781 76.601562 Z M 108.300781 76.601562 "/>
</g>
</svg>
