<?xml version="1.0" encoding="UTF-8"?>
<svg xmlns="http://www.w3.org/2000/svg" xmlns:xlink="http://www.w3.org/1999/xlink" width="200pt" height="200pt" viewBox="0 0 200 200" version="1.1">
<g id="surface1">
<path style=" stroke:none;fill-rule:nonzero;fill:rgb(0%,0%,0%);fill-opacity:1;" d="M 167 28.398438 C 109.300781 83 17.800781 171.800781 17.398438 173.699219 C 16.5 177.199219 19.398438 181 23 181 C 25.601562 181 36.601562 170.800781 104.699219 105.5 C 148.101562 63.898438 184.101562 28.800781 184.800781 27.5 C 185.800781 25.601562 185.800781 24.601562 184.898438 22.800781 C 181.601562 16.5 178.5 17.5 167 28.398438 Z M 167 28.398438 "/>
<path style=" stroke:none;fill-rule:nonzero;fill:rgb(0%,0%,0%);fill-opacity:1;" d="M 82 45.5 C 59 50.300781 33 65.199219 12.5 85.5 C 4.800781 93.101562 2.101562 96.5 1.199219 99.601562 C -1.898438 110.199219 0.398438 115.398438 14.101562 128.398438 C 24.398438 138.199219 29.300781 142 31.800781 142 C 33.699219 142 38 137.398438 38 135.398438 C 38 134.5 32.398438 128.300781 25.5 121.699219 C 10.101562 107 9.800781 106.199219 18.800781 96.800781 C 35.199219 79.5 60.800781 63.601562 79.601562 59.101562 C 91.199219 56.300781 99.398438 55.699219 109.5 57.101562 C 114.5 57.800781 119.601562 58.300781 120.898438 58.199219 C 125.898438 58.101562 128 50.300781 123.800781 47.601562 C 118.199219 44.101562 94.699219 42.898438 82 45.5 Z M 82 45.5 "/>
<path style=" stroke:none;fill-rule:nonzero;fill:rgb(0%,0%,0%);fill-opacity:1;" d="M 160.300781 69.199219 C 156.699219 73.898438 158.101562 76.898438 167.699219 84.5 C 171.800781 87.800781 177.800781 93.300781 181.101562 96.699219 C 190 105.898438 189.699219 107.101562 176.699219 119.699219 C 149.101562 146.300781 119 158.699219 90.800781 155.101562 C 72.199219 152.699219 71.5 152.699219 70.101562 154.398438 C 68.199219 156.699219 68.398438 160.898438 70.601562 162.898438 C 73.101562 165.300781 78.5 166.699219 90.199219 168.101562 C 121.601562 172 156.398438 157.199219 187.898438 126.601562 C 199.398438 115.398438 201.699219 109.699219 198.898438 99.5 C 198.101562 96.5 195.5 93.300781 188.601562 86.5 C 172.398438 70.601562 163.398438 65.199219 160.300781 69.199219 Z M 160.300781 69.199219 "/>
<path style=" stroke:none;fill-rule:nonzero;fill:rgb(0%,0%,0%);fill-opacity:1;" d="M 89.300781 70.5 C 75.398438 74.800781 65.398438 86.300781 63.199219 100.5 C 62.101562 107.398438 63 110.699219 66.199219 111.898438 C 71.101562 113.699219 74.398438 110.800781 75.300781 103.699219 C 76.898438 91.800781 85.398438 83.300781 97.5 81.5 C 103.398438 80.699219 106 78.699219 106 75 C 106 69.300781 99 67.398438 89.300781 70.5 Z M 89.300781 70.5 "/>
<path style=" stroke:none;fill-rule:nonzero;fill:rgb(0%,0%,0%);fill-opacity:1;" d="M 127.199219 101.800781 C 126.101562 102.898438 125.101562 105.800781 124.699219 108.800781 C 123.300781 120.898438 115.101562 128.898438 102.199219 131.101562 C 96.199219 132 94 133.800781 94 137.699219 C 94 140.5 97.300781 144 100 144 C 103.699219 144 112.5 141.699219 116.5 139.699219 C 121.601562 137.199219 125.699219 133.800781 129.699219 128.800781 C 136.199219 120.699219 139.300781 106.199219 135.5 102 C 133.199219 99.5 129.601562 99.398438 127.199219 101.800781 Z M 127.199219 101.800781 "/>
</g>
</svg>
