<?xml version="1.0" encoding="UTF-8"?>
<svg xmlns="http://www.w3.org/2000/svg" xmlns:xlink="http://www.w3.org/1999/xlink" width="200pt" height="200pt" viewBox="0 0 200 200" version="1.1">
<g id="surface1">
<path style=" stroke:none;fill-rule:nonzero;fill:rgb(0%,0%,0%);fill-opacity:1;" d="M 27.246094 0.214844 C 20.566406 1.054688 14.0625 4.296875 9.179688 9.179688 C 4.746094 13.613281 1.972656 18.789062 0.546875 25.253906 L 0.0976562 27.246094 L 0.0976562 110.253906 L 0.546875 112.246094 C 1.542969 116.777344 3.359375 120.976562 5.800781 124.414062 C 7.5 126.777344 10.722656 130 13.085938 131.699219 C 16.484375 134.101562 20.644531 135.917969 25.15625 136.953125 C 27.03125 137.382812 27.246094 137.382812 47.324219 137.441406 C 58.457031 137.480469 67.578125 137.558594 67.578125 137.617188 C 67.578125 137.65625 66.660156 143.242188 65.527344 150 C 64.394531 156.757812 63.476562 162.34375 63.476562 162.382812 C 63.476562 162.441406 60.078125 162.5 55.917969 162.539062 C 48.613281 162.597656 48.300781 162.617188 47.421875 163.027344 C 46.25 163.574219 44.804688 165 44.277344 166.171875 C 43.671875 167.460938 43.671875 170.039062 44.277344 171.328125 C 44.804688 172.5 46.25 173.925781 47.421875 174.472656 C 48.320312 174.902344 48.457031 174.902344 59.472656 174.902344 L 70.605469 174.902344 L 71.445312 174.453125 C 72.695312 173.789062 73.730469 172.773438 74.296875 171.621094 C 74.746094 170.742188 75.195312 168.359375 77.539062 154.140625 C 79.042969 145.097656 80.273438 137.65625 80.273438 137.617188 C 80.273438 137.558594 82.265625 137.5 84.726562 137.460938 C 88.789062 137.402344 89.238281 137.363281 90.078125 136.972656 C 91.25 136.425781 92.695312 135 93.222656 133.828125 C 93.828125 132.539062 93.828125 129.960938 93.222656 128.671875 C 92.695312 127.5 91.25 126.074219 90.078125 125.527344 L 89.160156 125.097656 L 28.222656 124.902344 L 26.660156 124.453125 C 24.648438 123.90625 21.523438 122.382812 20 121.210938 C 18.632812 120.195312 16.738281 118.222656 15.839844 116.914062 C 15.175781 115.957031 13.671875 113.027344 13.671875 112.714844 C 13.671875 112.558594 28.222656 112.480469 60.800781 112.460938 L 107.910156 112.402344 L 108.828125 111.972656 C 110 111.425781 111.445312 110 111.972656 108.828125 C 112.578125 107.539062 112.578125 104.960938 111.972656 103.671875 C 111.445312 102.5 110 101.074219 108.828125 100.527344 L 107.910156 100.097656 L 60.195312 100.039062 L 12.5 100 L 12.539062 64.101562 L 12.597656 28.222656 L 13.027344 26.699219 C 14.042969 23.125 15.488281 20.644531 18.066406 18.066406 C 20.683594 15.449219 23.242188 13.984375 26.796875 13.027344 L 28.417969 12.597656 L 171.582031 12.597656 L 173.203125 13.027344 C 176.757812 13.984375 179.316406 15.449219 181.933594 18.066406 C 184.511719 20.644531 185.957031 23.125 186.972656 26.699219 L 187.402344 28.222656 L 187.597656 107.910156 L 188.027344 108.828125 C 188.574219 110 190 111.445312 191.171875 111.972656 C 192.460938 112.578125 195.039062 112.578125 196.328125 111.972656 C 197.5 111.445312 198.925781 110 199.472656 108.828125 L 199.902344 107.910156 L 199.902344 27.246094 L 199.453125 25.253906 C 198.457031 20.722656 196.640625 16.523438 194.199219 13.085938 C 192.5 10.722656 189.277344 7.5 186.914062 5.800781 C 183.515625 3.398438 179.394531 1.601562 174.84375 0.546875 L 172.949219 0.0976562 L 100.78125 0.078125 C 59.902344 0.0585938 28.027344 0.117188 27.246094 0.214844 Z M 27.246094 0.214844 "/>
<path style=" stroke:none;fill-rule:nonzero;fill:rgb(0%,0%,0%);fill-opacity:1;" d="M 140.3125 87.773438 C 137.128906 88.378906 134.765625 89.316406 132.265625 90.9375 C 130.332031 92.1875 127.597656 94.84375 126.425781 96.601562 C 125.976562 97.246094 117.304688 114.433594 107.128906 134.785156 C 85.9375 177.226562 87.617188 173.378906 87.617188 179.003906 C 87.636719 181.757812 87.695312 182.578125 88.027344 183.789062 C 89.21875 188.125 90.742188 190.78125 93.730469 193.769531 C 96.738281 196.777344 99.453125 198.320312 103.808594 199.492188 L 105.371094 199.902344 L 182.128906 199.902344 L 183.691406 199.492188 C 188.046875 198.320312 190.761719 196.777344 193.769531 193.769531 C 196.757812 190.78125 198.28125 188.125 199.472656 183.789062 C 199.804688 182.578125 199.863281 181.757812 199.882812 179.003906 C 199.882812 173.378906 201.5625 177.226562 180.371094 134.785156 C 170.195312 114.433594 161.523438 97.246094 161.074219 96.601562 C 159.902344 94.84375 157.167969 92.1875 155.234375 90.9375 C 151.835938 88.730469 148.515625 87.695312 144.335938 87.578125 C 142.636719 87.539062 141.210938 87.597656 140.3125 87.773438 Z M 145.800781 100.292969 C 147.382812 100.703125 148.652344 101.445312 149.84375 102.617188 C 150.761719 103.535156 152.167969 106.289062 168.984375 139.941406 C 189.042969 180.078125 187.832031 177.421875 187.34375 180.273438 C 186.738281 183.789062 184.121094 186.5625 180.703125 187.285156 C 179.238281 187.597656 108.261719 187.597656 106.796875 187.285156 C 103.378906 186.5625 100.761719 183.789062 100.15625 180.273438 C 99.667969 177.421875 98.457031 180.078125 118.515625 139.941406 C 135.332031 106.289062 136.738281 103.535156 137.65625 102.617188 C 139.882812 100.390625 142.890625 99.550781 145.800781 100.292969 Z M 145.800781 100.292969 "/>
<path style=" stroke:none;fill-rule:nonzero;fill:rgb(0%,0%,0%);fill-opacity:1;" d="M 141.679688 119.101562 C 139.707031 119.804688 138.105469 121.582031 137.695312 123.496094 C 137.539062 124.199219 137.5 128.632812 137.539062 138.085938 C 137.597656 151.542969 137.597656 151.660156 138.027344 152.578125 C 138.574219 153.75 140 155.195312 141.171875 155.722656 C 142.460938 156.328125 145.039062 156.328125 146.328125 155.722656 C 147.5 155.195312 148.925781 153.75 149.472656 152.578125 C 149.902344 151.660156 149.902344 151.621094 149.902344 137.5 C 149.902344 123.378906 149.902344 123.339844 149.472656 122.421875 C 148.925781 121.230469 147.5 119.804688 146.328125 119.296875 C 145.039062 118.710938 142.96875 118.632812 141.679688 119.101562 Z M 141.679688 119.101562 "/>
<path style=" stroke:none;fill-rule:nonzero;fill:rgb(0%,0%,0%);fill-opacity:1;" d="M 141.40625 162.8125 C 139.609375 163.300781 138.632812 163.867188 137.1875 165.3125 C 135.292969 167.226562 134.375 169.355469 134.375 171.875 C 134.375 174.394531 135.292969 176.523438 137.1875 178.4375 C 139.101562 180.332031 141.230469 181.25 143.75 181.25 C 146.269531 181.25 148.398438 180.332031 150.3125 178.4375 C 151.777344 176.953125 152.34375 175.996094 152.832031 174.121094 C 153.359375 172.03125 153.105469 169.6875 152.109375 167.578125 C 151.5625 166.445312 149.179688 164.0625 148.046875 163.515625 C 145.9375 162.519531 143.476562 162.265625 141.40625 162.8125 Z M 141.40625 162.8125 "/>
</g>
</svg>
