<?xml version="1.0" encoding="UTF-8"?>
<svg xmlns="http://www.w3.org/2000/svg" xmlns:xlink="http://www.w3.org/1999/xlink" width="200pt" height="200pt" viewBox="0 0 200 200" version="1.1">
<g id="surface1">
<path style=" stroke:none;fill-rule:nonzero;fill:rgb(0%,0%,0%);fill-opacity:1;" d="M 48 2.199219 C 45.398438 3.601562 42.300781 6.300781 40.601562 8.800781 L 37.601562 13 L 37.199219 31.398438 L 36.800781 49.800781 L 24.398438 50.199219 C 10.800781 50.5 9.5 51 3.601562 58.398438 L 0.5 62.199219 L 0.5 137.800781 L 3.601562 141.699219 C 9.199219 148.601562 12.898438 150 25.699219 150 L 36.898438 150 L 37.199219 172.898438 C 37.601562 202.199219 36 200 56.398438 200 C 64.699219 200 72 199.601562 72.601562 199.199219 C 75.199219 197.5 76.101562 194.101562 74.800781 191.300781 C 73.199219 187.898438 70.699219 187.199219 59.300781 187.101562 L 50 187 L 50 113 L 64.800781 113 C 92 112.898438 95.601562 112.699219 97.898438 110.601562 C 100.5 108.199219 100.601562 104.601562 98 102 C 96.101562 100.101562 94.699219 100 68.699219 100 C 42.101562 100 41.300781 100.101562 39.398438 102.101562 C 37.699219 104 37.5 106.199219 37.199219 120.601562 L 36.800781 137 L 26.800781 137 C 21.398438 137 16 136.5 14.898438 136 C 13.101562 135 13 133.5 13 100 C 13 66.5 13.101562 65 14.898438 64 C 18 62.398438 183.101562 62.601562 185.300781 64.199219 C 186.699219 65.300781 187 68.800781 187.199219 93.101562 C 187.5 118.699219 187.601562 121 189.398438 122.898438 C 191.800781 125.601562 195.398438 125.601562 198 123 C 200 121 200.101562 120 199.800781 91.5 L 199.5 62.199219 L 196.398438 58.398438 C 190.5 51 189.199219 50.5 175.601562 50.199219 L 163.199219 49.800781 L 162.800781 31.398438 L 162.398438 13 L 159.398438 8.800781 C 157.699219 6.300781 154.601562 3.601562 152 2.199219 C 147.601562 0 147.398438 0 100 0 C 52.601562 0 52.398438 0 48 2.199219 Z M 148.398438 15.199219 C 149.699219 17 150 20.601562 150 33.699219 L 150 50 L 50 50 L 50 33.699219 C 50 20.601562 50.300781 17 51.601562 15.199219 L 53.101562 13 L 146.898438 13 Z M 148.398438 15.199219 "/>
<path style=" stroke:none;fill-rule:nonzero;fill:rgb(0%,0%,0%);fill-opacity:1;" d="M 27 77 C 22 82 26.101562 87.5 34.699219 87.5 C 39.199219 87.5 40.5 87.101562 42.101562 85.101562 C 44.5 82.101562 44.5 80.898438 41.898438 77.601562 C 40.101562 75.398438 39.101562 75 34.398438 75 C 30.300781 75 28.5 75.5 27 77 Z M 27 77 "/>
<path style=" stroke:none;fill-rule:nonzero;fill:rgb(0%,0%,0%);fill-opacity:1;" d="M 133.398438 90.601562 C 131.300781 92 128.699219 94.199219 127.699219 95.300781 C 124.800781 98.898438 89.101562 170.601562 88.101562 174.898438 C 86.199219 183.398438 90.398438 192.601562 98.300781 197.101562 L 102.5 199.5 L 141.898438 199.800781 C 175.898438 200 181.898438 199.898438 186.101562 198.5 C 194.199219 195.800781 200 187.5 200 178.601562 C 200 174.800781 197.199219 168.5 181.101562 136.300781 C 170.699219 115.5 161 97 159.5 95.199219 C 153.199219 87.699219 141 85.5 133.398438 90.601562 Z M 148.101562 101 C 150.898438 102.601562 187 175 187 179.199219 C 187 181.101562 186.101562 183.300781 184.800781 184.699219 L 182.699219 187 L 104.101562 187 L 102.101562 184.398438 C 100.898438 182.898438 100 180.699219 100 179.398438 C 100 175.898438 136.5 103.5 139.199219 101.601562 C 141.800781 99.800781 145.300781 99.5 148.101562 101 Z M 148.101562 101 "/>
<path style=" stroke:none;fill-rule:nonzero;fill:rgb(0%,0%,0%);fill-opacity:1;" d="M 139.601562 120.5 C 137.398438 122.800781 136.800781 127.398438 137.199219 140.300781 C 137.5 153.101562 138.800781 156 144.101562 156 C 149.101562 156 150 153.300781 150 137.5 C 150 126.398438 149.699219 123 148.398438 121.199219 C 146.601562 118.601562 141.898438 118.199219 139.601562 120.5 Z M 139.601562 120.5 "/>
<path style=" stroke:none;fill-rule:nonzero;fill:rgb(0%,0%,0%);fill-opacity:1;" d="M 138.699219 164.101562 C 137.601562 164.699219 136.199219 166.699219 135.398438 168.5 C 131.5 177.800781 142.898438 185.300781 150.101562 178.101562 C 154.199219 174 153.800781 167.898438 149.101562 164.300781 C 147.101562 162.800781 141.101562 162.699219 138.699219 164.101562 Z M 138.699219 164.101562 "/>
</g>
</svg>
