<?xml version="1.0" encoding="UTF-8"?>
<svg xmlns="http://www.w3.org/2000/svg" xmlns:xlink="http://www.w3.org/1999/xlink" width="200pt" height="200pt" viewBox="0 0 200 200" version="1.1">
<g id="surface1">
<path style=" stroke:none;fill-rule:nonzero;fill:rgb(0%,0%,0%);fill-opacity:1;" d="M 48 2.199219 C 45.398438 3.601562 42.300781 6.300781 40.601562 8.800781 L 37.601562 13 L 37.199219 31.398438 L 36.800781 49.800781 L 24.398438 50.199219 C 10.800781 50.5 9.5 51 3.601562 58.398438 L 0.5 62.199219 L 0.5 137.800781 L 3.601562 141.699219 C 9.199219 148.601562 12.898438 150 25.699219 150 L 36.898438 150 L 37.199219 172.898438 C 37.5 193.800781 37.699219 196 39.398438 197.898438 C 41.300781 200 42 200 77.898438 200 C 98 200 115 199.601562 115.601562 199.199219 C 116.199219 198.800781 117.199219 197.5 117.898438 196.199219 C 119.5 193.199219 117.398438 188.800781 114 187.898438 C 112.601562 187.5 97.699219 187.199219 80.800781 187.101562 L 50 187 L 50 113.199219 L 60.398438 112.800781 C 68.898438 112.5 71.199219 112.101562 72.898438 110.601562 C 75.5 108.199219 75.601562 104.601562 73 102 C 71.199219 100.199219 69.699219 100 56.199219 100 C 36.5 100 37.601562 98.800781 37.199219 120.601562 L 36.800781 137 L 26.800781 137 C 21.398438 137 16 136.5 14.898438 136 C 13.101562 135 13 133.5 13 100 C 13 66.5 13.101562 65 14.898438 64 C 18 62.398438 183.101562 62.601562 185.300781 64.199219 C 186.699219 65.300781 187 68.800781 187.199219 93.101562 C 187.5 118.699219 187.601562 121 189.398438 122.898438 C 191.800781 125.601562 195.398438 125.601562 198 123 C 200 121 200.101562 120 199.800781 91.5 L 199.5 62.199219 L 196.398438 58.398438 C 190.5 51 189.199219 50.5 175.601562 50.199219 L 163.199219 49.800781 L 162.800781 31.398438 L 162.398438 13 L 159.398438 8.800781 C 157.699219 6.300781 154.601562 3.601562 152 2.199219 C 147.601562 0 147.398438 0 100 0 C 52.601562 0 52.398438 0 48 2.199219 Z M 148.398438 15.199219 C 149.699219 17 150 20.601562 150 33.699219 L 150 50 L 50 50 L 50 33.699219 C 50 20.601562 50.300781 17 51.601562 15.199219 L 53.101562 13 L 146.898438 13 Z M 148.398438 15.199219 "/>
<path style=" stroke:none;fill-rule:nonzero;fill:rgb(0%,0%,0%);fill-opacity:1;" d="M 27 77 C 22 82 26.101562 87.5 34.699219 87.5 C 39.199219 87.5 40.5 87.101562 42.101562 85.101562 C 44.5 82.101562 44.5 80.898438 41.898438 77.601562 C 40.101562 75.398438 39.101562 75 34.398438 75 C 30.300781 75 28.5 75.5 27 77 Z M 27 77 "/>
<path style=" stroke:none;fill-rule:nonzero;fill:rgb(0%,0%,0%);fill-opacity:1;" d="M 120.300781 82.5 C 101.300781 86.601562 85.300781 103.699219 82 123.101562 C 79.300781 139.101562 84.300781 154.5 95.898438 166 C 106.398438 176.398438 117.300781 181 131.5 181 C 140.101562 181 147.300781 179 155.898438 174.300781 L 162.300781 170.898438 L 176.898438 185.398438 C 192.300781 200.699219 194.101562 201.898438 198 198 C 201.800781 194.199219 200.699219 192.300781 185.398438 176.898438 L 170.800781 162.199219 L 173.398438 158.101562 C 180 147.699219 182.601562 133.101562 180.101562 120.898438 C 176.101562 101.5 159.398438 85.398438 139.898438 82.101562 C 131.699219 80.699219 128.199219 80.800781 120.300781 82.5 Z M 146.5 97.300781 C 153.601562 100.601562 161.300781 107.699219 164.5 114.101562 C 169.699219 124.101562 169.800781 137.699219 164.800781 147.699219 C 161.800781 153.699219 153.5 162.101562 147.699219 164.898438 C 134 171.5 116.5 168.800781 105.699219 158.199219 C 96.800781 149.5 93.398438 140.800781 94.199219 128.699219 C 95.199219 113.398438 104.300781 101.398438 119.101562 96 C 127 93 138.5 93.601562 146.5 97.300781 Z M 146.5 97.300781 "/>
</g>
</svg>
