<?xml version="1.0" encoding="UTF-8"?>
<svg xmlns="http://www.w3.org/2000/svg" xmlns:xlink="http://www.w3.org/1999/xlink" width="200pt" height="200pt" viewBox="0 0 200 200" version="1.1">
<g id="surface1">
<path style=" stroke:none;fill-rule:nonzero;fill:rgb(0%,0%,0%);fill-opacity:1;" d="M 47.890625 10.546875 C 44.824219 11.113281 41.933594 12.910156 39.921875 15.527344 C 38.085938 17.929688 32.519531 25.898438 28.710938 31.640625 C 11.386719 57.617188 1.972656 76.816406 0.273438 89.726562 C -0.0976562 92.558594 -0.0195312 97.363281 0.488281 100.78125 C 0.898438 103.59375 2.089844 108.300781 3.027344 110.859375 C 4.140625 113.925781 6.445312 118.417969 8.359375 121.289062 C 15.058594 131.386719 25.273438 138.769531 36.835938 141.894531 C 37.890625 142.1875 38.789062 142.441406 38.828125 142.480469 C 38.847656 142.5 39.179688 143.652344 39.550781 145.039062 C 41.972656 154.21875 46.269531 162.460938 52.441406 169.726562 C 54.414062 172.03125 58.710938 176.191406 61.035156 178.046875 C 70.390625 185.449219 81.25 189.941406 93.164062 191.308594 C 96.621094 191.699219 103.378906 191.699219 106.835938 191.308594 C 124.414062 189.277344 139.824219 180.371094 150.429688 166.074219 C 154.960938 159.980469 158.4375 152.695312 160.449219 145.039062 C 160.820312 143.652344 161.152344 142.5 161.171875 142.480469 C 161.210938 142.441406 162.109375 142.1875 163.164062 141.894531 C 176.855469 138.183594 188.574219 128.515625 194.824219 115.722656 C 196.621094 112.070312 197.480469 109.726562 198.4375 105.976562 C 199.414062 102.109375 199.804688 99.257812 199.941406 95.3125 C 200.058594 91.445312 199.746094 88.671875 198.710938 84.589844 C 195.078125 70.136719 183.417969 48.671875 164.550781 21.777344 C 159.980469 15.234375 159.082031 14.121094 157.519531 12.929688 C 151.972656 8.75 144.257812 9.882812 139.921875 15.527344 C 136.816406 19.589844 126.757812 34.335938 123.046875 40.292969 C 121.777344 42.324219 121.328125 42.890625 121.171875 42.714844 C 121.035156 42.578125 119.902344 40.976562 118.652344 39.160156 C 114.238281 32.773438 111.054688 28.417969 109.980469 27.285156 C 105.058594 22.089844 97.03125 21.464844 91.113281 25.820312 C 89.296875 27.167969 87.929688 28.925781 81.542969 38.183594 C 80.078125 40.332031 78.75 42.207031 78.632812 42.34375 C 78.4375 42.539062 78.085938 42.089844 76.953125 40.292969 C 73.125 34.179688 63.320312 19.785156 60.117188 15.566406 C 58.339844 13.242188 56.542969 11.933594 53.867188 11.054688 C 52.167969 10.46875 49.550781 10.253906 47.890625 10.546875 Z M 50.703125 23.886719 C 56.035156 31.152344 69.414062 51.328125 70.546875 53.789062 C 70.722656 54.21875 70.449219 54.726562 67.832031 58.925781 C 60.449219 70.664062 54.921875 80.371094 49.941406 90.332031 C 42.089844 106.054688 38.125 117.832031 37.558594 126.992188 C 37.5 128.046875 37.382812 128.90625 37.304688 128.90625 C 37.03125 128.90625 34.648438 127.871094 33.027344 127.050781 C 29.296875 125.175781 26.035156 122.714844 22.851562 119.394531 C 17.636719 113.945312 14.414062 107.539062 13.046875 100 C 12.460938 96.660156 12.460938 91.816406 13.046875 89.0625 C 15.78125 76.523438 27.5 54.921875 45.46875 29.296875 C 49.257812 23.90625 49.863281 23.066406 50 23.066406 C 50.058594 23.066406 50.371094 23.4375 50.703125 23.886719 Z M 150.46875 23.574219 C 152.421875 26.230469 156.777344 32.5 159.6875 36.816406 C 172.792969 56.289062 181.601562 72.304688 185.351562 83.59375 C 187.089844 88.789062 187.402344 90.429688 187.363281 94.433594 C 187.304688 103.808594 183.769531 112.480469 177.148438 119.394531 C 173.964844 122.714844 170.703125 125.175781 166.972656 127.050781 C 165.351562 127.871094 162.96875 128.90625 162.695312 128.90625 C 162.617188 128.90625 162.5 128.007812 162.441406 126.894531 C 161.542969 112.539062 151.40625 89.980469 132.285156 59.707031 C 130.527344 56.933594 129.101562 54.570312 129.101562 54.472656 C 129.101562 54.277344 131.445312 50.429688 134.335938 45.898438 C 139.199219 38.28125 149.628906 23.066406 150 23.066406 C 150.058594 23.066406 150.273438 23.300781 150.46875 23.574219 Z M 100.722656 35.722656 C 101.289062 36.015625 111.074219 50.097656 116.621094 58.59375 C 136.621094 89.238281 147.753906 111.875 149.726562 125.957031 C 150.097656 128.554688 150 132.304688 149.492188 135.976562 C 147.304688 151.953125 137.480469 165.957031 123.203125 173.4375 C 102.695312 184.160156 77.285156 179.355469 62.265625 161.914062 C 54.335938 152.714844 50.136719 141.582031 50.117188 129.785156 C 50.117188 126.503906 50.175781 125.78125 50.664062 123.476562 C 52.1875 116.015625 55.488281 107.441406 61.25 95.898438 C 66.894531 84.609375 72.988281 74.101562 82.324219 59.570312 C 86.796875 52.597656 96.25 38.769531 98.164062 36.386719 C 98.964844 35.410156 99.746094 35.195312 100.722656 35.722656 Z M 100.722656 35.722656 "/>
</g>
</svg>
