<?xml version="1.0" encoding="UTF-8"?>
<svg xmlns="http://www.w3.org/2000/svg" xmlns:xlink="http://www.w3.org/1999/xlink" width="200pt" height="200pt" viewBox="0 0 200 200" version="1.1">
<g id="surface1">
<path style=" stroke:none;fill-rule:nonzero;fill:rgb(0%,0%,0%);fill-opacity:1;" d="M 27.246094 0.214844 C 20.566406 1.054688 14.0625 4.296875 9.179688 9.179688 C 4.746094 13.613281 1.972656 18.789062 0.546875 25.253906 L 0.0976562 27.246094 L 0.0976562 110.253906 L 0.546875 112.246094 C 1.542969 116.777344 3.359375 120.976562 5.800781 124.414062 C 7.5 126.777344 10.722656 130 13.085938 131.699219 C 16.484375 134.101562 20.644531 135.917969 25.15625 136.953125 C 27.03125 137.382812 27.246094 137.382812 47.324219 137.441406 C 58.457031 137.480469 67.578125 137.558594 67.578125 137.617188 C 67.578125 137.65625 66.660156 143.242188 65.527344 150 C 64.394531 156.757812 63.476562 162.34375 63.476562 162.382812 C 63.476562 162.441406 60.078125 162.5 55.917969 162.539062 C 48.613281 162.597656 48.300781 162.617188 47.421875 163.027344 C 46.25 163.574219 44.804688 165 44.277344 166.171875 C 43.671875 167.460938 43.671875 170.039062 44.277344 171.328125 C 44.804688 172.5 46.25 173.925781 47.421875 174.472656 C 48.320312 174.902344 48.457031 174.902344 59.472656 174.902344 L 70.605469 174.902344 L 71.445312 174.453125 C 71.914062 174.199219 72.617188 173.710938 73.027344 173.320312 C 74.648438 171.875 74.511719 172.441406 78.046875 151.171875 C 80.585938 135.976562 81.269531 131.484375 81.191406 130.546875 C 81.035156 128.496094 79.746094 126.640625 77.695312 125.546875 L 76.855469 125.097656 L 28.222656 124.902344 L 26.660156 124.453125 C 24.648438 123.90625 21.523438 122.382812 20 121.210938 C 18.632812 120.195312 16.738281 118.222656 15.839844 116.914062 C 15.175781 115.957031 13.671875 113.027344 13.671875 112.714844 C 13.671875 112.558594 24.492188 112.480469 48.398438 112.460938 L 83.105469 112.402344 L 84.003906 111.992188 C 85.351562 111.367188 86.503906 110.214844 87.148438 108.886719 C 88.28125 106.484375 87.695312 103.4375 85.742188 101.679688 C 85.292969 101.269531 84.511719 100.742188 84.003906 100.507812 L 83.105469 100.097656 L 47.792969 100.039062 L 12.5 100 L 12.539062 64.101562 L 12.597656 28.222656 L 13.027344 26.699219 C 14.042969 23.125 15.488281 20.644531 18.066406 18.066406 C 20.683594 15.449219 23.242188 13.984375 26.796875 13.027344 L 28.417969 12.597656 L 171.582031 12.597656 L 173.203125 13.027344 C 176.757812 13.984375 179.316406 15.449219 181.933594 18.066406 C 184.511719 20.644531 185.957031 23.125 186.972656 26.699219 L 187.402344 28.222656 L 187.597656 95.410156 L 188.027344 96.328125 C 188.574219 97.5 190 98.945312 191.171875 99.472656 C 192.460938 100.078125 195.039062 100.078125 196.328125 99.472656 C 197.5 98.945312 198.925781 97.5 199.472656 96.328125 L 199.902344 95.410156 L 199.902344 27.246094 L 199.453125 25.253906 C 198.457031 20.722656 196.640625 16.523438 194.199219 13.085938 C 192.5 10.722656 189.277344 7.5 186.914062 5.800781 C 183.515625 3.398438 179.394531 1.601562 174.84375 0.546875 L 172.949219 0.0976562 L 100.78125 0.078125 C 59.902344 0.0585938 28.027344 0.117188 27.246094 0.214844 Z M 27.246094 0.214844 "/>
<path style=" stroke:none;fill-rule:nonzero;fill:rgb(0%,0%,0%);fill-opacity:1;" d="M 137.695312 87.8125 C 127.65625 88.90625 117.851562 92.792969 109.84375 98.867188 C 97.363281 108.339844 89.433594 122.382812 87.792969 137.96875 C 86.328125 152.03125 90.332031 166.386719 98.867188 177.65625 C 108.339844 190.136719 122.382812 198.066406 137.96875 199.707031 C 152.011719 201.171875 166.386719 197.167969 177.65625 188.632812 C 191.738281 177.949219 200 161.367188 200 143.75 C 200 131.542969 195.976562 119.53125 188.632812 109.84375 C 179.179688 97.363281 165.117188 89.433594 149.53125 87.792969 C 146.113281 87.441406 141.035156 87.441406 137.695312 87.8125 Z M 150.195312 100.488281 C 162.519531 102.34375 173.457031 109.355469 180.3125 119.824219 C 183.847656 125.195312 186.054688 131.015625 187.050781 137.5 C 187.519531 140.585938 187.519531 146.914062 187.050781 150 C 185.136719 162.578125 178.183594 173.4375 167.675781 180.3125 C 162.304688 183.847656 156.484375 186.054688 150 187.050781 C 146.914062 187.519531 140.585938 187.519531 137.5 187.050781 C 124.921875 185.136719 114.082031 178.203125 107.1875 167.675781 C 103.652344 162.304688 101.445312 156.484375 100.449219 150 C 99.980469 146.914062 99.980469 140.585938 100.449219 137.5 C 102.363281 124.921875 109.316406 114.0625 119.824219 107.1875 C 126.015625 103.125 132.734375 100.820312 140.429688 100.117188 C 142.167969 99.960938 148.183594 100.195312 150.195312 100.488281 Z M 150.195312 100.488281 "/>
<path style=" stroke:none;fill-rule:nonzero;fill:rgb(0%,0%,0%);fill-opacity:1;" d="M 123.085938 119.023438 C 120.351562 119.921875 118.574219 122.597656 118.789062 125.488281 C 118.984375 127.832031 119.082031 127.949219 127.304688 136.171875 L 134.84375 143.75 L 127.226562 151.40625 C 118.613281 160.058594 118.847656 159.746094 118.847656 162.597656 C 118.867188 164.511719 119.296875 165.605469 120.605469 166.894531 C 121.894531 168.203125 122.988281 168.632812 124.902344 168.652344 C 127.753906 168.652344 127.441406 168.886719 136.09375 160.273438 L 143.75 152.65625 L 151.425781 160.273438 C 160.058594 168.886719 159.746094 168.652344 162.597656 168.652344 C 164.511719 168.632812 165.605469 168.203125 166.894531 166.894531 C 168.203125 165.605469 168.632812 164.511719 168.652344 162.597656 C 168.652344 159.746094 168.886719 160.058594 160.273438 151.40625 L 152.65625 143.75 L 160.273438 136.074219 C 168.886719 127.441406 168.652344 127.753906 168.652344 124.902344 C 168.632812 122.988281 168.203125 121.894531 166.894531 120.605469 C 165.605469 119.296875 164.511719 118.867188 162.597656 118.847656 C 159.746094 118.847656 160.058594 118.613281 151.40625 127.226562 L 143.75 134.84375 L 136.171875 127.304688 C 130.058594 121.191406 128.417969 119.667969 127.636719 119.316406 C 126.425781 118.769531 124.277344 118.632812 123.085938 119.023438 Z M 123.085938 119.023438 "/>
</g>
</svg>
