<?xml version="1.0" encoding="UTF-8"?>
<svg xmlns="http://www.w3.org/2000/svg" xmlns:xlink="http://www.w3.org/1999/xlink" width="200pt" height="200pt" viewBox="0 0 200 200" version="1.1">
<g id="surface1">
<path style=" stroke:none;fill-rule:nonzero;fill:rgb(0%,0%,0%);fill-opacity:1;" d="M 48 2.199219 C 45.398438 3.601562 42.300781 6.300781 40.601562 8.800781 L 37.601562 13 L 37.199219 31.398438 L 36.800781 49.800781 L 24.398438 50.199219 C 10.800781 50.5 9.5 51 3.601562 58.398438 L 0.5 62.199219 L 0.5 137.800781 L 3.601562 141.699219 C 9.199219 148.601562 12.898438 150 25.699219 150 L 36.898438 150 L 37.199219 172.898438 C 37.5 193.800781 37.699219 196 39.398438 197.898438 C 41.199219 199.898438 42.199219 200 61.898438 200 C 73.199219 200 83 199.601562 83.601562 199.199219 C 86.199219 197.5 87.101562 194.101562 85.800781 191.300781 C 84 187.601562 81.898438 187.199219 64.800781 187.101562 L 50 187 L 50 113.199219 L 66.398438 112.800781 C 80.800781 112.5 83 112.300781 84.898438 110.601562 C 87.5 108.199219 87.601562 104.601562 85 102 C 83.101562 100.101562 81.699219 100 62.199219 100 C 35.601562 100 37.601562 98.300781 37.199219 120.601562 L 36.800781 137 L 26.800781 137 C 21.398438 137 16 136.5 14.898438 136 C 13.101562 135 13 133.5 13 100 C 13 66.5 13.101562 65 14.898438 64 C 17.601562 62.601562 182.398438 62.601562 185.101562 64 C 186.800781 65 187 66.300781 187 78.898438 C 187 92 187.101562 92.800781 189.300781 94.800781 C 192.199219 97.601562 195.398438 97.601562 198.101562 94.898438 C 200 93 200.101562 91.898438 199.800781 77.5 L 199.5 62.199219 L 196.398438 58.398438 C 190.5 51 189.199219 50.5 175.601562 50.199219 L 163.199219 49.800781 L 162.800781 31.398438 L 162.398438 13 L 159.398438 8.800781 C 157.699219 6.300781 154.601562 3.601562 152 2.199219 C 147.601562 0 147.398438 0 100 0 C 52.601562 0 52.398438 0 48 2.199219 Z M 148.398438 15.199219 C 149.699219 17 150 20.601562 150 33.699219 L 150 50 L 50 50 L 50 33.699219 C 50 20.601562 50.300781 17 51.601562 15.199219 L 53.101562 13 L 146.898438 13 Z M 148.398438 15.199219 "/>
<path style=" stroke:none;fill-rule:nonzero;fill:rgb(0%,0%,0%);fill-opacity:1;" d="M 27 77 C 22 82 26.101562 87.5 34.699219 87.5 C 39.199219 87.5 40.5 87.101562 42.101562 85.101562 C 44.5 82.101562 44.5 80.898438 41.898438 77.601562 C 40.101562 75.398438 39.101562 75 34.398438 75 C 30.300781 75 28.5 75.5 27 77 Z M 27 77 "/>
<path style=" stroke:none;fill-rule:nonzero;fill:rgb(0%,0%,0%);fill-opacity:1;" d="M 128.101562 89.601562 C 119.398438 91.898438 113 95.898438 104.398438 104.5 C 92.199219 116.601562 88 126.699219 88 144.101562 C 88 155.5 90.101562 163.5 95.5 172.5 C 107.601562 192.699219 130.300781 203 153.699219 199 C 174.800781 195.5 194.101562 177.101562 198.5 156.300781 C 201.398438 142.601562 199.300781 127.601562 192.800781 116.101562 C 186.199219 104.398438 172.300781 93.5 159.101562 89.601562 C 152.199219 87.601562 135.5 87.601562 128.101562 89.601562 Z M 154.300781 101.5 C 161.898438 103.5 166.5 105.898438 172.398438 111.101562 C 182.199219 119.800781 187 130.398438 187 143.398438 C 187 151.601562 185.601562 158.101562 182.398438 164.101562 C 177.601562 173.5 166.601562 182.5 156.601562 185.398438 C 149.5 187.5 136.699219 187.5 130.398438 185.300781 C 109.898438 178.398438 97.300781 157.699219 100.898438 136.601562 C 105.199219 111.5 130.101562 95.199219 154.300781 101.5 Z M 154.300781 101.5 "/>
<path style=" stroke:none;fill-rule:nonzero;fill:rgb(0%,0%,0%);fill-opacity:1;" d="M 162.199219 124.699219 C 161.101562 125.699219 155.398438 133 149.5 141 C 143.601562 149 138.300781 155.898438 137.800781 156.5 C 137.300781 157 134.5 155 130.699219 151.300781 C 123.199219 143.898438 121 142.699219 117.699219 143.898438 C 115.101562 144.898438 114 146.800781 114 150.398438 C 114 152.601562 127.5 166.699219 131.699219 168.898438 C 134.898438 170.5 140.101562 170.199219 143.199219 168.199219 C 144.800781 167.300781 151.800781 158.699219 159 149.101562 C 172.800781 130.5 174.101562 127.601562 169.800781 124.601562 C 166.898438 122.5 164.699219 122.601562 162.199219 124.699219 Z M 162.199219 124.699219 "/>
</g>
</svg>
