<?xml version="1.0" encoding="UTF-8"?>
<svg xmlns="http://www.w3.org/2000/svg" xmlns:xlink="http://www.w3.org/1999/xlink" width="200pt" height="200pt" viewBox="0 0 200 200" version="1.1">
<g id="surface1">
<path style=" stroke:none;fill-rule:nonzero;fill:rgb(0%,0%,0%);fill-opacity:1;" d="M 15.039062 0.371094 C 11.289062 1.171875 7.949219 3.007812 5.351562 5.703125 C 2.753906 8.378906 1.132812 11.425781 0.371094 15.136719 C 0.0195312 16.835938 0 19.316406 0 87.5 C 0 155.683594 0.0195312 158.164062 0.371094 159.863281 C 1.171875 163.691406 2.96875 167.011719 5.703125 169.648438 C 8.398438 172.265625 11.445312 173.867188 15.175781 174.628906 C 16.894531 174.980469 18.125 175 43.691406 174.960938 L 70.410156 174.902344 L 71.328125 174.472656 C 72.5 173.925781 73.945312 172.5 74.472656 171.328125 C 75.078125 170.039062 75.078125 167.460938 74.472656 166.171875 C 73.945312 165 72.5 163.574219 71.328125 163.027344 L 70.410156 162.597656 L 17.089844 162.402344 L 16.074219 161.875 C 14.785156 161.191406 13.808594 160.214844 13.125 158.925781 L 12.597656 157.910156 L 12.597656 17.089844 L 13.125 16.074219 C 13.808594 14.785156 14.785156 13.808594 16.074219 13.125 L 17.089844 12.597656 L 62.890625 12.597656 C 107.1875 12.597656 108.730469 12.617188 109.667969 12.96875 C 110.527344 13.28125 112.148438 14.824219 123.496094 26.152344 C 134.121094 36.738281 136.425781 39.160156 136.875 40.039062 L 137.402344 41.113281 L 137.5 55.761719 C 137.597656 70.273438 137.597656 70.410156 138.027344 71.328125 C 138.574219 72.5 140 73.945312 141.171875 74.472656 C 142.460938 75.078125 145.039062 75.078125 146.328125 74.472656 C 147.5 73.945312 148.925781 72.5 149.472656 71.328125 C 149.902344 70.410156 149.902344 70.390625 149.902344 55.078125 L 149.902344 39.746094 L 149.453125 38.085938 C 148.886719 35.996094 147.382812 32.890625 146.113281 31.25 C 144.589844 29.257812 119.453125 4.296875 117.988281 3.320312 C 116.347656 2.226562 113.945312 1.113281 112.011719 0.546875 L 110.449219 0.0976562 L 63.574219 0.0585938 C 18.964844 0.0195312 16.621094 0.0390625 15.039062 0.371094 Z M 15.039062 0.371094 "/>
<path style=" stroke:none;fill-rule:nonzero;fill:rgb(0%,0%,0%);fill-opacity:1;" d="M 130.351562 87.792969 C 127.5 88.417969 125.15625 89.707031 123.066406 91.816406 C 121.484375 93.378906 120.566406 94.746094 119.785156 96.679688 C 118.75 99.257812 118.730469 99.609375 118.789062 113.164062 L 118.847656 125.683594 L 119.316406 127.050781 C 120.976562 132.011719 124.414062 135.429688 129.296875 136.953125 L 130.761719 137.402344 L 156.738281 137.402344 L 158.203125 136.953125 C 163.144531 135.410156 166.640625 131.894531 168.203125 126.953125 L 168.652344 125.488281 L 168.652344 99.511719 L 168.203125 98.046875 C 166.679688 93.164062 163.261719 89.726562 158.300781 88.066406 L 156.933594 87.597656 L 144.238281 87.558594 C 134.160156 87.539062 131.289062 87.578125 130.351562 87.792969 Z M 155.605469 100.644531 L 156.152344 101.171875 L 156.152344 123.828125 L 155.605469 124.355469 L 155.078125 124.902344 L 132.421875 124.902344 L 131.894531 124.355469 L 131.347656 123.828125 L 131.347656 112.519531 C 131.347656 101.484375 131.347656 101.210938 131.738281 100.78125 C 131.953125 100.546875 132.304688 100.273438 132.519531 100.175781 C 132.734375 100.097656 137.890625 100.039062 143.984375 100.058594 L 155.078125 100.097656 Z M 155.605469 100.644531 "/>
<path style=" stroke:none;fill-rule:nonzero;fill:rgb(0%,0%,0%);fill-opacity:1;" d="M 99.101562 150.292969 C 96.25 150.917969 93.90625 152.207031 91.816406 154.316406 C 90.234375 155.878906 89.316406 157.246094 88.535156 159.179688 C 87.5 161.757812 87.480469 162.109375 87.539062 175.664062 L 87.597656 188.183594 L 88.066406 189.550781 C 89.726562 194.511719 93.164062 197.929688 98.046875 199.453125 L 99.511719 199.902344 L 125.488281 199.902344 L 126.953125 199.453125 C 131.894531 197.910156 135.390625 194.394531 136.953125 189.453125 L 137.402344 187.988281 L 137.402344 162.011719 L 136.953125 160.546875 C 135.429688 155.664062 132.011719 152.226562 127.050781 150.566406 L 125.683594 150.097656 L 112.988281 150.058594 C 102.910156 150.039062 100.039062 150.078125 99.101562 150.292969 Z M 124.355469 163.144531 L 124.902344 163.671875 L 124.902344 186.328125 L 124.355469 186.855469 L 123.828125 187.402344 L 101.171875 187.402344 L 100.644531 186.855469 L 100.097656 186.328125 L 100.097656 175.019531 C 100.097656 163.984375 100.097656 163.710938 100.488281 163.28125 C 100.703125 163.046875 101.054688 162.773438 101.269531 162.675781 C 101.484375 162.597656 106.640625 162.539062 112.734375 162.558594 L 123.828125 162.597656 Z M 124.355469 163.144531 "/>
<path style=" stroke:none;fill-rule:nonzero;fill:rgb(0%,0%,0%);fill-opacity:1;" d="M 161.601562 150.292969 C 158.75 150.917969 156.40625 152.207031 154.316406 154.316406 C 152.734375 155.878906 151.816406 157.246094 151.035156 159.179688 C 150 161.757812 149.980469 162.109375 150.039062 175.664062 L 150.097656 188.183594 L 150.566406 189.550781 C 152.226562 194.511719 155.664062 197.929688 160.546875 199.453125 L 162.011719 199.902344 L 187.988281 199.902344 L 189.453125 199.453125 C 194.394531 197.910156 197.890625 194.394531 199.453125 189.453125 L 199.902344 187.988281 L 199.902344 162.011719 L 199.453125 160.546875 C 197.929688 155.664062 194.511719 152.226562 189.550781 150.566406 L 188.183594 150.097656 L 175.488281 150.058594 C 165.410156 150.039062 162.539062 150.078125 161.601562 150.292969 Z M 186.855469 163.144531 L 187.402344 163.671875 L 187.402344 186.328125 L 186.855469 186.855469 L 186.328125 187.402344 L 163.671875 187.402344 L 163.144531 186.855469 L 162.597656 186.328125 L 162.597656 175.019531 C 162.597656 163.984375 162.597656 163.710938 162.988281 163.28125 C 163.203125 163.046875 163.554688 162.773438 163.769531 162.675781 C 163.984375 162.597656 169.140625 162.539062 175.234375 162.558594 L 186.328125 162.597656 Z M 186.855469 163.144531 "/>
</g>
</svg>
