<?xml version="1.0" encoding="UTF-8"?>
<svg xmlns="http://www.w3.org/2000/svg" xmlns:xlink="http://www.w3.org/1999/xlink" width="200pt" height="200pt" viewBox="0 0 200 200" version="1.1">
<g id="surface1">
<path style=" stroke:none;fill-rule:nonzero;fill:rgb(0%,0%,0%);fill-opacity:1;" d="M 40.878906 0.292969 C 36.992188 0.996094 33.769531 2.695312 30.9375 5.546875 C 29.550781 6.933594 27.871094 9.355469 17.441406 25 C 10.878906 34.84375 5.136719 43.320312 4.6875 43.847656 C 2.5 46.347656 1.054688 49.296875 0.371094 52.636719 C 0.0195312 54.316406 0 56.230469 0 100 C 0 143.769531 0.0195312 145.683594 0.371094 147.363281 C 1.171875 151.191406 2.96875 154.511719 5.703125 157.148438 C 8.398438 159.765625 11.445312 161.367188 15.175781 162.128906 C 16.894531 162.480469 18.125 162.5 43.691406 162.460938 L 70.410156 162.402344 L 71.328125 161.972656 C 72.5 161.425781 73.945312 160 74.472656 158.828125 C 75.078125 157.539062 75.078125 154.960938 74.472656 153.671875 C 73.945312 152.5 72.5 151.074219 71.328125 150.527344 L 70.410156 150.097656 L 17.089844 149.902344 L 16.074219 149.375 C 14.785156 148.691406 13.808594 147.714844 13.125 146.425781 L 12.597656 145.410156 L 12.597656 54.589844 L 13.125 53.59375 C 13.769531 52.363281 14.84375 51.289062 16.113281 50.625 L 17.089844 50.097656 L 145.410156 50.097656 L 146.386719 50.625 C 147.65625 51.289062 148.730469 52.363281 149.375 53.59375 L 149.902344 54.589844 L 150 62.5 C 150.117188 71.523438 150.097656 71.386719 151.855469 73.144531 C 153.183594 74.492188 154.238281 74.902344 156.25 74.902344 C 158.261719 74.902344 159.316406 74.492188 160.644531 73.144531 C 162.421875 71.386719 162.402344 71.523438 162.460938 62.480469 C 162.519531 55.273438 162.480469 54.355469 162.148438 52.714844 C 161.445312 49.316406 160.019531 46.386719 157.8125 43.847656 C 157.363281 43.320312 151.621094 34.84375 145.058594 25 C 134.628906 9.355469 132.949219 6.933594 131.5625 5.546875 C 129.101562 3.066406 126.445312 1.542969 122.871094 0.527344 L 121.386719 0.0976562 L 81.835938 0.0585938 C 50 0.0390625 42.011719 0.078125 40.878906 0.292969 Z M 75 25 L 75 37.5 L 24.21875 37.5 L 31.660156 26.308594 C 35.761719 20.175781 39.433594 14.804688 39.824219 14.394531 C 40.214844 13.984375 40.800781 13.496094 41.113281 13.320312 C 42.636719 12.519531 42.675781 12.519531 59.140625 12.519531 L 75 12.5 Z M 120.800781 13.046875 C 121.347656 13.300781 122.070312 13.769531 122.441406 14.121094 C 122.792969 14.472656 126.503906 19.863281 130.683594 26.113281 L 138.28125 37.5 L 87.5 37.5 L 87.5 12.5 L 103.671875 12.539062 L 119.824219 12.597656 Z M 120.800781 13.046875 "/>
<path style=" stroke:none;fill-rule:nonzero;fill:rgb(0%,0%,0%);fill-opacity:1;" d="M 137.695312 87.8125 C 127.675781 88.90625 117.851562 92.792969 109.84375 98.867188 C 95.761719 109.550781 87.5 126.132812 87.5 143.75 C 87.5 155.957031 91.523438 167.96875 98.867188 177.65625 C 109.550781 191.738281 126.132812 200 143.75 200 C 155.957031 200 167.96875 195.976562 177.65625 188.632812 C 191.738281 177.949219 200 161.367188 200 143.75 C 200 131.542969 195.976562 119.53125 188.632812 109.84375 C 179.179688 97.363281 165.117188 89.433594 149.53125 87.792969 C 146.113281 87.441406 141.035156 87.441406 137.695312 87.8125 Z M 150.195312 100.488281 C 162.519531 102.34375 173.457031 109.355469 180.3125 119.824219 C 183.847656 125.195312 186.054688 131.015625 187.050781 137.5 C 187.519531 140.585938 187.519531 146.914062 187.050781 150 C 185.136719 162.578125 178.183594 173.4375 167.675781 180.3125 C 162.304688 183.847656 156.484375 186.054688 150 187.050781 C 146.914062 187.519531 140.585938 187.519531 137.5 187.050781 C 124.921875 185.136719 114.082031 178.203125 107.1875 167.675781 C 103.652344 162.304688 101.445312 156.484375 100.449219 150 C 99.980469 146.914062 99.980469 140.585938 100.449219 137.5 C 102.363281 124.921875 109.316406 114.0625 119.824219 107.1875 C 126.015625 103.125 132.734375 100.820312 140.429688 100.117188 C 142.167969 99.960938 148.183594 100.195312 150.195312 100.488281 Z M 150.195312 100.488281 "/>
<path style=" stroke:none;fill-rule:nonzero;fill:rgb(0%,0%,0%);fill-opacity:1;" d="M 123.085938 119.023438 C 120.351562 119.921875 118.574219 122.597656 118.789062 125.488281 C 118.984375 127.832031 119.082031 127.949219 127.304688 136.171875 L 134.84375 143.75 L 127.226562 151.40625 C 118.613281 160.058594 118.847656 159.746094 118.847656 162.597656 C 118.867188 164.511719 119.296875 165.605469 120.605469 166.894531 C 121.894531 168.203125 122.988281 168.632812 124.902344 168.652344 C 127.753906 168.652344 127.441406 168.886719 136.09375 160.273438 L 143.75 152.65625 L 151.425781 160.273438 C 160.058594 168.886719 159.746094 168.652344 162.597656 168.652344 C 164.511719 168.632812 165.605469 168.203125 166.894531 166.894531 C 168.203125 165.605469 168.632812 164.511719 168.652344 162.597656 C 168.652344 159.746094 168.886719 160.058594 160.273438 151.40625 L 152.65625 143.75 L 160.273438 136.074219 C 168.886719 127.441406 168.652344 127.753906 168.652344 124.902344 C 168.632812 122.988281 168.203125 121.894531 166.894531 120.605469 C 165.605469 119.296875 164.511719 118.867188 162.597656 118.847656 C 159.746094 118.847656 160.058594 118.613281 151.40625 127.226562 L 143.75 134.84375 L 136.171875 127.304688 C 130.058594 121.191406 128.417969 119.667969 127.636719 119.316406 C 126.425781 118.769531 124.277344 118.632812 123.085938 119.023438 Z M 123.085938 119.023438 "/>
</g>
</svg>
