<?xml version="1.0" encoding="UTF-8"?>
<svg xmlns="http://www.w3.org/2000/svg" xmlns:xlink="http://www.w3.org/1999/xlink" width="200pt" height="200pt" viewBox="0 0 200 200" version="1.1">
<g id="surface1">
<path style=" stroke:none;fill-rule:nonzero;fill:rgb(0%,0%,0%);fill-opacity:1;" d="M 40.878906 0.292969 C 36.992188 0.996094 33.769531 2.695312 30.9375 5.546875 C 29.550781 6.933594 27.871094 9.355469 17.441406 25 C 10.878906 34.84375 5.136719 43.320312 4.6875 43.847656 C 2.5 46.347656 1.054688 49.296875 0.371094 52.636719 C 0.0195312 54.316406 0 56.230469 0 100 C 0 143.769531 0.0195312 145.683594 0.371094 147.363281 C 1.171875 151.191406 2.96875 154.511719 5.703125 157.148438 C 8.398438 159.765625 11.445312 161.367188 15.175781 162.128906 C 16.894531 162.480469 18.125 162.5 43.691406 162.460938 L 70.410156 162.402344 L 71.328125 161.972656 C 72.5 161.425781 73.945312 160 74.472656 158.828125 C 75.078125 157.539062 75.078125 154.960938 74.472656 153.671875 C 73.945312 152.5 72.5 151.074219 71.328125 150.527344 L 70.410156 150.097656 L 17.089844 149.902344 L 16.074219 149.375 C 14.785156 148.691406 13.808594 147.714844 13.125 146.425781 L 12.597656 145.410156 L 12.597656 54.589844 L 13.125 53.59375 C 13.769531 52.363281 14.84375 51.289062 16.113281 50.625 L 17.089844 50.097656 L 145.410156 50.097656 L 146.386719 50.625 C 147.65625 51.289062 148.730469 52.363281 149.375 53.59375 L 149.902344 54.589844 L 150 62.5 C 150.117188 71.523438 150.097656 71.386719 151.855469 73.144531 C 153.183594 74.492188 154.238281 74.902344 156.25 74.902344 C 158.261719 74.902344 159.316406 74.492188 160.644531 73.144531 C 162.421875 71.386719 162.402344 71.523438 162.460938 62.480469 C 162.519531 55.273438 162.480469 54.355469 162.148438 52.714844 C 161.445312 49.316406 160.019531 46.386719 157.8125 43.847656 C 157.363281 43.320312 151.621094 34.84375 145.058594 25 C 134.628906 9.355469 132.949219 6.933594 131.5625 5.546875 C 129.101562 3.066406 126.445312 1.542969 122.871094 0.527344 L 121.386719 0.0976562 L 81.835938 0.0585938 C 50 0.0390625 42.011719 0.078125 40.878906 0.292969 Z M 75 25 L 75 37.5 L 24.21875 37.5 L 31.660156 26.308594 C 35.761719 20.175781 39.433594 14.804688 39.824219 14.394531 C 40.214844 13.984375 40.800781 13.496094 41.113281 13.320312 C 42.636719 12.519531 42.675781 12.519531 59.140625 12.519531 L 75 12.5 Z M 120.800781 13.046875 C 121.347656 13.300781 122.070312 13.769531 122.441406 14.121094 C 122.792969 14.472656 126.503906 19.863281 130.683594 26.113281 L 138.28125 37.5 L 87.5 37.5 L 87.5 12.5 L 103.671875 12.539062 L 119.824219 12.597656 Z M 120.800781 13.046875 "/>
<path style=" stroke:none;fill-rule:nonzero;fill:rgb(0%,0%,0%);fill-opacity:1;" d="M 126.074219 81.484375 C 121.621094 81.933594 115.78125 83.476562 111.328125 85.390625 C 99.921875 90.273438 90.273438 99.921875 85.390625 111.328125 C 75.839844 133.574219 83.261719 159.023438 103.222656 172.636719 C 111.386719 178.222656 121.269531 181.25 131.25 181.25 C 138.007812 181.25 144.84375 179.824219 151.171875 177.109375 C 154.609375 175.644531 157.070312 174.199219 161.640625 170.996094 C 161.855469 170.839844 165.097656 174.003906 176.113281 184.980469 C 192.050781 200.878906 190.898438 199.902344 193.847656 199.902344 C 195.761719 199.882812 196.855469 199.453125 198.144531 198.144531 C 199.453125 196.855469 199.882812 195.761719 199.902344 193.847656 C 199.902344 190.898438 200.878906 192.050781 184.980469 176.113281 C 174.003906 165.097656 170.839844 161.855469 170.996094 161.640625 C 174.199219 157.070312 175.644531 154.609375 177.109375 151.171875 C 187.324219 127.363281 178.027344 100.058594 155.371094 87.441406 C 149.84375 84.355469 142.5 82.089844 136.054688 81.464844 C 133.554688 81.210938 128.59375 81.230469 126.074219 81.484375 Z M 134.785156 93.945312 C 147.96875 95.253906 159.296875 103.164062 165.019531 115.039062 C 167.128906 119.414062 168.164062 123.300781 168.59375 128.359375 C 169.277344 136.640625 167.089844 145.058594 162.402344 152.050781 C 156.992188 160.136719 148.574219 165.878906 139.160156 167.890625 C 135.742188 168.613281 131.796875 168.867188 128.359375 168.59375 C 123.300781 168.164062 119.414062 167.128906 115.039062 165.019531 C 107.34375 161.308594 101.191406 155.15625 97.480469 147.460938 C 95.371094 143.085938 94.335938 139.199219 93.90625 134.121094 C 93.222656 125.859375 95.410156 117.441406 100.097656 110.449219 C 107.773438 98.964844 121.171875 92.597656 134.785156 93.945312 Z M 134.785156 93.945312 "/>
</g>
</svg>
