<?xml version="1.0" encoding="UTF-8"?>
<svg xmlns="http://www.w3.org/2000/svg" xmlns:xlink="http://www.w3.org/1999/xlink" width="200pt" height="200pt" viewBox="0 0 200 200" version="1.1">
<g id="surface1">
<path style=" stroke:none;fill-rule:nonzero;fill:rgb(0%,0%,0%);fill-opacity:1;" d="M 96.308594 1.660156 C 93.574219 2.265625 91.289062 3.28125 89.0625 4.84375 C 88.339844 5.332031 83.691406 9.824219 78.320312 15.175781 L 68.828125 24.609375 L 55.527344 24.609375 C 44.628906 24.609375 41.933594 24.667969 40.566406 24.902344 C 32.929688 26.230469 26.953125 32.070312 25.371094 39.746094 C 25.039062 41.367188 25 42.578125 25 54.980469 L 25 68.4375 L 15.566406 77.929688 C 10.214844 83.300781 5.722656 87.949219 5.234375 88.671875 C 4.023438 90.410156 3.027344 92.421875 2.402344 94.472656 C 1.914062 96.054688 1.875 96.445312 1.875 99.609375 C 1.875 102.773438 1.914062 103.144531 2.402344 104.765625 C 3.027344 106.757812 3.925781 108.652344 5.097656 110.410156 C 5.605469 111.152344 9.667969 115.371094 15.449219 121.191406 L 24.980469 130.761719 L 25.039062 144.824219 C 25.097656 158.691406 25.117188 158.90625 25.546875 160.429688 C 27.441406 167.1875 32.070312 171.914062 38.769531 173.964844 L 40.527344 174.511719 L 68.847656 174.628906 L 78.417969 184.160156 C 88.515625 194.238281 89.53125 195.097656 92.519531 196.367188 C 95.273438 197.519531 96.523438 197.753906 100 197.753906 C 103.476562 197.753906 104.726562 197.519531 107.480469 196.367188 C 110.46875 195.097656 111.484375 194.238281 121.582031 184.160156 L 131.152344 174.628906 L 159.472656 174.511719 L 161.230469 173.964844 C 164.785156 172.890625 167.480469 171.230469 169.921875 168.632812 C 172.148438 166.269531 173.515625 163.808594 174.453125 160.429688 C 174.882812 158.90625 174.902344 158.691406 174.960938 144.824219 L 175.019531 130.761719 L 184.550781 121.191406 C 190.332031 115.371094 194.394531 111.152344 194.902344 110.410156 C 196.074219 108.652344 196.972656 106.757812 197.597656 104.765625 C 198.085938 103.144531 198.125 102.773438 198.125 99.609375 C 198.125 96.445312 198.085938 96.054688 197.597656 94.472656 C 196.972656 92.421875 195.976562 90.410156 194.765625 88.671875 C 194.277344 87.949219 189.785156 83.300781 184.433594 77.929688 L 175 68.4375 L 175 54.980469 C 175 39.980469 174.980469 39.84375 173.632812 36.347656 C 171.855469 31.738281 167.480469 27.5 162.753906 25.78125 C 159.589844 24.648438 159.082031 24.609375 144.472656 24.609375 L 131.171875 24.609375 L 121.679688 15.175781 C 116.308594 9.824219 111.660156 5.332031 110.9375 4.84375 C 109.179688 3.613281 107.167969 2.636719 105.136719 2.03125 C 103.691406 1.601562 102.96875 1.503906 100.488281 1.445312 C 98.417969 1.386719 97.1875 1.464844 96.308594 1.660156 Z M 102.285156 14.277344 C 103.359375 14.667969 104.042969 15.3125 114.160156 25.410156 C 122.8125 34.023438 125.097656 36.210938 125.878906 36.5625 L 126.855469 37.011719 L 157.714844 37.207031 L 158.808594 37.714844 C 160.195312 38.359375 161.25 39.414062 161.894531 40.800781 L 162.402344 41.894531 L 162.597656 72.753906 L 163.046875 73.730469 C 163.398438 74.511719 165.585938 76.796875 174.199219 85.449219 C 184.414062 95.683594 184.941406 96.25 185.351562 97.363281 C 185.917969 98.886719 185.839844 101.015625 185.175781 102.34375 C 184.863281 102.949219 181.503906 106.464844 174.101562 113.867188 C 165.566406 122.441406 163.398438 124.707031 163.046875 125.488281 L 162.597656 126.464844 L 162.402344 157.519531 L 161.875 158.535156 C 161.191406 159.824219 160.214844 160.800781 158.925781 161.484375 L 157.910156 162.011719 L 126.855469 162.207031 L 125.878906 162.65625 C 125.097656 163.007812 122.832031 165.175781 114.257812 173.710938 C 107.109375 180.839844 103.320312 184.492188 102.734375 184.785156 C 101.992188 185.175781 101.5625 185.253906 100 185.253906 C 98.4375 185.253906 98.007812 185.175781 97.265625 184.785156 C 96.679688 184.492188 92.890625 180.839844 85.742188 173.710938 C 77.167969 165.175781 74.902344 163.007812 74.121094 162.65625 L 73.144531 162.207031 L 42.089844 162.011719 L 41.074219 161.484375 C 39.785156 160.800781 38.808594 159.824219 38.125 158.535156 L 37.597656 157.519531 L 37.402344 126.464844 L 36.953125 125.488281 C 36.601562 124.707031 34.433594 122.441406 25.898438 113.867188 C 18.496094 106.464844 15.136719 102.949219 14.824219 102.34375 C 14.160156 101.015625 14.082031 98.886719 14.648438 97.363281 C 15.058594 96.25 15.585938 95.683594 25.800781 85.449219 C 34.414062 76.796875 36.601562 74.511719 36.953125 73.730469 L 37.402344 72.753906 L 37.597656 41.894531 L 38.105469 40.800781 C 38.75 39.414062 39.804688 38.359375 41.191406 37.714844 L 42.285156 37.207031 L 73.144531 37.011719 L 74.121094 36.5625 C 74.902344 36.210938 77.1875 34.023438 85.839844 25.410156 C 95.683594 15.585938 96.679688 14.667969 97.65625 14.296875 C 99.101562 13.75 100.839844 13.75 102.285156 14.277344 Z M 102.285156 14.277344 "/>
<path style=" stroke:none;fill-rule:nonzero;fill:rgb(0%,0%,0%);fill-opacity:1;" d="M 98.046875 49.921875 C 96.074219 50.644531 94.6875 52.070312 94.0625 54.023438 C 93.769531 54.882812 93.75 59.140625 93.789062 100 L 93.847656 145.019531 L 94.277344 145.9375 C 94.804688 147.109375 96.25 148.554688 97.421875 149.082031 C 98.242188 149.472656 98.652344 149.511719 101.5625 149.492188 C 110.488281 149.453125 119.84375 146.484375 127.832031 141.152344 C 135.683594 135.9375 142.402344 127.832031 145.976562 119.316406 C 150.097656 109.472656 151.054688 99.082031 148.808594 88.730469 C 147.910156 84.53125 145.898438 79.21875 143.828125 75.507812 C 135.175781 60.039062 119.355469 50.273438 101.953125 49.707031 C 99.453125 49.609375 98.769531 49.648438 98.046875 49.921875 Z M 109.414062 63.359375 C 115.957031 65.058594 121.640625 68.300781 126.484375 73.125 C 134.238281 80.878906 138.242188 91.679688 137.34375 102.480469 C 136.914062 107.539062 135.878906 111.464844 133.789062 115.78125 C 129.550781 124.570312 122.402344 131.152344 113.222656 134.707031 C 111.542969 135.351562 107.285156 136.523438 106.601562 136.523438 C 106.269531 136.523438 106.25 134.628906 106.25 99.609375 C 106.25 67.402344 106.289062 62.695312 106.542969 62.695312 C 106.699219 62.695312 107.988281 62.988281 109.414062 63.359375 Z M 109.414062 63.359375 "/>
</g>
</svg>
