<?xml version="1.0" encoding="UTF-8"?>
<svg xmlns="http://www.w3.org/2000/svg" xmlns:xlink="http://www.w3.org/1999/xlink" width="200pt" height="200pt" viewBox="0 0 200 200" version="1.1">
<g id="surface1">
<path style=" stroke:none;fill-rule:nonzero;fill:rgb(0%,0%,0%);fill-opacity:1;" d="M 80.5 2 C 35.398438 11.5 3 48.898438 0.300781 94.601562 C -1.101562 117.898438 6.101562 140.898438 20.699219 160.5 C 43.300781 190.601562 82.300781 205.5 118.898438 198 C 143.699219 193 164.5 180.101562 179 160.800781 C 212.101562 116.898438 204.898438 56.300781 162.601562 22.398438 C 139.199219 3.699219 108.601562 -3.898438 80.5 2 Z M 117.699219 14.601562 C 134.101562 18 147.601562 24.898438 159.199219 35.800781 C 177.898438 53.398438 187 74.398438 187 99.601562 C 187 118.101562 182.398438 133.699219 172.5 148.5 C 159.699219 167.601562 140.199219 180.898438 118 185.601562 C 109.601562 187.398438 90.398438 187.398438 82 185.601562 C 48.300781 178.398438 21.601562 151.699219 14.5 118 C 12.601562 108.898438 12.601562 91.199219 14.5 82.199219 C 21.601562 48.101562 47.699219 21.898438 81.601562 14.601562 C 90.898438 12.601562 108.199219 12.601562 117.699219 14.601562 Z M 117.699219 14.601562 "/>
<path style=" stroke:none;fill-rule:nonzero;fill:rgb(0%,0%,0%);fill-opacity:1;" d="M 90.398438 45.398438 C 78.300781 49.300781 69 61.5 69 73.5 C 69 78.300781 71.199219 81 75.199219 81 C 78.601562 81 80.601562 78.398438 81.5 73 C 81.898438 70.5 83.101562 67 84.199219 65.199219 C 89.601562 56.398438 101.898438 53.699219 110.199219 59.601562 C 116 63.699219 118.300781 68 118.398438 75 C 118.5 82.898438 114.898438 88.199219 106.5 92.601562 C 103.300781 94.300781 99.199219 97.398438 97.5 99.398438 C 94.601562 103 94.5 103.601562 94.5 112.800781 C 94.5 122.199219 94.5 122.398438 97.300781 124 C 99.699219 125.300781 100.300781 125.300781 102.800781 124 C 105.101562 122.699219 105.5 121.699219 105.800781 117.5 C 106.300781 106.800781 106.601562 106.101562 112.5 103.601562 C 132 94.898438 137.300781 68.5 122.5 53.601562 C 116.199219 47.300781 110 44.601562 101.5 44.300781 C 97.601562 44.101562 92.699219 44.601562 90.398438 45.398438 Z M 90.398438 45.398438 "/>
<path style=" stroke:none;fill-rule:nonzero;fill:rgb(0%,0%,0%);fill-opacity:1;" d="M 93.5 140.5 C 87.800781 146.101562 92 156 100 156 C 108.101562 156 112.199219 145.898438 106.398438 140.5 C 102.699219 137.101562 96.800781 137.101562 93.5 140.5 Z M 93.5 140.5 "/>
</g>
</svg>
