<?xml version="1.0" encoding="UTF-8"?>
<svg xmlns="http://www.w3.org/2000/svg" xmlns:xlink="http://www.w3.org/1999/xlink" width="200pt" height="200pt" viewBox="0 0 200 200" version="1.1">
<g id="surface1">
<path style=" stroke:none;fill-rule:nonzero;fill:rgb(0%,0%,0%);fill-opacity:1;" d="M 98.242188 8.574219 C 97.96875 8.671875 97.402344 8.90625 96.972656 9.140625 C 96.484375 9.394531 85.351562 20.390625 67.265625 38.515625 C 41.308594 64.492188 38.28125 67.578125 37.96875 68.457031 C 37.480469 69.765625 37.480469 71.855469 37.96875 73.144531 C 38.476562 74.414062 39.980469 76.015625 41.269531 76.582031 L 42.285156 77.050781 L 55.507812 77.109375 L 68.75 77.167969 L 68.789062 103.378906 L 68.847656 129.589844 L 69.375 131.015625 C 70.078125 132.988281 70.976562 134.394531 72.363281 135.820312 C 73.789062 137.285156 75.371094 138.261719 77.441406 139.003906 L 79.003906 139.550781 L 120.800781 139.550781 L 122.539062 138.984375 C 126.40625 137.714844 129.394531 134.746094 130.722656 130.859375 L 131.152344 129.589844 L 131.210938 103.378906 L 131.25 77.167969 L 144.492188 77.109375 L 157.714844 77.050781 L 158.789062 76.542969 C 161.816406 75.117188 163.242188 71.71875 162.109375 68.652344 C 161.679688 67.519531 160.839844 66.640625 132.734375 38.496094 C 100.46875 6.191406 102.851562 8.378906 100.097656 8.417969 C 99.355469 8.417969 98.515625 8.496094 98.242188 8.574219 Z M 141.015625 64.492188 C 141.015625 64.570312 136.992188 64.667969 132.089844 64.6875 L 123.144531 64.746094 L 122.148438 65.273438 C 120.976562 65.898438 119.84375 67.089844 119.257812 68.339844 L 118.847656 69.238281 L 118.789062 98.183594 L 118.75 127.148438 L 81.25 127.148438 L 81.25 98.4375 C 81.25 70.058594 81.25 69.726562 80.859375 68.671875 C 80.351562 67.324219 79.140625 65.957031 77.851562 65.273438 L 76.855469 64.746094 L 67.871094 64.6875 L 58.90625 64.628906 L 100.097656 23.4375 L 120.546875 43.886719 C 131.816406 55.15625 141.015625 64.414062 141.015625 64.492188 Z M 141.015625 64.492188 "/>
<path style=" stroke:none;fill-rule:nonzero;fill:rgb(0%,0%,0%);fill-opacity:1;" d="M 4.492188 139.824219 C 2.792969 140.351562 1.269531 141.679688 0.507812 143.339844 C 0.0976562 144.238281 0.0976562 144.335938 0.0976562 158.984375 L 0.0976562 173.730469 L 0.546875 175.390625 C 2.265625 181.699219 6.738281 186.542969 12.792969 188.613281 C 15.996094 189.707031 10.9375 189.648438 99.902344 189.648438 C 155.585938 189.648438 182.460938 189.589844 183.574219 189.453125 C 191.5625 188.4375 197.988281 182.460938 199.628906 174.511719 C 199.960938 172.890625 200 171.640625 200 158.75 C 200 145.097656 199.980469 144.707031 199.589844 143.671875 C 199.042969 142.167969 197.753906 140.820312 196.269531 140.136719 C 195.195312 139.667969 194.902344 139.609375 193.476562 139.6875 C 190.9375 139.824219 189.0625 141.074219 188.007812 143.339844 C 187.597656 144.21875 187.597656 144.453125 187.5 158.300781 L 187.402344 172.363281 L 186.855469 173.476562 C 186.171875 174.882812 184.707031 176.230469 183.339844 176.699219 C 182.363281 177.03125 179.121094 177.050781 100 177.050781 C 20.878906 177.050781 17.636719 177.03125 16.660156 176.699219 C 15.292969 176.230469 13.828125 174.882812 13.144531 173.476562 L 12.597656 172.363281 L 12.5 158.300781 C 12.402344 144.453125 12.402344 144.21875 11.992188 143.339844 C 11.367188 141.992188 10.214844 140.839844 8.886719 140.195312 C 7.929688 139.746094 7.460938 139.648438 6.347656 139.667969 C 5.605469 139.667969 4.765625 139.746094 4.492188 139.824219 Z M 4.492188 139.824219 "/>
</g>
</svg>
