<?xml version="1.0" encoding="UTF-8"?>
<svg xmlns="http://www.w3.org/2000/svg" xmlns:xlink="http://www.w3.org/1999/xlink" width="200pt" height="200pt" viewBox="0 0 200 200" version="1.1">
<g id="surface1">
<path style=" stroke:none;fill-rule:nonzero;fill:rgb(0%,0%,0%);fill-opacity:1;" d="M 58.007812 0.214844 C 53.027344 0.820312 48.710938 2.109375 44.335938 4.296875 C 32.773438 10.078125 24.824219 20.78125 22.421875 33.789062 C 21.855469 36.835938 21.816406 44.003906 22.324219 46.972656 C 23.867188 55.703125 27.753906 63.320312 33.789062 69.335938 C 40.214844 75.78125 49.160156 80.078125 58.007812 81.015625 C 59.707031 81.210938 59.785156 81.191406 54.980469 81.71875 C 38.125 83.632812 22.480469 92.753906 12.1875 106.679688 C 4.570312 116.972656 0.175781 129.785156 0.117188 141.894531 C 0.0976562 145.976562 0.253906 146.5625 1.855469 148.144531 C 3.183594 149.492188 4.238281 149.902344 6.25 149.902344 C 8.261719 149.902344 9.316406 149.492188 10.644531 148.144531 C 12.089844 146.71875 12.34375 145.917969 12.539062 142.285156 C 12.96875 134.21875 14.433594 128.359375 17.65625 121.777344 C 20.390625 116.230469 23.242188 112.304688 27.753906 107.910156 C 35.46875 100.390625 44.84375 95.800781 55.761719 94.21875 C 59.277344 93.691406 66.191406 93.730469 69.824219 94.296875 C 74.160156 94.980469 76.464844 95.625 82.519531 97.871094 C 85.390625 98.925781 88.769531 97.597656 90.195312 94.824219 C 90.546875 94.121094 90.703125 93.457031 90.78125 92.382812 C 90.898438 90.390625 90.351562 88.964844 88.984375 87.578125 C 88.105469 86.71875 87.65625 86.464844 85.449219 85.605469 C 79.667969 83.359375 73.964844 82.011719 67.910156 81.464844 C 66.738281 81.367188 65.742188 81.25 65.703125 81.191406 C 65.664062 81.152344 66.269531 81.054688 67.089844 80.996094 C 72.304688 80.546875 79.589844 77.96875 84.316406 74.902344 C 94.238281 68.4375 100.605469 58.769531 102.675781 46.972656 C 103.183594 44.003906 103.144531 36.835938 102.578125 33.789062 C 101.816406 29.6875 100.625 26.054688 98.828125 22.460938 C 93.027344 10.878906 82.207031 2.851562 69.335938 0.566406 C 66.757812 0.0976562 60.449219 -0.0976562 58.007812 0.214844 Z M 66.210938 12.792969 C 72.558594 13.652344 77.773438 16.25 82.324219 20.800781 C 86.503906 24.960938 89.082031 29.84375 90.15625 35.644531 C 90.664062 38.320312 90.664062 42.929688 90.15625 45.605469 C 87.96875 57.265625 79.257812 65.996094 67.480469 68.28125 C 64.980469 68.769531 60.136719 68.769531 57.519531 68.28125 C 45.878906 66.113281 37.011719 57.246094 34.84375 45.605469 C 34.335938 42.929688 34.335938 38.320312 34.84375 35.644531 C 35.917969 29.84375 38.496094 24.960938 42.675781 20.800781 C 48.984375 14.492188 57.460938 11.601562 66.210938 12.792969 Z M 66.210938 12.792969 "/>
<path style=" stroke:none;fill-rule:nonzero;fill:rgb(0%,0%,0%);fill-opacity:1;" d="M 138.476562 87.695312 C 120.917969 89.511719 105.566406 98.945312 96.152344 113.75 C 94.511719 116.328125 92.089844 121.210938 91.054688 124.023438 C 88.75 130.3125 87.753906 135.546875 87.558594 142.285156 C 87.304688 151.757812 89.199219 160.332031 93.378906 168.75 C 97.402344 176.835938 102.929688 183.4375 110.175781 188.867188 C 127.03125 201.464844 149.84375 203.554688 168.652344 194.199219 C 187.910156 184.609375 200 165.136719 200 143.75 C 200 131.542969 195.976562 119.53125 188.632812 109.84375 C 183.300781 102.8125 176.679688 97.324219 168.75 93.378906 C 163.144531 90.605469 157.832031 88.945312 151.289062 87.96875 C 148.945312 87.617188 140.898438 87.441406 138.476562 87.695312 Z M 150.195312 100.488281 C 159.628906 101.914062 168.476562 106.445312 175.117188 113.300781 C 177.304688 115.566406 178.535156 117.089844 180.3125 119.824219 C 183.847656 125.195312 186.054688 131.015625 187.050781 137.5 C 187.519531 140.585938 187.519531 146.914062 187.050781 150 C 185.136719 162.578125 178.183594 173.4375 167.675781 180.3125 C 162.304688 183.828125 156.484375 186.054688 150 187.050781 C 146.914062 187.519531 140.585938 187.519531 137.5 187.050781 C 124.902344 185.117188 114.082031 178.203125 107.1875 167.675781 C 103.652344 162.304688 101.445312 156.484375 100.449219 150 C 99.980469 146.914062 99.980469 140.585938 100.449219 137.5 C 101.445312 131.015625 103.652344 125.195312 107.1875 119.824219 C 110.585938 114.648438 114.628906 110.585938 119.824219 107.1875 C 125.996094 103.125 132.714844 100.820312 140.429688 100.117188 C 142.167969 99.960938 148.183594 100.195312 150.195312 100.488281 Z M 150.195312 100.488281 "/>
<path style=" stroke:none;fill-rule:nonzero;fill:rgb(0%,0%,0%);fill-opacity:1;" d="M 141.679688 112.851562 C 140.46875 113.28125 139.316406 114.160156 138.59375 115.214844 C 137.519531 116.757812 137.5 116.992188 137.5 127.65625 L 137.5 137.480469 L 127.304688 137.539062 C 117.285156 137.597656 117.070312 137.597656 116.171875 138.027344 C 115 138.574219 113.554688 140 113.027344 141.171875 C 112.421875 142.460938 112.421875 145.039062 113.027344 146.328125 C 113.554688 147.5 115 148.925781 116.171875 149.472656 C 117.070312 149.902344 117.285156 149.902344 127.285156 149.960938 L 137.480469 150.019531 L 137.539062 160.214844 C 137.597656 170.214844 137.597656 170.429688 138.027344 171.328125 C 138.574219 172.5 140 173.945312 141.171875 174.472656 C 142.460938 175.078125 145.039062 175.078125 146.328125 174.472656 C 147.5 173.945312 148.925781 172.5 149.472656 171.328125 C 149.902344 170.429688 149.902344 170.214844 149.960938 160.214844 L 150.019531 150.019531 L 160.214844 149.960938 C 170.214844 149.902344 170.429688 149.902344 171.328125 149.472656 C 172.5 148.925781 173.945312 147.5 174.472656 146.328125 C 175.078125 145.039062 175.078125 142.460938 174.472656 141.171875 C 173.945312 140 172.5 138.574219 171.328125 138.027344 C 170.429688 137.597656 170.214844 137.597656 160.214844 137.539062 L 150.019531 137.480469 L 149.960938 127.285156 C 149.902344 117.285156 149.902344 117.070312 149.472656 116.171875 C 148.925781 114.980469 147.5 113.554688 146.328125 113.046875 C 145.039062 112.460938 142.96875 112.382812 141.679688 112.851562 Z M 141.679688 112.851562 "/>
</g>
</svg>
