<?xml version="1.0" encoding="UTF-8"?>
<svg xmlns="http://www.w3.org/2000/svg" xmlns:xlink="http://www.w3.org/1999/xlink" width="200pt" height="200pt" viewBox="0 0 200 200" version="1.1">
<g id="surface1">
<path style=" stroke:none;fill-rule:nonzero;fill:rgb(0%,0%,0%);fill-opacity:1;" d="M 35.742188 0.117188 C 30.996094 0.625 27.460938 1.953125 24.121094 4.453125 C 22.1875 5.898438 13.476562 14.6875 11.484375 17.1875 C -1.464844 33.515625 -3.652344 55.566406 5.839844 73.925781 C 10.976562 83.867188 26.914062 105 41.679688 121.484375 C 49.355469 130.039062 62.949219 143.945312 70.703125 151.191406 C 84.101562 163.691406 97.792969 175.019531 110.449219 184.082031 C 114.628906 187.070312 122.597656 192.324219 124.941406 193.632812 C 129.863281 196.367188 135.507812 198.320312 141.796875 199.453125 C 143.984375 199.84375 144.863281 199.902344 150.097656 199.902344 C 156.621094 199.902344 157.949219 199.765625 162.988281 198.496094 C 170.332031 196.660156 177.246094 193.203125 183.203125 188.417969 C 185.273438 186.757812 194.335938 177.714844 195.605469 176.074219 C 201.308594 168.632812 201.445312 158.222656 195.957031 150.410156 C 194.882812 148.886719 167.050781 120.878906 164.804688 119.0625 C 160.585938 115.664062 155.859375 114.101562 150.390625 114.316406 C 144.960938 114.511719 140.507812 116.367188 136.289062 120.214844 C 135.410156 121.015625 134.160156 121.914062 133.496094 122.246094 C 130.957031 123.496094 128.007812 123.496094 125.410156 122.265625 C 124.21875 121.679688 122.480469 120 101.328125 98.847656 L 78.535156 76.074219 L 77.792969 74.511719 C 77.070312 72.96875 77.050781 72.910156 77.050781 70.585938 C 77.050781 68.28125 77.070312 68.222656 77.773438 66.777344 C 78.222656 65.878906 79.042969 64.746094 79.960938 63.730469 C 81.757812 61.757812 82.832031 60.195312 83.808594 58.125 C 87.070312 51.171875 86.445312 43.28125 82.089844 36.660156 C 80.839844 34.746094 51.777344 5.605469 49.609375 4.101562 C 46.972656 2.265625 43.710938 0.898438 40.722656 0.410156 C 39.277344 0.175781 36.660156 0.0195312 35.742188 0.117188 Z M 39.824219 13.066406 C 40.488281 13.261719 41.425781 13.710938 41.933594 14.042969 C 42.460938 14.355469 49.394531 21.171875 57.34375 29.140625 C 70.78125 42.597656 71.875 43.75 72.441406 44.941406 C 73.183594 46.5625 73.496094 48.535156 73.242188 50.136719 C 72.851562 52.5 72.226562 53.671875 70.175781 55.917969 C 63.320312 63.378906 62.460938 74.199219 68.066406 82.753906 C 69.042969 84.238281 72.246094 87.539062 92.167969 107.441406 C 104.804688 120.078125 115.761719 130.878906 116.503906 131.445312 C 118.417969 132.871094 121.777344 134.472656 124.121094 135.078125 C 127.910156 136.035156 132.167969 135.917969 135.9375 134.726562 C 139.257812 133.671875 141.523438 132.34375 144.296875 129.84375 C 146.132812 128.183594 147.285156 127.480469 148.925781 127.050781 C 151.074219 126.503906 153.28125 126.738281 155.371094 127.773438 C 156.386719 128.28125 158.496094 130.3125 171.230469 143.027344 C 185.039062 156.835938 185.957031 157.792969 186.523438 159.023438 C 187.363281 160.820312 187.636719 162.714844 187.34375 164.492188 C 186.894531 167.109375 186.523438 167.597656 181.367188 172.8125 C 174.902344 179.335938 172.773438 181.015625 167.675781 183.496094 C 161.875 186.328125 156.71875 187.5 150.097656 187.5 C 143.59375 187.5 137.8125 186.132812 132.226562 183.28125 C 126.953125 180.605469 114.082031 171.5625 103.90625 163.417969 C 74.707031 140.039062 45.527344 109.53125 25.78125 81.738281 C 22.851562 77.617188 18.789062 71.464844 17.578125 69.335938 C 12.636719 60.546875 11.269531 49.941406 13.769531 40 C 15.039062 35.039062 17.578125 29.84375 20.859375 25.488281 C 22.148438 23.789062 31.386719 14.511719 32.382812 13.925781 C 34.472656 12.695312 37.5 12.34375 39.824219 13.066406 Z M 39.824219 13.066406 "/>
</g>
</svg>
