<?xml version="1.0" encoding="UTF-8"?>
<svg xmlns="http://www.w3.org/2000/svg" xmlns:xlink="http://www.w3.org/1999/xlink" width="200pt" height="200pt" viewBox="0 0 200 200" version="1.1">
<g id="surface1">
<path style=" stroke:none;fill-rule:nonzero;fill:rgb(0%,0%,0%);fill-opacity:1;" d="M 58.007812 0.214844 C 53.027344 0.820312 48.710938 2.109375 44.335938 4.296875 C 32.773438 10.078125 24.824219 20.78125 22.421875 33.789062 C 21.855469 36.835938 21.816406 44.003906 22.324219 46.972656 C 23.867188 55.703125 27.753906 63.320312 33.789062 69.335938 C 40.214844 75.78125 49.160156 80.078125 58.007812 81.015625 C 59.707031 81.210938 59.785156 81.191406 54.980469 81.71875 C 38.125 83.632812 22.480469 92.753906 12.1875 106.679688 C 4.570312 116.972656 0.175781 129.785156 0.117188 141.894531 C 0.0976562 145.976562 0.253906 146.5625 1.855469 148.144531 C 3.183594 149.492188 4.238281 149.902344 6.25 149.902344 C 8.261719 149.902344 9.316406 149.492188 10.644531 148.144531 C 12.089844 146.71875 12.34375 145.917969 12.539062 142.285156 C 12.96875 134.21875 14.433594 128.359375 17.65625 121.777344 C 20.390625 116.230469 23.242188 112.304688 27.753906 107.910156 C 35.46875 100.390625 44.863281 95.800781 55.761719 94.21875 C 58.671875 93.789062 65.800781 93.730469 68.554688 94.121094 C 74.648438 94.960938 79.550781 96.484375 84.804688 99.160156 C 92.988281 103.300781 100 109.804688 104.882812 117.773438 C 106.367188 120.175781 107.128906 120.976562 108.574219 121.660156 C 109.472656 122.070312 109.941406 122.167969 111.230469 122.167969 C 113.105469 122.148438 114.277344 121.660156 115.585938 120.351562 C 116.699219 119.257812 117.226562 118.007812 117.34375 116.308594 C 117.441406 114.570312 117.089844 113.613281 115.253906 110.683594 C 104.804688 94.003906 87.246094 83.183594 67.910156 81.464844 C 66.738281 81.367188 65.742188 81.25 65.703125 81.191406 C 65.664062 81.152344 66.269531 81.054688 67.089844 80.996094 C 72.304688 80.546875 79.589844 77.96875 84.316406 74.902344 C 94.238281 68.4375 100.605469 58.769531 102.675781 46.972656 C 103.183594 44.003906 103.144531 36.835938 102.578125 33.789062 C 101.816406 29.6875 100.625 26.054688 98.828125 22.460938 C 93.027344 10.878906 82.207031 2.851562 69.335938 0.566406 C 66.757812 0.0976562 60.449219 -0.0976562 58.007812 0.214844 Z M 66.210938 12.792969 C 72.558594 13.652344 77.773438 16.25 82.324219 20.800781 C 86.503906 24.960938 89.082031 29.84375 90.15625 35.644531 C 90.664062 38.320312 90.664062 42.929688 90.15625 45.605469 C 87.96875 57.265625 79.257812 65.996094 67.480469 68.28125 C 64.980469 68.769531 60.136719 68.769531 57.519531 68.28125 C 45.878906 66.113281 37.011719 57.246094 34.84375 45.605469 C 34.335938 42.929688 34.335938 38.320312 34.84375 35.644531 C 35.917969 29.84375 38.496094 24.960938 42.675781 20.800781 C 48.984375 14.492188 57.460938 11.601562 66.210938 12.792969 Z M 66.210938 12.792969 "/>
<path style=" stroke:none;fill-rule:nonzero;fill:rgb(0%,0%,0%);fill-opacity:1;" d="M 172.148438 87.8125 C 168.769531 88.378906 165.039062 89.902344 162.167969 91.894531 C 161.289062 92.519531 149.746094 103.90625 127.792969 125.859375 C 101.328125 152.304688 94.667969 159.0625 94.355469 159.765625 C 94.140625 160.253906 92.519531 167.988281 90.722656 176.953125 C 87.207031 194.550781 87.207031 194.453125 88.046875 196.347656 C 88.554688 197.5 90 198.945312 91.152344 199.453125 C 93.046875 200.292969 92.949219 200.292969 110.546875 196.777344 C 120.371094 194.824219 127.207031 193.359375 127.734375 193.125 C 128.417969 192.8125 135.957031 185.390625 161.09375 160.273438 C 178.964844 142.441406 194.101562 127.167969 194.746094 126.347656 C 198.242188 121.953125 200 116.914062 200 111.40625 C 200 101.171875 193.28125 91.933594 183.476562 88.691406 C 180 87.539062 175.703125 87.207031 172.148438 87.8125 Z M 178.417969 100.292969 C 182.792969 101.210938 186.289062 104.726562 187.226562 109.179688 C 187.792969 111.855469 187.265625 114.863281 185.820312 117.304688 C 185.273438 118.222656 178.125 125.46875 153.457031 150.136719 L 121.777344 181.777344 L 111.835938 183.769531 C 106.367188 184.84375 101.855469 185.703125 101.816406 185.683594 C 101.796875 185.644531 102.65625 181.132812 103.730469 175.664062 L 105.722656 165.722656 L 137.1875 134.199219 C 157.558594 113.808594 169.0625 102.421875 169.804688 101.933594 C 172.441406 100.195312 175.332031 99.648438 178.417969 100.292969 Z M 178.417969 100.292969 "/>
</g>
</svg>
