<?xml version="1.0" encoding="UTF-8"?>
<svg xmlns="http://www.w3.org/2000/svg" xmlns:xlink="http://www.w3.org/1999/xlink" width="200pt" height="200pt" viewBox="0 0 200 200" version="1.1">
<g id="surface1">
<path style=" stroke:none;fill-rule:nonzero;fill:rgb(0%,0%,0%);fill-opacity:1;" d="M 58.535156 0.195312 C 50.683594 1.035156 42.792969 4.277344 36.855469 9.140625 C 35.214844 10.507812 32.050781 13.671875 30.761719 15.292969 C 26.992188 19.960938 24.023438 26.269531 22.773438 32.1875 C 22.050781 35.605469 21.796875 38.496094 21.933594 42.089844 C 22.304688 52.539062 26.386719 61.933594 33.769531 69.355469 C 40.292969 75.878906 48.535156 79.902344 57.792969 81.035156 C 58.691406 81.152344 59.472656 81.289062 59.53125 81.347656 C 59.589844 81.40625 59.101562 81.445312 58.4375 81.445312 C 56.835938 81.445312 53.203125 81.914062 50.117188 82.539062 C 44.726562 83.613281 39.726562 85.332031 34.550781 87.929688 C 18.144531 96.113281 6.152344 111.132812 1.777344 128.925781 C 0.605469 133.671875 -0.117188 139.765625 0.0390625 143.496094 C 0.0976562 145.097656 0.195312 145.605469 0.644531 146.523438 C 1.230469 147.734375 2.265625 148.769531 3.554688 149.453125 C 4.257812 149.824219 4.6875 149.902344 6.25 149.902344 C 7.8125 149.902344 8.242188 149.824219 8.945312 149.453125 C 10.234375 148.769531 11.269531 147.734375 11.835938 146.542969 C 12.304688 145.585938 12.382812 145.15625 12.519531 142.421875 C 12.753906 138.144531 13.203125 134.960938 14.0625 131.542969 C 14.980469 127.871094 15.859375 125.488281 17.675781 121.777344 C 22.890625 111.054688 32.089844 102.34375 43.027344 97.773438 C 49.414062 95.078125 55.429688 93.886719 62.5 93.886719 C 70.3125 93.886719 77.070312 95.410156 83.886719 98.710938 C 88.730469 101.054688 92.1875 103.378906 96.445312 107.1875 C 98.90625 109.375 99.785156 109.804688 101.757812 109.804688 C 103.359375 109.804688 104.707031 109.316406 105.839844 108.28125 C 107.792969 106.523438 108.496094 103.847656 107.617188 101.464844 C 107.246094 100.46875 106.894531 100 105.097656 98.242188 C 98.515625 91.796875 89.414062 86.5625 79.960938 83.789062 C 75.703125 82.539062 69.414062 81.445312 66.5625 81.445312 C 65.898438 81.445312 65.410156 81.40625 65.46875 81.347656 C 65.527344 81.289062 66.308594 81.152344 67.207031 81.035156 C 83.886719 78.984375 97.480469 67.207031 101.757812 51.113281 C 102.597656 47.910156 102.929688 45.605469 103.066406 42.089844 C 103.300781 35.332031 101.914062 28.789062 98.945312 22.753906 C 96.796875 18.378906 94.375 15.097656 90.703125 11.503906 C 84.628906 5.605469 77.578125 2.050781 69.042969 0.585938 C 66.328125 0.117188 61.152344 -0.078125 58.535156 0.195312 Z M 67.382812 13.007812 C 70.800781 13.574219 75.097656 15.273438 78.027344 17.246094 C 84.316406 21.464844 88.457031 27.675781 90.078125 35.234375 C 90.625 37.871094 90.683594 42.949219 90.175781 45.703125 C 89.179688 51.054688 86.582031 56.074219 82.753906 60.097656 C 78.769531 64.257812 73.496094 67.148438 67.832031 68.300781 C 65.410156 68.789062 59.589844 68.789062 57.167969 68.300781 C 51.914062 67.246094 47.03125 64.707031 43.183594 61.035156 C 38.886719 56.914062 36.171875 52.070312 34.921875 46.230469 C 34.355469 43.574219 34.316406 38.28125 34.824219 35.644531 C 36.542969 26.816406 42.011719 19.53125 49.902344 15.585938 C 55.351562 12.832031 61.113281 11.992188 67.382812 13.007812 Z M 67.382812 13.007812 "/>
<path style=" stroke:none;fill-rule:nonzero;fill:rgb(0%,0%,0%);fill-opacity:1;" d="M 151.367188 88.28125 C 143.417969 89.257812 135.507812 92.5 129.296875 97.324219 C 127.441406 98.789062 123.59375 102.578125 122.070312 104.492188 C 114.980469 113.378906 111.347656 125.683594 112.8125 135.800781 C 114.550781 147.773438 124.550781 166.171875 141.816406 189.160156 C 146.484375 195.390625 147.402344 196.464844 148.984375 197.597656 C 153.242188 200.644531 158.828125 200.742188 163.164062 197.832031 C 164.980469 196.621094 165.390625 196.152344 169.746094 190.390625 C 187.714844 166.601562 197.851562 148.105469 199.6875 135.703125 C 200.976562 127.128906 198.222656 115.996094 192.832031 107.8125 C 190.449219 104.21875 186.71875 100.136719 183.300781 97.421875 C 177.753906 93.007812 170.527344 89.84375 163.085938 88.574219 C 160.898438 88.183594 153.613281 88.027344 151.367188 88.28125 Z M 160.351562 100.859375 C 171.464844 102.34375 180.9375 109.667969 185.175781 120.039062 C 186.699219 123.789062 187.382812 127.226562 187.382812 131.347656 C 187.382812 134.375 187.070312 136.074219 185.800781 139.746094 C 182.851562 148.261719 175.605469 160.898438 165.820312 174.609375 C 164.042969 177.109375 157.695312 185.605469 156.640625 186.914062 L 156.25 187.402344 L 155.859375 186.914062 C 155.625 186.640625 153.808594 184.21875 151.777344 181.542969 C 136.621094 161.40625 127.128906 144.550781 125.273438 134.472656 C 124.882812 132.304688 125 128.984375 125.585938 125.917969 C 127.34375 116.855469 132.988281 109.0625 141.152344 104.472656 C 146.796875 101.308594 153.769531 100 160.351562 100.859375 Z M 160.351562 100.859375 "/>
<path style=" stroke:none;fill-rule:nonzero;fill:rgb(0%,0%,0%);fill-opacity:1;" d="M 154.023438 122.675781 C 152.558594 123.027344 150.820312 124.023438 149.667969 125.175781 C 144.492188 130.351562 146.914062 139.0625 154.042969 140.917969 C 159.042969 142.226562 164.355469 138.828125 165.449219 133.652344 C 166.445312 128.847656 163.164062 123.769531 158.378906 122.675781 C 157.34375 122.421875 155.058594 122.441406 154.023438 122.675781 Z M 154.023438 122.675781 "/>
</g>
</svg>
