<?xml version="1.0" encoding="UTF-8"?>
<svg xmlns="http://www.w3.org/2000/svg" xmlns:xlink="http://www.w3.org/1999/xlink" width="200pt" height="200pt" viewBox="0 0 200 200" version="1.1">
<g id="surface1">
<path style=" stroke:none;fill-rule:nonzero;fill:rgb(0%,0%,0%);fill-opacity:1;" d="M 88.601562 7.101562 C 49.601562 12.398438 19.199219 39.199219 9.300781 76.898438 C 5.699219 90.601562 5.699219 109.398438 9.300781 123.101562 C 18 156.398438 43.398438 181.800781 76.898438 190.800781 C 90.699219 194.5 109.300781 194.5 123.199219 190.699219 C 156.5 181.800781 182 156.199219 190.699219 123.101562 C 194.300781 109.398438 194.300781 90.601562 190.699219 76.898438 C 183.101562 47.898438 162.101562 23.898438 135 13.101562 C 121.398438 7.699219 102.300781 5.199219 88.601562 7.101562 Z M 120.5 21.398438 C 128.601562 23.601562 141.699219 30 148.199219 34.800781 C 177.601562 56.601562 188.601562 94.800781 175.5 129.5 C 168.101562 149.300781 150.699219 167 130.898438 174.898438 C 99.101562 187.601562 64.5 180.101562 41.300781 155.601562 C 32.5 146.398438 27 137.300781 22.898438 125 C 20.199219 117 19.601562 113.601562 19.300781 103.5 C 18.300781 78.699219 26.601562 58.101562 44.398438 41.300781 C 55.300781 30.898438 68.398438 23.898438 83.199219 20.5 C 91.398438 18.699219 112.300781 19.101562 120.5 21.398438 Z M 120.5 21.398438 "/>
<path style=" stroke:none;fill-rule:nonzero;fill:rgb(0%,0%,0%);fill-opacity:1;" d="M 95.601562 64.601562 C 94.300781 65.898438 94 69.101562 94 84.398438 L 94 102.601562 L 115 123.601562 C 136.898438 145.300781 139.199219 147 143.101562 143.398438 C 147.398438 139.601562 146.101562 137.601562 125.5 117 L 106 97.398438 L 106 81.800781 C 106 64.601562 105.5 63 100 63 C 98.398438 63 96.398438 63.699219 95.601562 64.601562 Z M 95.601562 64.601562 "/>
</g>
</svg>
