<?xml version="1.0" encoding="UTF-8"?>
<svg xmlns="http://www.w3.org/2000/svg" xmlns:xlink="http://www.w3.org/1999/xlink" width="200pt" height="200pt" viewBox="0 0 200 200" version="1.1">
<g id="surface1">
<path style=" stroke:none;fill-rule:nonzero;fill:rgb(0%,0%,0%);fill-opacity:1;" d="M 58.007812 0.214844 C 48.632812 1.367188 40.3125 5.390625 33.789062 11.914062 C 27.714844 17.96875 23.847656 25.546875 22.324219 34.277344 C 21.816406 37.265625 21.855469 44.433594 22.421875 47.460938 C 24.863281 60.722656 33.066406 71.542969 44.980469 77.246094 C 49.492188 79.394531 53.789062 80.585938 58.886719 81.113281 C 59.589844 81.191406 59.082031 81.269531 54.980469 81.71875 C 43.554688 83.027344 32.617188 87.617188 23.242188 95.097656 C 20.859375 96.992188 15.742188 102.109375 13.847656 104.492188 C 5.117188 115.449219 0.195312 128.867188 0.117188 141.894531 C 0.0976562 145.976562 0.253906 146.5625 1.855469 148.144531 C 3.183594 149.492188 4.238281 149.902344 6.25 149.902344 C 8.242188 149.902344 9.316406 149.472656 10.585938 148.203125 C 12.089844 146.71875 12.34375 145.898438 12.539062 142.304688 C 12.949219 134.296875 14.433594 128.359375 17.65625 121.777344 C 20.390625 116.230469 23.242188 112.304688 27.753906 107.910156 C 35.46875 100.390625 44.84375 95.800781 55.761719 94.21875 C 57.480469 93.964844 59.296875 93.867188 62.597656 93.867188 C 67.636719 93.886719 70.644531 94.238281 74.902344 95.332031 C 76.191406 95.644531 77.734375 95.917969 78.339844 95.917969 C 79.84375 95.917969 81.445312 95.273438 82.5 94.257812 C 85.742188 91.09375 84.863281 85.9375 80.761719 84.0625 C 78.789062 83.144531 72.441406 81.875 67.910156 81.464844 C 66.738281 81.367188 65.742188 81.25 65.703125 81.191406 C 65.664062 81.152344 66.269531 81.054688 67.089844 80.996094 C 72.304688 80.546875 79.589844 77.96875 84.316406 74.902344 C 90.878906 70.625 95.820312 65.039062 99.121094 58.144531 C 104.472656 46.972656 104.472656 34.277344 99.121094 23.105469 C 93.378906 11.074219 82.265625 2.753906 68.945312 0.488281 C 66.738281 0.0976562 60.15625 -0.0585938 58.007812 0.214844 Z M 66.210938 12.792969 C 78.359375 14.433594 87.832031 23.457031 90.15625 35.546875 C 90.625 38.066406 90.644531 43.144531 90.175781 45.605469 C 87.929688 57.246094 79.0625 66.113281 67.480469 68.28125 C 64.804688 68.789062 60.195312 68.789062 57.519531 68.28125 C 51.738281 67.207031 46.835938 64.628906 42.675781 60.449219 C 38.535156 56.328125 35.859375 51.269531 34.824219 45.625 C 34.375 43.164062 34.375 38.046875 34.824219 35.546875 C 36.5625 26.132812 43.242188 18.027344 52.1875 14.472656 C 56.601562 12.734375 61.464844 12.148438 66.210938 12.792969 Z M 66.210938 12.792969 "/>
<path style=" stroke:none;fill-rule:nonzero;fill:rgb(0%,0%,0%);fill-opacity:1;" d="M 126.074219 81.484375 C 120.292969 82.050781 112.910156 84.296875 107.8125 87.03125 C 105.644531 88.203125 101.699219 90.839844 99.609375 92.519531 C 93.847656 97.167969 88.4375 104.238281 85.527344 110.957031 C 83.730469 115.078125 82.402344 119.6875 81.699219 124.21875 C 81.210938 127.382812 81.210938 135.117188 81.699219 138.28125 C 83.4375 149.355469 88.242188 158.925781 95.898438 166.601562 C 103.730469 174.414062 113.339844 179.160156 124.902344 180.898438 C 127.246094 181.25 135.253906 181.25 137.597656 180.898438 C 142.460938 180.15625 147.03125 178.886719 151.171875 177.109375 C 154.609375 175.644531 157.070312 174.199219 161.640625 170.996094 C 161.855469 170.839844 165.097656 174.003906 176.113281 184.980469 C 192.050781 200.878906 190.898438 199.902344 193.847656 199.902344 C 195.761719 199.882812 196.855469 199.453125 198.144531 198.144531 C 199.453125 196.855469 199.882812 195.761719 199.902344 193.847656 C 199.902344 190.898438 200.878906 192.050781 184.980469 176.113281 C 174.003906 165.097656 170.839844 161.855469 170.996094 161.640625 C 174.199219 157.070312 175.644531 154.609375 177.109375 151.171875 C 178.886719 147.03125 180.15625 142.441406 180.878906 137.597656 C 181.230469 135.253906 181.230469 127.246094 180.878906 124.902344 C 179.160156 113.339844 174.453125 103.769531 166.582031 95.917969 C 158.398438 87.714844 147.539062 82.578125 136.054688 81.464844 C 133.554688 81.210938 128.59375 81.230469 126.074219 81.484375 Z M 134.785156 93.945312 C 147.519531 95.214844 158.515625 102.597656 164.433594 113.886719 C 166.40625 117.636719 167.539062 121.054688 168.300781 125.488281 C 168.789062 128.4375 168.75 134.511719 168.203125 137.558594 C 165.820312 150.664062 157.265625 161.191406 145.019531 166.113281 C 137.167969 169.257812 127.675781 169.550781 119.53125 166.855469 C 109.941406 163.710938 101.894531 156.621094 97.480469 147.460938 C 88.496094 128.847656 96.367188 106.464844 115.039062 97.480469 C 121.269531 94.472656 128.007812 93.28125 134.785156 93.945312 Z M 134.785156 93.945312 "/>
</g>
</svg>
