<?xml version="1.0" encoding="UTF-8"?>
<svg xmlns="http://www.w3.org/2000/svg" xmlns:xlink="http://www.w3.org/1999/xlink" width="200pt" height="200pt" viewBox="0 0 200 200" version="1.1">
<g id="surface1">
<path style=" stroke:none;fill-rule:nonzero;fill:rgb(0%,0%,0%);fill-opacity:1;" d="M 58.007812 0.214844 C 48.632812 1.367188 40.3125 5.390625 33.789062 11.914062 C 27.714844 17.96875 23.847656 25.546875 22.324219 34.277344 C 21.816406 37.265625 21.855469 44.433594 22.421875 47.460938 C 24.863281 60.722656 33.066406 71.542969 44.980469 77.246094 C 49.492188 79.394531 53.789062 80.585938 58.886719 81.113281 C 59.589844 81.191406 59.082031 81.269531 54.980469 81.71875 C 43.554688 83.027344 32.617188 87.617188 23.242188 95.097656 C 20.859375 96.992188 15.742188 102.109375 13.847656 104.492188 C 5.117188 115.449219 0.195312 128.867188 0.117188 141.894531 C 0.0976562 145.976562 0.253906 146.5625 1.855469 148.144531 C 3.183594 149.492188 4.238281 149.902344 6.25 149.902344 C 8.242188 149.902344 9.316406 149.472656 10.585938 148.203125 C 12.089844 146.71875 12.34375 145.898438 12.539062 142.304688 C 12.949219 134.296875 14.433594 128.359375 17.65625 121.777344 C 20.390625 116.230469 23.242188 112.304688 27.753906 107.910156 C 35.46875 100.390625 44.863281 95.800781 55.761719 94.21875 C 58.984375 93.75 65.976562 93.730469 69.238281 94.199219 C 79.492188 95.664062 88.691406 100.078125 96.640625 107.304688 C 98.730469 109.199219 99.882812 109.765625 101.757812 109.765625 C 106.757812 109.765625 109.6875 104.199219 106.894531 99.980469 C 106.367188 99.179688 102.988281 96.09375 100.605469 94.257812 C 91.328125 87.070312 79.667969 82.519531 67.910156 81.464844 C 66.738281 81.367188 65.742188 81.25 65.703125 81.191406 C 65.664062 81.152344 66.269531 81.054688 67.089844 80.996094 C 72.304688 80.546875 79.589844 77.96875 84.316406 74.902344 C 90.878906 70.625 95.820312 65.039062 99.121094 58.144531 C 104.472656 46.972656 104.472656 34.277344 99.121094 23.105469 C 93.378906 11.074219 82.265625 2.753906 68.945312 0.488281 C 66.738281 0.0976562 60.15625 -0.0585938 58.007812 0.214844 Z M 66.210938 12.792969 C 78.359375 14.433594 87.832031 23.457031 90.15625 35.546875 C 90.625 38.066406 90.644531 43.144531 90.175781 45.605469 C 87.929688 57.246094 79.0625 66.113281 67.480469 68.28125 C 64.804688 68.789062 60.195312 68.789062 57.519531 68.28125 C 51.738281 67.207031 46.835938 64.628906 42.675781 60.449219 C 38.535156 56.328125 35.859375 51.269531 34.824219 45.625 C 34.375 43.164062 34.375 38.046875 34.824219 35.546875 C 36.5625 26.132812 43.242188 18.027344 52.1875 14.472656 C 56.601562 12.734375 61.464844 12.148438 66.210938 12.792969 Z M 66.210938 12.792969 "/>
<path style=" stroke:none;fill-rule:nonzero;fill:rgb(0%,0%,0%);fill-opacity:1;" d="M 152.246094 87.714844 C 140.371094 89.316406 130.351562 97.578125 126.582031 108.886719 C 125.351562 112.597656 125.15625 114.003906 125.058594 120.3125 L 124.960938 126.074219 L 123.652344 126.601562 C 121.914062 127.324219 120.136719 128.515625 118.476562 130.078125 C 115.878906 132.519531 114.277344 135.136719 113.144531 138.769531 L 112.597656 140.527344 L 112.597656 162.402344 C 112.597656 186.679688 112.5 184.6875 113.886719 188.320312 C 115.566406 192.675781 119.824219 196.933594 124.238281 198.632812 C 127.949219 200.058594 126.289062 200 156.25 200 C 186.210938 200 184.550781 200.058594 188.261719 198.632812 C 192.714844 196.914062 196.914062 192.695312 198.652344 188.222656 C 200.039062 184.628906 200 185.449219 200 162.5 C 200 139.53125 200.039062 140.371094 198.632812 136.738281 C 196.992188 132.5 192.695312 128.085938 188.671875 126.523438 L 187.5 126.074219 L 187.5 121.347656 C 187.5 116.015625 187.226562 113.515625 186.328125 110.3125 C 184.84375 105.019531 182.265625 100.644531 178.320312 96.679688 C 173.90625 92.265625 168.59375 89.414062 162.34375 88.085938 C 160.15625 87.617188 154.492188 87.402344 152.246094 87.714844 Z M 160.800781 100.566406 C 166.054688 101.933594 170.507812 105.488281 172.910156 110.253906 C 174.589844 113.59375 175 115.761719 175 121.230469 L 175 125 L 137.460938 125 L 137.558594 120.351562 C 137.675781 114.472656 138.085938 112.753906 140.214844 109.101562 C 141.191406 107.402344 143.984375 104.394531 145.566406 103.339844 C 147.8125 101.816406 150.878906 100.605469 153.417969 100.195312 C 155.214844 99.921875 159.042969 100.117188 160.800781 100.566406 Z M 183.925781 138.125 C 185.292969 138.847656 186.269531 139.863281 186.894531 141.191406 L 187.402344 142.285156 L 187.402344 182.714844 L 186.894531 183.808594 C 186.25 185.195312 185.195312 186.25 183.808594 186.894531 L 182.714844 187.402344 L 129.589844 187.402344 L 128.574219 186.875 C 127.285156 186.191406 126.308594 185.214844 125.625 183.925781 L 125.097656 182.910156 L 125.097656 142.089844 L 125.625 141.074219 C 126.523438 139.375 128.085938 138.105469 129.785156 137.675781 C 130.117188 137.597656 142.1875 137.558594 156.640625 137.558594 L 182.910156 137.597656 Z M 183.925781 138.125 "/>
<path style=" stroke:none;fill-rule:nonzero;fill:rgb(0%,0%,0%);fill-opacity:1;" d="M 154.0625 153.632812 C 150.605469 154.453125 147.792969 157.382812 147.070312 160.878906 C 146.777344 162.265625 146.914062 164.394531 147.382812 165.820312 C 148.183594 168.222656 150.429688 170.546875 152.871094 171.503906 C 154.570312 172.148438 157.1875 172.246094 158.945312 171.699219 C 163.75 170.253906 166.582031 165.253906 165.332031 160.449219 C 164.023438 155.46875 159.003906 152.421875 154.0625 153.632812 Z M 154.0625 153.632812 "/>
</g>
</svg>
