<?xml version="1.0" encoding="UTF-8"?>
<svg xmlns="http://www.w3.org/2000/svg" xmlns:xlink="http://www.w3.org/1999/xlink" width="200pt" height="200pt" viewBox="0 0 200 200" version="1.1">
<g id="surface1">
<path style=" stroke:none;fill-rule:nonzero;fill:rgb(0%,0%,0%);fill-opacity:1;" d="M 58.105469 0.214844 C 55.683594 0.46875 52.011719 1.289062 49.472656 2.167969 C 34.296875 7.34375 23.710938 20.683594 22.050781 36.71875 C 21.757812 39.609375 21.933594 44.550781 22.441406 47.460938 C 24.6875 60.253906 32.734375 71.113281 44.238281 76.894531 C 48.320312 78.964844 52.988281 80.410156 57.089844 80.898438 C 58.242188 81.035156 59.0625 81.191406 58.925781 81.269531 C 58.808594 81.328125 57.851562 81.445312 56.835938 81.523438 C 50.957031 81.914062 43.515625 83.828125 37.304688 86.542969 C 30.15625 89.6875 24.121094 93.847656 18.359375 99.609375 C 11.269531 106.699219 6.308594 114.648438 3.242188 123.886719 C 0.722656 131.445312 -0.722656 142.1875 0.292969 145.664062 C 0.722656 147.089844 2.011719 148.59375 3.417969 149.316406 C 4.433594 149.824219 4.765625 149.902344 6.230469 149.902344 C 7.675781 149.902344 8.066406 149.824219 9.023438 149.355469 C 10.292969 148.730469 11.367188 147.597656 11.972656 146.289062 C 12.285156 145.585938 12.402344 144.765625 12.539062 142.285156 C 12.949219 134.316406 14.511719 128.105469 17.695312 121.699219 C 20.410156 116.230469 22.792969 112.929688 27.246094 108.496094 C 31.71875 104.003906 35.039062 101.621094 40.527344 98.925781 C 43.886719 97.265625 46.425781 96.308594 49.492188 95.488281 C 57.753906 93.300781 66.640625 93.242188 74.804688 95.292969 C 77.070312 95.878906 78.007812 96.171875 80.957031 97.304688 C 83.359375 98.242188 83.574219 98.28125 84.960938 98.203125 C 88.261719 98.007812 90.585938 95.683594 90.78125 92.382812 C 90.898438 90.371094 90.351562 88.945312 88.964844 87.597656 C 88.144531 86.796875 87.558594 86.445312 85.898438 85.78125 C 80.136719 83.496094 73.417969 81.875 68.164062 81.523438 C 66.132812 81.367188 64.941406 81.09375 66.308594 81.074219 C 68.554688 81.035156 73.730469 79.84375 76.875 78.632812 C 97.148438 70.898438 107.773438 48.808594 101.132812 28.125 C 95.742188 11.308594 79.824219 -0.15625 62.128906 0.0195312 C 60.78125 0.0390625 58.964844 0.117188 58.105469 0.214844 Z M 67.96875 13.066406 C 72.050781 13.886719 75.957031 15.625 79.335938 18.164062 C 90.292969 26.386719 93.730469 41.191406 87.519531 53.496094 C 84.902344 58.671875 79.804688 63.574219 74.394531 66.09375 C 70.332031 67.988281 67.285156 68.632812 62.5 68.632812 C 57.714844 68.632812 54.667969 67.988281 50.605469 66.09375 C 45.195312 63.574219 40.097656 58.671875 37.480469 53.496094 C 31.269531 41.191406 34.707031 26.386719 45.664062 18.164062 C 49.804688 15.058594 54.394531 13.28125 59.960938 12.617188 C 61.40625 12.441406 66.191406 12.714844 67.96875 13.066406 Z M 67.96875 13.066406 "/>
<path style=" stroke:none;fill-rule:nonzero;fill:rgb(0%,0%,0%);fill-opacity:1;" d="M 139.160156 87.617188 C 131.464844 88.417969 125.039062 90.234375 118.515625 93.496094 C 112.949219 96.289062 108.515625 99.492188 104.003906 104.003906 C 99.492188 108.496094 96.289062 112.949219 93.476562 118.554688 C 90.605469 124.316406 88.945312 129.648438 87.96875 136.210938 C 87.558594 139.042969 87.402344 145.488281 87.675781 148.4375 C 89.238281 164.863281 97.089844 179.003906 110.058594 188.769531 C 117.734375 194.53125 126.308594 198.046875 136.425781 199.550781 C 139.726562 200.039062 147.773438 200.039062 151.074219 199.550781 C 161.152344 198.046875 169.824219 194.511719 177.421875 188.789062 C 190.410156 179.003906 198.261719 164.84375 199.824219 148.4375 C 200.097656 145.488281 199.941406 139.042969 199.53125 136.210938 C 197.988281 125.800781 193.984375 116.484375 187.597656 108.496094 C 185.664062 106.054688 181.542969 101.933594 179.101562 99.960938 C 172.96875 95.019531 165.332031 91.191406 157.695312 89.238281 C 152.949219 88.046875 150.039062 87.675781 144.628906 87.597656 C 142.050781 87.558594 139.589844 87.578125 139.160156 87.617188 Z M 150.292969 100.488281 C 159.824219 101.953125 168.476562 106.445312 175.195312 113.398438 C 181.621094 120.078125 185.625 128.203125 187.050781 137.5 C 187.519531 140.585938 187.519531 146.914062 187.050781 150 C 185.644531 159.21875 181.621094 167.402344 175.253906 174.042969 C 168.554688 181.015625 159.765625 185.527344 150 187.03125 C 146.914062 187.519531 140.585938 187.519531 137.5 187.03125 C 127.890625 185.566406 119.6875 181.425781 112.871094 174.628906 C 106.074219 167.832031 101.914062 159.589844 100.449219 150 C 99.980469 146.914062 99.980469 140.585938 100.449219 137.5 C 101.875 128.183594 105.859375 120.078125 112.304688 113.398438 C 119.609375 105.820312 128.90625 101.328125 139.550781 100.195312 C 141.757812 99.960938 147.96875 100.136719 150.292969 100.488281 Z M 150.292969 100.488281 "/>
<path style=" stroke:none;fill-rule:nonzero;fill:rgb(0%,0%,0%);fill-opacity:1;" d="M 122.910156 119.101562 C 120.195312 120.078125 118.574219 122.597656 118.808594 125.507812 C 118.984375 127.773438 119.140625 127.96875 127.324219 136.191406 L 134.84375 143.75 L 127.226562 151.425781 C 118.613281 160.058594 118.847656 159.746094 118.847656 162.597656 C 118.847656 164.453125 119.335938 165.625 120.585938 166.894531 C 121.875 168.183594 123.046875 168.652344 125 168.652344 C 127.714844 168.652344 127.558594 168.75 136.191406 160.175781 L 143.75 152.65625 L 151.328125 160.175781 C 159.941406 168.75 159.785156 168.652344 162.5 168.652344 C 164.453125 168.652344 165.625 168.183594 166.914062 166.894531 C 168.164062 165.625 168.652344 164.453125 168.652344 162.597656 C 168.652344 159.746094 168.886719 160.058594 160.273438 151.425781 L 152.65625 143.75 L 160.175781 136.191406 C 168.75 127.558594 168.652344 127.695312 168.652344 125 C 168.652344 123.730469 168.554688 123.125 168.242188 122.441406 C 167.636719 121.152344 166.542969 120.019531 165.273438 119.394531 C 164.335938 118.925781 163.90625 118.847656 162.597656 118.847656 C 159.746094 118.847656 160.058594 118.613281 151.40625 127.226562 L 143.75 134.863281 L 136.171875 127.304688 C 127.8125 118.945312 127.8125 118.945312 125.292969 118.808594 C 124.316406 118.75 123.632812 118.847656 122.910156 119.101562 Z M 122.910156 119.101562 "/>
</g>
</svg>
