<?xml version="1.0" encoding="UTF-8"?>
<svg xmlns="http://www.w3.org/2000/svg" xmlns:xlink="http://www.w3.org/1999/xlink" width="200pt" height="200pt" viewBox="0 0 200 200" version="1.1">
<g id="surface1">
<path style=" stroke:none;fill-rule:nonzero;fill:rgb(0%,0%,0%);fill-opacity:1;" d="M 87.800781 1.601562 C 70.898438 5.601562 56.199219 20.101562 51.800781 36.898438 C 44.699219 64.398438 60.699219 91.300781 88.5 98.5 C 113.898438 105 141.5 88.601562 148.199219 63.101562 C 157.800781 26.101562 124.898438 -7.398438 87.800781 1.601562 Z M 116.300781 16.5 C 123.101562 19.898438 130.699219 27.601562 134.101562 34.5 C 136.199219 38.800781 136.5 40.898438 136.5 50 C 136.5 59.601562 136.300781 61 133.601562 66.300781 C 130.101562 73.101562 122.398438 80.699219 115.5 84.101562 C 111.199219 86.199219 109.101562 86.5 100 86.5 C 90.398438 86.5 89 86.300781 83.699219 83.601562 C 76.898438 80.101562 68.699219 71.800781 65.699219 65.300781 C 63.898438 61.300781 63.5 58.699219 63.5 50 C 63.5 40.898438 63.800781 38.898438 66 34.5 C 70.398438 25.398438 79.5 17.300781 88.5 14.300781 C 90.898438 13.5 96 13.101562 101.601562 13.300781 C 109.199219 13.5 111.5 14 116.300781 16.5 Z M 116.300781 16.5 "/>
<path style=" stroke:none;fill-rule:nonzero;fill:rgb(0%,0%,0%);fill-opacity:1;" d="M 92.5 106.601562 C 84.699219 107.398438 73.5 110.300781 66.101562 113.398438 C 36.101562 126.101562 15.101562 155.101562 13.300781 186.300781 C 12.800781 194.800781 12.898438 196.300781 14.5 198 C 16.800781 200.5 20.398438 200.601562 22.800781 198.199219 C 24.199219 196.800781 24.898438 194.101562 25.300781 187.800781 C 27.5 159.601562 46.5 134.101562 73 123.699219 C 84.898438 119.101562 101.300781 117.601562 114.601562 120.101562 C 146.398438 126 172.101562 154.898438 174.699219 187.800781 C 175.101562 194.101562 175.800781 196.800781 177.199219 198.199219 C 179.601562 200.601562 183.199219 200.5 185.5 198 C 187.101562 196.300781 187.199219 194.800781 186.699219 186.300781 C 184.601562 149.398438 156.199219 117 118.601562 108.5 C 111.800781 107 98.601562 106.101562 92.5 106.601562 Z M 92.5 106.601562 "/>
</g>
</svg>
